<svg id="Layer_1" data-name="Layer 1" xmlns="http://www.w3.org/2000/svg" xmlns:xlink="http://www.w3.org/1999/xlink" viewBox="0 0 1461.53 868.67"><defs><style>.cls-1,.cls-10,.cls-102,.cls-103,.cls-104,.cls-106,.cls-108,.cls-110,.cls-112,.cls-113,.cls-114,.cls-116,.cls-118,.cls-12,.cls-120,.cls-122,.cls-123,.cls-124,.cls-126,.cls-128,.cls-130,.cls-132,.cls-133,.cls-134,.cls-136,.cls-138,.cls-14,.cls-140,.cls-147,.cls-148,.cls-149,.cls-150,.cls-151,.cls-152,.cls-153,.cls-154,.cls-155,.cls-156,.cls-157,.cls-158,.cls-159,.cls-16,.cls-160,.cls-161,.cls-162,.cls-18,.cls-20,.cls-22,.cls-24,.cls-26,.cls-28,.cls-30,.cls-32,.cls-34,.cls-36,.cls-37,.cls-4,.cls-48,.cls-55,.cls-57,.cls-59,.cls-61,.cls-63,.cls-67,.cls-69,.cls-7,.cls-71,.cls-73,.cls-75,.cls-77,.cls-78,.cls-8,.cls-91,.cls-92,.cls-93,.cls-95,.cls-97,.cls-99{fill:none;}.cls-2{clip-path:url(#clip-path);}.cls-3{fill:#fff;}.cls-4,.cls-7,.cls-8{stroke:#fff;}.cls-10,.cls-106,.cls-108,.cls-110,.cls-116,.cls-118,.cls-12,.cls-120,.cls-126,.cls-128,.cls-130,.cls-136,.cls-138,.cls-14,.cls-140,.cls-16,.cls-18,.cls-20,.cls-22,.cls-24,.cls-26,.cls-28,.cls-30,.cls-32,.cls-34,.cls-36,.cls-37,.cls-4,.cls-55,.cls-57,.cls-59,.cls-61,.cls-63,.cls-67,.cls-69,.cls-71,.cls-73,.cls-75,.cls-77,.cls-78,.cls-95,.cls-97,.cls-99{stroke-linecap:round;}.cls-10,.cls-102,.cls-103,.cls-104,.cls-106,.cls-108,.cls-110,.cls-112,.cls-113,.cls-114,.cls-116,.cls-118,.cls-12,.cls-120,.cls-122,.cls-123,.cls-124,.cls-126,.cls-128,.cls-130,.cls-132,.cls-133,.cls-134,.cls-136,.cls-138,.cls-14,.cls-140,.cls-147,.cls-16,.cls-18,.cls-20,.cls-22,.cls-24,.cls-26,.cls-28,.cls-30,.cls-32,.cls-34,.cls-36,.cls-37,.cls-4,.cls-48,.cls-55,.cls-57,.cls-59,.cls-61,.cls-63,.cls-67,.cls-69,.cls-7,.cls-71,.cls-73,.cls-75,.cls-77,.cls-78,.cls-8,.cls-91,.cls-92,.cls-93,.cls-95,.cls-97,.cls-99{stroke-linejoin:round;}.cls-102,.cls-103,.cls-104,.cls-106,.cls-108,.cls-110,.cls-112,.cls-113,.cls-114,.cls-116,.cls-118,.cls-120,.cls-122,.cls-123,.cls-124,.cls-126,.cls-128,.cls-130,.cls-132,.cls-133,.cls-134,.cls-136,.cls-138,.cls-140,.cls-147,.cls-148,.cls-149,.cls-150,.cls-151,.cls-152,.cls-153,.cls-154,.cls-155,.cls-156,.cls-157,.cls-158,.cls-159,.cls-160,.cls-161,.cls-162,.cls-37,.cls-4,.cls-48,.cls-8,.cls-91,.cls-92,.cls-93,.cls-95,.cls-97,.cls-99{stroke-width:1.07px;}.cls-5{clip-path:url(#clip-path-2);}.cls-6{fill:#ebebeb;}.cls-7{stroke-width:0.53px;}.cls-11,.cls-13,.cls-54,.cls-9{fill:#bc3c29;}.cls-10,.cls-9{opacity:0.36;}.cls-10,.cls-12,.cls-14,.cls-55{stroke:#bc3c29;}.cls-10,.cls-12,.cls-14,.cls-16,.cls-18,.cls-20,.cls-22,.cls-24,.cls-26,.cls-28,.cls-30,.cls-32,.cls-34,.cls-36,.cls-55,.cls-57,.cls-59,.cls-61,.cls-63,.cls-67,.cls-69,.cls-71,.cls-73,.cls-75,.cls-77,.cls-78{stroke-width:0.71px;}.cls-11,.cls-12{opacity:0.56;}.cls-13,.cls-14{opacity:0.69;}.cls-15,.cls-17,.cls-56{fill:#0072b5;}.cls-15,.cls-16{opacity:0.82;}.cls-16,.cls-18,.cls-57{stroke:#0072b5;}.cls-17,.cls-18{opacity:0.13;}.cls-19,.cls-21,.cls-23,.cls-58{fill:#e18727;}.cls-19,.cls-20{opacity:0.44;}.cls-20,.cls-22,.cls-24,.cls-59{stroke:#e18727;}.cls-21,.cls-22{opacity:0.68;}.cls-23,.cls-24{opacity:0.77;}.cls-25,.cls-27,.cls-29,.cls-60{fill:#20854e;}.cls-25,.cls-26{opacity:0.32;}.cls-26,.cls-28,.cls-30,.cls-61{stroke:#20854e;}.cls-27,.cls-28{opacity:0.52;}.cls-29,.cls-30{opacity:0.6;}.cls-31,.cls-33,.cls-35,.cls-62{fill:#7876b1;}.cls-31,.cls-32,.cls-74,.cls-75{opacity:0.7;}.cls-32,.cls-34,.cls-36,.cls-63{stroke:#7876b1;}.cls-33,.cls-34{opacity:0.59;}.cls-35,.cls-36{opacity:0.86;}.cls-37,.cls-67,.cls-69,.cls-71,.cls-73,.cls-75,.cls-77,.cls-78{stroke:#000;}.cls-38{font-size:11px;}.cls-142,.cls-38,.cls-47,.cls-49,.cls-51,.cls-64{font-family:ArialMT, Arial;}.cls-39{letter-spacing:-0.03em;}.cls-40{letter-spacing:-0.03em;}.cls-41{letter-spacing:-0.02em;}.cls-42{letter-spacing:-0.05em;}.cls-43{letter-spacing:-0.02em;}.cls-44{letter-spacing:0.02em;}.cls-45{letter-spacing:-0.02em;}.cls-46{letter-spacing:0.04em;}.cls-47,.cls-64{font-size:12px;}.cls-47{fill:#4d4d4d;}.cls-48{stroke:#333;}.cls-142,.cls-49{font-size:16px;}.cls-50{letter-spacing:-0.02em;}.cls-51{font-size:14px;}.cls-52{letter-spacing:0.03em;}.cls-53{fill:#f2f2f2;}.cls-65{letter-spacing:-0.03em;}.cls-105,.cls-107,.cls-109,.cls-115,.cls-117,.cls-119,.cls-125,.cls-127,.cls-129,.cls-135,.cls-137,.cls-139,.cls-66,.cls-67,.cls-94,.cls-96,.cls-98{opacity:0.1;}.cls-68,.cls-69{opacity:0.25;}.cls-70,.cls-71{opacity:0.4;}.cls-72,.cls-73{opacity:0.55;}.cls-76,.cls-77{opacity:0.85;}.cls-79{clip-path:url(#clip-path-3);}.cls-80{clip-path:url(#clip-path-4);}.cls-81{fill:#ffdc91;}.cls-82{fill:#6f99ad;}.cls-83{letter-spacing:-0.03em;}.cls-84{letter-spacing:0.03em;}.cls-85{letter-spacing:-0.01em;}.cls-86{letter-spacing:-0.03em;}.cls-87{letter-spacing:-0.14em;}.cls-88{letter-spacing:-0.12em;}.cls-89{clip-path:url(#clip-path-5);}.cls-90{clip-path:url(#clip-path-6);}.cls-154,.cls-91,.cls-95{stroke:#00bf7d;}.cls-155,.cls-92,.cls-97{stroke:#00c0af;}.cls-156,.cls-93,.cls-99{stroke:#00bcd8;}.cls-94{fill:#00bf7d;}.cls-96{fill:#00c0af;}.cls-98{fill:#00bcd8;}.cls-100{fill:orange;opacity:0.2;}.cls-101{clip-path:url(#clip-path-7);}.cls-102,.cls-106,.cls-151{stroke:#a3a500;}.cls-103,.cls-108,.cls-152{stroke:#6bb100;}.cls-104,.cls-110,.cls-153{stroke:#00ba38;}.cls-105{fill:#a3a500;}.cls-107{fill:#6bb100;}.cls-109{fill:#00ba38;}.cls-111{clip-path:url(#clip-path-8);}.cls-112,.cls-116,.cls-148{stroke:#f8766d;}.cls-113,.cls-118,.cls-149{stroke:#e58700;}.cls-114,.cls-120,.cls-150{stroke:#c99800;}.cls-115{fill:#f8766d;}.cls-117{fill:#e58700;}.cls-119{fill:#c99800;}.cls-121{clip-path:url(#clip-path-9);}.cls-122,.cls-126,.cls-157{stroke:#00b0f6;}.cls-123,.cls-128,.cls-158{stroke:#619cff;}.cls-124,.cls-130,.cls-159{stroke:#b983ff;}.cls-125{fill:#00b0f6;}.cls-127{fill:#619cff;}.cls-129{fill:#b983ff;}.cls-131{clip-path:url(#clip-path-10);}.cls-132,.cls-136,.cls-160{stroke:#e76bf3;}.cls-133,.cls-138,.cls-161{stroke:#fd61d1;}.cls-134,.cls-140,.cls-162{stroke:#ff67a4;}.cls-135{fill:#e76bf3;}.cls-137{fill:#fd61d1;}.cls-139{fill:#ff67a4;}.cls-141{clip-path:url(#clip-path-11);}.cls-142{fill:#1a1a1a;}.cls-143{clip-path:url(#clip-path-12);}.cls-144{clip-path:url(#clip-path-13);}.cls-145{clip-path:url(#clip-path-14);}.cls-146{clip-path:url(#clip-path-15);}.cls-147{stroke:#bebebe;}.cls-148,.cls-149,.cls-150,.cls-151,.cls-152,.cls-153,.cls-154,.cls-155,.cls-156,.cls-157,.cls-158,.cls-159,.cls-160,.cls-161,.cls-162{stroke-linecap:square;stroke-miterlimit:10;}.cls-163{letter-spacing:-0.01em;}.cls-164{letter-spacing:-0.02em;}.cls-165{letter-spacing:-0.03em;}.cls-166{letter-spacing:0.01em;}.cls-167{letter-spacing:-0.02em;}.cls-168{letter-spacing:-0.05em;}.cls-169{letter-spacing:-0.02em;}.cls-170{letter-spacing:0.02em;}.cls-171{letter-spacing:0.04em;}.cls-172{font-size:36px;font-family:MyriadPro-Regular, Myriad Pro;}</style><clipPath id="clip-path" transform="translate(-20.07 -15.99)"><rect class="cls-1" x="41.07" y="452.12" width="864" height="432"/></clipPath><clipPath id="clip-path-2" transform="translate(-20.07 -15.99)"><rect class="cls-1" x="112.6" y="457.6" width="699.48" height="387.11"/></clipPath><clipPath id="clip-path-3" transform="translate(-20.07 -15.99)"><rect class="cls-1" x="905.07" y="452.12" width="576" height="432"/></clipPath><clipPath id="clip-path-4" transform="translate(-20.07 -15.99)"><rect class="cls-1" x="939.38" y="457.6" width="439.79" height="388.02"/></clipPath><clipPath id="clip-path-5" transform="translate(-20.07 -15.99)"><rect class="cls-1" x="41.07" y="59.12" width="1440" height="360"/></clipPath><clipPath id="clip-path-6" transform="translate(-20.07 -15.99)"><rect class="cls-1" x="92.58" y="88.38" width="232.79" height="291.33"/></clipPath><clipPath id="clip-path-7" transform="translate(-20.07 -15.99)"><rect class="cls-1" x="330.85" y="88.38" width="232.79" height="291.33"/></clipPath><clipPath id="clip-path-8" transform="translate(-20.07 -15.99)"><rect class="cls-1" x="569.12" y="88.38" width="232.79" height="291.33"/></clipPath><clipPath id="clip-path-9" transform="translate(-20.07 -15.99)"><rect class="cls-1" x="807.39" y="88.38" width="232.79" height="291.33"/></clipPath><clipPath id="clip-path-10" transform="translate(-20.07 -15.99)"><rect class="cls-1" x="1045.66" y="88.38" width="232.79" height="291.33"/></clipPath><clipPath id="clip-path-11" transform="translate(-20.07 -15.99)"><rect class="cls-1" x="92.58" y="64.59" width="232.79" height="23.78"/></clipPath><clipPath id="clip-path-12" transform="translate(-20.07 -15.99)"><rect class="cls-1" x="330.85" y="64.59" width="232.79" height="23.78"/></clipPath><clipPath id="clip-path-13" transform="translate(-20.07 -15.99)"><rect class="cls-1" x="569.12" y="64.59" width="232.79" height="23.78"/></clipPath><clipPath id="clip-path-14" transform="translate(-20.07 -15.99)"><rect class="cls-1" x="807.39" y="64.59" width="232.79" height="23.78"/></clipPath><clipPath id="clip-path-15" transform="translate(-20.07 -15.99)"><rect class="cls-1" x="1045.66" y="64.59" width="232.79" height="23.78"/></clipPath></defs><g class="cls-2"><rect class="cls-3" x="21" y="436.13" width="864" height="432"/><rect class="cls-3" x="21" y="436.13" width="864" height="432"/><rect class="cls-4" x="21" y="436.13" width="864" height="432"/><g class="cls-5"><rect class="cls-6" x="92.53" y="441.61" width="699.48" height="387.11"/><line class="cls-7" x1="92.53" y1="777.93" x2="792.01" y2="777.93"/><line class="cls-7" x1="92.53" y1="711.54" x2="792.01" y2="711.54"/><line class="cls-7" x1="92.53" y1="645.15" x2="792.01" y2="645.15"/><line class="cls-7" x1="92.53" y1="578.77" x2="792.01" y2="578.77"/><line class="cls-7" x1="92.53" y1="512.38" x2="792.01" y2="512.38"/><line class="cls-7" x1="92.53" y1="446" x2="792.01" y2="446"/><line class="cls-7" x1="220.64" y1="828.72" x2="220.64" y2="441.61"/><line class="cls-7" x1="413.27" y1="828.72" x2="413.27" y2="441.61"/><line class="cls-7" x1="605.91" y1="828.72" x2="605.91" y2="441.61"/><line class="cls-8" x1="92.53" y1="811.12" x2="792.01" y2="811.12"/><line class="cls-8" x1="92.53" y1="744.73" x2="792.01" y2="744.73"/><line class="cls-8" x1="92.53" y1="678.35" x2="792.01" y2="678.35"/><line class="cls-8" x1="92.53" y1="611.96" x2="792.01" y2="611.96"/><line class="cls-8" x1="92.53" y1="545.58" x2="792.01" y2="545.58"/><line class="cls-8" x1="92.53" y1="479.19" x2="792.01" y2="479.19"/><line class="cls-8" x1="124.32" y1="828.72" x2="124.32" y2="441.61"/><line class="cls-8" x1="316.96" y1="828.72" x2="316.96" y2="441.61"/><line class="cls-8" x1="509.59" y1="828.72" x2="509.59" y2="441.61"/><line class="cls-8" x1="702.23" y1="828.72" x2="702.23" y2="441.61"/><path class="cls-9" d="M624.6,535.53A64.38,64.38,0,1,1,689,599.9a64.57,64.57,0,0,1-64.37-64.37" transform="translate(-20.07 -15.99)"/><path class="cls-10" d="M624.6,535.53A64.38,64.38,0,1,1,689,599.9a64.57,64.57,0,0,1-64.37-64.37" transform="translate(-20.07 -15.99)"/><path class="cls-11" d="M504.77,578.22A32.22,32.22,0,1,1,537,610.44a32.31,32.31,0,0,1-32.21-32.22" transform="translate(-20.07 -15.99)"/><path class="cls-12" d="M504.77,578.22A32.22,32.22,0,1,1,537,610.44a32.31,32.31,0,0,1-32.21-32.22" transform="translate(-20.07 -15.99)"/><path class="cls-13" d="M324.07,713.58a14.3,14.3,0,1,1,14.3,14.3,14.34,14.34,0,0,1-14.3-14.3" transform="translate(-20.07 -15.99)"/><path class="cls-14" d="M324.07,713.58a14.3,14.3,0,1,1,14.3,14.3,14.34,14.34,0,0,1-14.3-14.3" transform="translate(-20.07 -15.99)"/><path class="cls-15" d="M541.15,560.42a45.44,45.44,0,1,1,45.44,45.44,45.58,45.58,0,0,1-45.44-45.44" transform="translate(-20.07 -15.99)"/><path class="cls-16" d="M541.15,560.42a45.44,45.44,0,1,1,45.44,45.44,45.58,45.58,0,0,1-45.44-45.44" transform="translate(-20.07 -15.99)"/><path class="cls-17" d="M317.59,653.18A11.78,11.78,0,1,1,329.37,665a11.81,11.81,0,0,1-11.78-11.77" transform="translate(-20.07 -15.99)"/><path class="cls-18" d="M317.59,653.18A11.78,11.78,0,1,1,329.37,665a11.81,11.81,0,0,1-11.78-11.77" transform="translate(-20.07 -15.99)"/><path class="cls-19" d="M438.81,600.8a21,21,0,1,1,21,21,21.07,21.07,0,0,1-21-21" transform="translate(-20.07 -15.99)"/><path class="cls-20" d="M438.81,600.8a21,21,0,1,1,21,21,21.07,21.07,0,0,1-21-21" transform="translate(-20.07 -15.99)"/><path class="cls-21" d="M578.13,546.68a55.38,55.38,0,1,1,55.38,55.38,55.54,55.54,0,0,1-55.38-55.38" transform="translate(-20.07 -15.99)"/><path class="cls-22" d="M578.13,546.68a55.38,55.38,0,1,1,55.38,55.38,55.54,55.54,0,0,1-55.38-55.38" transform="translate(-20.07 -15.99)"/><path class="cls-23" d="M258,731.57a11.78,11.78,0,1,1,11.77,11.78A11.8,11.8,0,0,1,258,731.57" transform="translate(-20.07 -15.99)"/><path class="cls-24" d="M258,731.57a11.78,11.78,0,1,1,11.77,11.78A11.8,11.8,0,0,1,258,731.57" transform="translate(-20.07 -15.99)"/><path class="cls-25" d="M539.14,621.88a34.66,34.66,0,1,1,34.66,34.66,34.75,34.75,0,0,1-34.66-34.66" transform="translate(-20.07 -15.99)"/><path class="cls-26" d="M539.14,621.88a34.66,34.66,0,1,1,34.66,34.66,34.75,34.75,0,0,1-34.66-34.66" transform="translate(-20.07 -15.99)"/><path class="cls-27" d="M539.73,617.79a38.84,38.84,0,1,1,38.83,38.84,38.95,38.95,0,0,1-38.83-38.84" transform="translate(-20.07 -15.99)"/><path class="cls-28" d="M539.73,617.79a38.84,38.84,0,1,1,38.83,38.84,38.95,38.95,0,0,1-38.83-38.84" transform="translate(-20.07 -15.99)"/><path class="cls-29" d="M476.12,772a27.35,27.35,0,1,1,27.35,27.34A27.43,27.43,0,0,1,476.12,772" transform="translate(-20.07 -15.99)"/><path class="cls-30" d="M476.12,772a27.35,27.35,0,1,1,27.35,27.34A27.43,27.43,0,0,1,476.12,772" transform="translate(-20.07 -15.99)"/><path class="cls-31" d="M306.25,622.37a13.55,13.55,0,1,1,13.55,13.55,13.58,13.58,0,0,1-13.55-13.55" transform="translate(-20.07 -15.99)"/><path class="cls-32" d="M306.25,622.37a13.55,13.55,0,1,1,13.55,13.55,13.58,13.58,0,0,1-13.55-13.55" transform="translate(-20.07 -15.99)"/><path class="cls-33" d="M338.43,558.27a14.3,14.3,0,1,1,14.3,14.29,14.34,14.34,0,0,1-14.3-14.29" transform="translate(-20.07 -15.99)"/><path class="cls-34" d="M338.43,558.27a14.3,14.3,0,1,1,14.3,14.29,14.34,14.34,0,0,1-14.3-14.29" transform="translate(-20.07 -15.99)"/><path class="cls-35" d="M301.2,657.2a13.55,13.55,0,1,1,13.54,13.55A13.58,13.58,0,0,1,301.2,657.2" transform="translate(-20.07 -15.99)"/><path class="cls-36" d="M301.2,657.2a13.55,13.55,0,1,1,13.54,13.55A13.58,13.58,0,0,1,301.2,657.2" transform="translate(-20.07 -15.99)"/><line class="cls-37" x1="654.13" y1="523.83" x2="667.43" y2="519.77"/><line class="cls-37" x1="470.78" y1="569.3" x2="516.15" y2="561.86"/><line class="cls-37" x1="298.31" y1="705.14" x2="315.73" y2="698.78"/><line class="cls-37" x1="540.49" y1="554.19" x2="566.33" y2="545.4"/><line class="cls-37" x1="287.66" y1="641.55" x2="306.72" y2="638.6"/><line class="cls-37" x1="413.93" y1="591.4" x2="437.68" y2="584.57"/><line class="cls-37" x1="591.66" y1="538.88" x2="613.16" y2="531.15"/><line class="cls-37" x1="238.05" y1="721.83" x2="247.24" y2="716.68"/><line class="cls-37" x1="524" y1="618.96" x2="552.79" y2="607.42"/><line class="cls-37" x1="546.51" y1="604.21" x2="557.42" y2="601.58"/><line class="cls-37" x1="454.57" y1="762.74" x2="480.78" y2="755.78"/><line class="cls-37" x1="319.91" y1="547.09" x2="330.43" y2="541.68"/><line class="cls-37" x1="272.98" y1="655.57" x2="295.18" y2="642.02"/><text class="cls-38" transform="translate(579.58 528.67)">Honor of Kings</text><text class="cls-38" transform="translate(343.02 573.48)">Mobile League of legends</text><text class="cls-38" transform="translate(226.83 710.18)">Onimoji Arena</text><text class="cls-38" transform="translate(458.6 558.92)">Genshin_Impact</text><text class="cls-38" transform="translate(200.27 645.63)">Honkai_Impact_3</text><text class="cls-38" transform="translate(329.62 596.04)">Mobile_Crossfire</text><text class="cls-38" transform="translate(520.18 543.76)">Mobile_PUBG</text><text class="cls-38" transform="translate(183.39 727.94)">Ace_<tspan class="cls-39" x="25.07" y="0">F</tspan><tspan x="31.47" y="0">orce</tspan></text><text class="cls-38" transform="translate(454.28 623.71)">Clash_R<tspan class="cls-40" x="42.18" y="0">o</tspan><tspan class="cls-41" x="47.97" y="0">y</tspan><tspan x="53.25" y="0">ale</tspan></text><text class="cls-38" transform="translate(467.07 608.49)">Clash_of_Clans</text><text class="cls-38" transform="translate(365.28 767.28)">Carrot_<tspan class="cls-42" x="36.68" y="0">F</tspan><tspan x="42.86" y="0">antasy_3</tspan></text><text class="cls-38" transform="translate(254.83 618.79)">On<tspan class="cls-43" x="14.67" y="0">m</tspan><tspan class="cls-41" x="23.67" y="0">y</tspan><tspan x="28.95" y="0">oji</tspan></text><text class="cls-38" transform="translate(179.72 552.97)"><tspan class="cls-42">F</tspan><tspan x="6.18" y="0">antasy_</tspan><tspan class="cls-39" x="44.71" y="0">W</tspan><tspan x="54.77" y="0">est</tspan><tspan class="cls-43" x="69.44" y="0">w</tspan><tspan x="77.22" y="0">ard_Jou</tspan><tspan class="cls-44" x="116.97" y="0">r</tspan><tspan x="120.9" y="0">n</tspan><tspan class="cls-45" x="127.02" y="0">e</tspan><tspan x="132.92" y="0">y</tspan></text><text class="cls-38" transform="translate(210.82 660.66)">Hea<tspan class="cls-46" x="20.18" y="0">r</tspan><tspan x="24.27" y="0">thstone</tspan></text></g><text class="cls-47" transform="translate(54.24 815.43)"><tspan xml:space="preserve">   0.01</tspan></text><text class="cls-47" transform="translate(54.24 749.04)"><tspan xml:space="preserve">   0.10</tspan></text><text class="cls-47" transform="translate(54.24 682.66)"><tspan xml:space="preserve">   1.00</tspan></text><text class="cls-47" transform="translate(50.9 616.27)"><tspan xml:space="preserve">  10.00</tspan></text><text class="cls-47" transform="translate(47.56 549.88)"><tspan xml:space="preserve"> 100.00</tspan></text><text class="cls-47" transform="translate(44.23 483.5)">1000.00</text><line class="cls-48" x1="89.79" y1="811.12" x2="92.53" y2="811.12"/><line class="cls-48" x1="89.79" y1="744.73" x2="92.53" y2="744.73"/><line class="cls-48" x1="89.79" y1="678.35" x2="92.53" y2="678.35"/><line class="cls-48" x1="89.79" y1="611.96" x2="92.53" y2="611.96"/><line class="cls-48" x1="89.79" y1="545.58" x2="92.53" y2="545.58"/><line class="cls-48" x1="89.79" y1="479.19" x2="92.53" y2="479.19"/><line class="cls-48" x1="124.32" y1="831.46" x2="124.32" y2="828.72"/><line class="cls-48" x1="316.96" y1="831.46" x2="316.96" y2="828.72"/><line class="cls-48" x1="509.59" y1="831.46" x2="509.59" y2="828.72"/><line class="cls-48" x1="702.23" y1="831.46" x2="702.23" y2="828.72"/><text class="cls-47" transform="translate(112.65 842.26)">0.01</text><text class="cls-47" transform="translate(305.28 842.26)">0.10</text><text class="cls-47" transform="translate(497.91 842.26)">1.00</text><text class="cls-47" transform="translate(687.21 842.26)">10.00</text><text class="cls-49" transform="translate(343.7 859.13)">Monthly d<tspan class="cls-50" x="69.37" y="0">o</tspan><tspan x="78.03" y="0">wnloads (million)</tspan></text><text class="cls-49" transform="translate(37.97 747.18) rotate(-90)">Monthly income (million dollars)</text><rect class="cls-3" x="802.97" y="494.94" width="76.55" height="117.46"/><text class="cls-51" transform="translate(808.45 512.01)">Catego<tspan class="cls-52" x="45.14" y="0">r</tspan><tspan x="50.21" y="0">y</tspan></text><rect class="cls-53" x="808.45" y="520.52" width="17.28" height="17.28"/><path class="cls-54" d="M835.2,545.15a2,2,0,1,1,2,2,2,2,0,0,1-2-2" transform="translate(-20.07 -15.99)"/><path class="cls-55" d="M835.2,545.15a2,2,0,1,1,2,2,2,2,0,0,1-2-2" transform="translate(-20.07 -15.99)"/><rect class="cls-53" x="808.45" y="537.8" width="17.28" height="17.28"/><path class="cls-56" d="M835.2,562.43a2,2,0,1,1,2,2,2,2,0,0,1-2-2" transform="translate(-20.07 -15.99)"/><path class="cls-57" d="M835.2,562.43a2,2,0,1,1,2,2,2,2,0,0,1-2-2" transform="translate(-20.07 -15.99)"/><rect class="cls-53" x="808.45" y="555.08" width="17.28" height="17.28"/><path class="cls-58" d="M835.2,579.71a2,2,0,1,1,2,2,2,2,0,0,1-2-2" transform="translate(-20.07 -15.99)"/><path class="cls-59" d="M835.2,579.71a2,2,0,1,1,2,2,2,2,0,0,1-2-2" transform="translate(-20.07 -15.99)"/><rect class="cls-53" x="808.45" y="572.36" width="17.28" height="17.28"/><path class="cls-60" d="M835.2,597a2,2,0,1,1,2,2,2,2,0,0,1-2-2" transform="translate(-20.07 -15.99)"/><path class="cls-61" d="M835.2,597a2,2,0,1,1,2,2,2,2,0,0,1-2-2" transform="translate(-20.07 -15.99)"/><rect class="cls-53" x="808.45" y="589.64" width="17.28" height="17.28"/><path class="cls-62" d="M835.2,614.27a2,2,0,1,1,2,2,2,2,0,0,1-2-2" transform="translate(-20.07 -15.99)"/><path class="cls-63" d="M835.2,614.27a2,2,0,1,1,2,2,2,2,0,0,1-2-2" transform="translate(-20.07 -15.99)"/><text class="cls-64" transform="translate(832.7 533.47)">MOBA</text><text class="cls-64" transform="translate(832.7 550.75)">RPG</text><text class="cls-64" transform="translate(832.7 568.03)">FPS</text><text class="cls-64" transform="translate(832.7 585.31)"><tspan class="cls-65">R</tspan><tspan x="8.31" y="0">TS</tspan></text><text class="cls-64" transform="translate(832.7 602.59)">TBRGB</text><rect class="cls-3" x="802.97" y="623.37" width="51.89" height="152.02"/><text class="cls-51" transform="translate(808.45 640.43)">TIGZ</text><rect class="cls-53" x="808.45" y="648.95" width="17.28" height="17.28"/><path class="cls-66" d="M835.2,673.58a2,2,0,1,1,2,1.95,2,2,0,0,1-2-1.95" transform="translate(-20.07 -15.99)"/><path class="cls-67" d="M835.2,673.58a2,2,0,1,1,2,1.95,2,2,0,0,1-2-1.95" transform="translate(-20.07 -15.99)"/><rect class="cls-53" x="808.45" y="666.23" width="17.28" height="17.28"/><path class="cls-68" d="M835.2,690.86a2,2,0,1,1,2,1.95,2,2,0,0,1-2-1.95" transform="translate(-20.07 -15.99)"/><path class="cls-69" d="M835.2,690.86a2,2,0,1,1,2,1.95,2,2,0,0,1-2-1.95" transform="translate(-20.07 -15.99)"/><rect class="cls-53" x="808.45" y="683.51" width="17.28" height="17.28"/><path class="cls-70" d="M835.2,708.14a2,2,0,1,1,2,2,2,2,0,0,1-2-2" transform="translate(-20.07 -15.99)"/><path class="cls-71" d="M835.2,708.14a2,2,0,1,1,2,2,2,2,0,0,1-2-2" transform="translate(-20.07 -15.99)"/><rect class="cls-53" x="808.45" y="700.79" width="17.28" height="17.28"/><path class="cls-72" d="M835.2,725.42a2,2,0,1,1,2,2,2,2,0,0,1-2-2" transform="translate(-20.07 -15.99)"/><path class="cls-73" d="M835.2,725.42a2,2,0,1,1,2,2,2,2,0,0,1-2-2" transform="translate(-20.07 -15.99)"/><rect class="cls-53" x="808.45" y="718.07" width="17.28" height="17.28"/><path class="cls-74" d="M835.2,742.7a2,2,0,1,1,2,1.95,2,2,0,0,1-2-1.95" transform="translate(-20.07 -15.99)"/><path class="cls-75" d="M835.2,742.7a2,2,0,1,1,2,1.95,2,2,0,0,1-2-1.95" transform="translate(-20.07 -15.99)"/><rect class="cls-53" x="808.45" y="735.35" width="17.28" height="17.28"/><path class="cls-76" d="M835.2,760a2,2,0,1,1,2,1.95,2,2,0,0,1-2-1.95" transform="translate(-20.07 -15.99)"/><path class="cls-77" d="M835.2,760a2,2,0,1,1,2,1.95,2,2,0,0,1-2-1.95" transform="translate(-20.07 -15.99)"/><rect class="cls-53" x="808.45" y="752.63" width="17.28" height="17.28"/><path d="M835.2,777.26a2,2,0,1,1,2,2,2,2,0,0,1-2-2" transform="translate(-20.07 -15.99)"/><path class="cls-78" d="M835.2,777.26a2,2,0,1,1,2,2,2,2,0,0,1-2-2" transform="translate(-20.07 -15.99)"/><text class="cls-64" transform="translate(832.7 661.9)">0.4</text><text class="cls-64" transform="translate(832.7 679.18)">0.5</text><text class="cls-64" transform="translate(832.7 696.46)">0.6</text><text class="cls-64" transform="translate(832.7 713.74)">0.7</text><text class="cls-64" transform="translate(832.7 731.02)">0.8</text><text class="cls-64" transform="translate(832.7 748.3)">0.9</text><text class="cls-64" transform="translate(832.7 765.58)">1.0</text></g><g class="cls-79"><rect class="cls-3" x="885" y="436.13" width="576" height="432"/><rect class="cls-4" x="885" y="436.13" width="576" height="432"/><g class="cls-80"><rect class="cls-6" x="919.31" y="441.61" width="439.79" height="388.02"/><line class="cls-7" x1="919.31" y1="760.42" x2="1359.1" y2="760.42"/><line class="cls-7" x1="919.31" y1="657.28" x2="1359.1" y2="657.28"/><line class="cls-7" x1="919.31" y1="554.14" x2="1359.1" y2="554.14"/><line class="cls-7" x1="919.31" y1="451" x2="1359.1" y2="451"/><line class="cls-8" x1="919.31" y1="811.99" x2="1359.1" y2="811.99"/><line class="cls-8" x1="919.31" y1="708.85" x2="1359.1" y2="708.85"/><line class="cls-8" x1="919.31" y1="605.71" x2="1359.1" y2="605.71"/><line class="cls-8" x1="919.31" y1="502.57" x2="1359.1" y2="502.57"/><line class="cls-8" x1="970.06" y1="829.63" x2="970.06" y2="441.61"/><line class="cls-8" x1="1054.63" y1="829.63" x2="1054.63" y2="441.61"/><line class="cls-8" x1="1139.2" y1="829.63" x2="1139.2" y2="441.61"/><line class="cls-8" x1="1223.78" y1="829.63" x2="1223.78" y2="441.61"/><line class="cls-8" x1="1308.35" y1="829.63" x2="1308.35" y2="441.61"/><rect class="cls-81" x="932" y="524.23" width="76.12" height="287.76"/><rect class="cls-81" x="932" y="465.44" width="76.12" height="58.79"/><rect class="cls-62" x="932" y="459.24" width="76.12" height="6.19"/><rect class="cls-60" x="1016.57" y="679.97" width="76.12" height="132.02"/><rect class="cls-60" x="1016.57" y="676.88" width="76.12" height="3.09"/><path class="cls-56" d="M1036.64,692.86h0Z" transform="translate(-20.07 -15.99)"/><rect class="cls-81" x="1101.15" y="792.39" width="76.12" height="19.6"/><rect class="cls-81" x="1101.15" y="586.11" width="76.12" height="206.28"/><rect class="cls-81" x="1101.15" y="583.02" width="76.12" height="3.09"/><rect class="cls-82" x="1185.72" y="741.85" width="76.12" height="70.14"/><rect class="cls-82" x="1185.72" y="650.05" width="76.12" height="91.8"/><rect class="cls-58" x="1185.72" y="610.87" width="76.12" height="39.19"/><rect class="cls-62" x="1270.3" y="806.83" width="76.12" height="5.16"/><rect class="cls-62" x="1270.3" y="800.64" width="76.12" height="6.19"/><rect class="cls-54" x="1270.3" y="795.48" width="76.12" height="5.16"/></g><text class="cls-47" transform="translate(907.71 816.3)">0</text><text class="cls-47" transform="translate(907.71 713.16)">1</text><text class="cls-47" transform="translate(907.71 610.01)">2</text><text class="cls-47" transform="translate(907.71 506.87)">3</text><line class="cls-48" x1="916.57" y1="811.99" x2="919.31" y2="811.99"/><line class="cls-48" x1="916.57" y1="708.85" x2="919.31" y2="708.85"/><line class="cls-48" x1="916.57" y1="605.71" x2="919.31" y2="605.71"/><line class="cls-48" x1="916.57" y1="502.57" x2="919.31" y2="502.57"/><line class="cls-48" x1="970.06" y1="832.37" x2="970.06" y2="829.63"/><line class="cls-48" x1="1054.63" y1="832.37" x2="1054.63" y2="829.63"/><line class="cls-48" x1="1139.2" y1="832.37" x2="1139.2" y2="829.63"/><line class="cls-48" x1="1223.78" y1="832.37" x2="1223.78" y2="829.63"/><line class="cls-48" x1="1308.35" y1="832.37" x2="1308.35" y2="829.63"/><text class="cls-47" transform="translate(952.39 843.17)">MOBA</text><text class="cls-47" transform="translate(1041.63 843.17)">RPG</text><text class="cls-47" transform="translate(1127.53 843.17)">FPS</text><text class="cls-47" transform="translate(1211.96 843.17)"><tspan class="cls-83">R</tspan><tspan x="8.31" y="0">TS</tspan></text><text class="cls-47" transform="translate(1287.68 843.17)">TBRGB</text><text class="cls-49" transform="translate(1106.51 859.65)">Catego<tspan class="cls-84" x="51.59" y="0">r</tspan><tspan x="57.39" y="0">y</tspan></text><text class="cls-49" transform="translate(901.97 705.34) rotate(-90)">Gene<tspan class="cls-85" x="39.14" y="0">r</tspan><tspan x="44.31" y="0">ation Z Users</tspan></text><rect class="cls-3" x="1370.06" y="559.05" width="85.46" height="153.14"/><text class="cls-51" transform="translate(1375.54 576.68)">Ope<tspan class="cls-85" x="26.46" y="0">r</tspan><tspan x="30.98" y="0">ator</tspan></text><rect class="cls-53" x="1375.54" y="585.75" width="17.28" height="17.28"/><rect class="cls-54" x="1376.25" y="586.46" width="15.86" height="15.86"/><rect class="cls-53" x="1375.54" y="603.03" width="17.28" height="17.28"/><rect class="cls-56" x="1376.25" y="603.74" width="15.86" height="15.86"/><rect class="cls-53" x="1375.54" y="620.31" width="17.28" height="17.28"/><rect class="cls-58" x="1376.25" y="621.02" width="15.86" height="15.86"/><rect class="cls-53" x="1375.54" y="637.59" width="17.28" height="17.28"/><rect class="cls-60" x="1376.25" y="638.3" width="15.86" height="15.86"/><rect class="cls-53" x="1375.54" y="654.87" width="17.28" height="17.28"/><rect class="cls-62" x="1376.25" y="655.58" width="15.86" height="15.86"/><rect class="cls-53" x="1375.54" y="672.15" width="17.28" height="17.28"/><rect class="cls-82" x="1376.25" y="672.86" width="15.86" height="15.86"/><rect class="cls-53" x="1375.54" y="689.43" width="17.28" height="17.28"/><rect class="cls-81" x="1376.25" y="690.14" width="15.86" height="15.86"/><text class="cls-64" transform="translate(1399.79 598.7)">Blizard</text><text class="cls-64" transform="translate(1399.79 615.98)">Cygames</text><text class="cls-64" transform="translate(1399.79 633.26)"><tspan class="cls-86">F</tspan><tspan x="6.98" y="0">eiyu</tspan></text><text class="cls-64" transform="translate(1399.79 650.54)">MiHo<tspan class="cls-87" x="28" y="0">Y</tspan><tspan x="34.34" y="0">o</tspan></text><text class="cls-64" transform="translate(1399.79 667.82)">NetEase</text><text class="cls-64" transform="translate(1399.79 685.1)">Supercell</text><text class="cls-64" transform="translate(1399.79 702.38)"><tspan class="cls-88">T</tspan><tspan x="5.9" y="0">encent</tspan></text></g><g class="cls-89"><rect class="cls-3" x="21" y="43.13" width="1440" height="360"/><rect class="cls-3" x="21" y="43.13" width="1440" height="360"/><rect class="cls-4" x="21" y="43.13" width="1440" height="360"/><g class="cls-90"><line class="cls-7" x1="72.51" y1="309.73" x2="305.3" y2="309.73"/><line class="cls-7" x1="72.51" y1="228.24" x2="305.3" y2="228.24"/><line class="cls-7" x1="72.51" y1="146.75" x2="305.3" y2="146.75"/><line class="cls-7" x1="118.36" y1="363.72" x2="118.36" y2="72.38"/><line class="cls-7" x1="196.74" y1="363.72" x2="196.74" y2="72.38"/><line class="cls-7" x1="275.12" y1="363.72" x2="275.12" y2="72.38"/><line class="cls-8" x1="72.51" y1="350.47" x2="305.3" y2="350.47"/><line class="cls-8" x1="72.51" y1="268.98" x2="305.3" y2="268.98"/><line class="cls-8" x1="72.51" y1="187.49" x2="305.3" y2="187.49"/><line class="cls-8" x1="72.51" y1="106" x2="305.3" y2="106"/><line class="cls-8" x1="79.17" y1="363.72" x2="79.17" y2="72.38"/><line class="cls-8" x1="157.55" y1="363.72" x2="157.55" y2="72.38"/><line class="cls-8" x1="235.93" y1="363.72" x2="235.93" y2="72.38"/><polyline class="cls-91" points="83.09 350.47 87.01 350.47 90.93 350.47 94.85 350.47 98.77 350.47 102.69 349.88 106.61 346.74 110.53 342.12 114.44 335.6 118.36 326.79 122.28 315.44 126.2 301.49 130.12 285.19 134.04 267.11 137.96 248.21 141.88 229.69 145.8 212.88 149.72 199.04 153.63 189.09 157.55 183.47 161.47 182 165.39 183.95 169.31 188.17 173.23 193.33 177.15 198.26 181.07 202.17 184.99 204.79 188.91 206.46 192.82 207.9 196.74 210.01 200.66 213.59 204.58 219.11 208.5 226.57 212.42 235.53 216.34 245.23 220.26 254.82 224.18 263.59 228.1 271.11 232.01 277.32 235.93 282.49 239.85 287.1 243.77 291.68 247.69 296.68 251.61 302.31 255.53 308.57 259.45 315.25 263.37 321.98 267.29 328.35 271.2 334.01 275.12 338.68 279.04 342.21 282.96 344.6 286.88 345.94 290.8 346.4 294.72 346.2"/><polyline class="cls-92" points="83.09 350.47 87.01 350.47 90.93 350.47 94.85 350.47 98.77 350.47 102.69 348.54 106.61 344.54 110.53 338.64 114.44 330.27 118.36 318.93 122.28 304.25 126.2 286.12 130.12 264.82 134.04 241.12 137.96 216.25 141.88 191.87 145.8 169.84 149.72 151.99 153.63 139.82 157.55 134.21 161.47 135.28 165.39 142.32 169.31 154 173.23 168.56 177.15 184.18 181.07 199.34 184.99 212.98 188.91 224.67 192.82 234.5 196.74 242.93 200.66 250.56 204.58 257.88 208.5 265.18 212.42 272.43 216.34 279.41 220.26 285.79 224.18 291.29 228.1 295.79 232.01 299.38 235.93 302.36 239.85 305.1 243.77 308 247.69 311.39 251.61 315.39 255.53 319.97 259.45 324.93 263.37 329.97 267.29 334.78 271.2 339.07 275.12 342.62 279.04 345.32 282.96 347.17 286.88 348.22 290.8 348.62 294.72 348.51"/><polyline class="cls-93" points="83.09 350.47 87.01 350.47 90.93 350.47 94.85 350.47 98.77 350.47 102.69 348.4 106.61 344.29 110.53 338.19 114.44 329.5 118.36 317.65 122.28 302.21 126.2 283.02 130.12 260.33 134.04 234.89 137.96 207.97 141.88 181.34 145.8 157.02 149.72 137.04 153.63 123.13 157.55 116.4 161.47 117.1 165.39 124.62 169.31 137.61 173.23 154.19 177.15 172.37 181.07 190.38 184.99 206.95 188.91 221.42 192.82 233.75 196.74 244.33 200.66 253.73 204.58 262.51 208.5 271.03 212.42 279.39 216.34 287.46 220.26 294.95 224.18 301.61 228.1 307.26 232.01 311.9 235.93 315.7 239.85 318.92 243.77 321.88 247.69 324.85 251.61 327.99 255.53 331.32 259.45 334.79 263.37 338.23 267.29 341.46 271.2 344.31 275.12 346.65 279.04 348.42 282.96 349.6 286.88 350.25 290.8 350.45 294.72 350.33"/><polygon class="cls-94" points="83.09 350.47 87.01 350.47 90.93 350.47 94.85 350.47 98.77 350.47 102.69 349.88 106.61 346.74 110.53 342.12 114.44 335.6 118.36 326.79 122.28 315.44 126.2 301.49 130.12 285.19 134.04 267.11 137.96 248.21 141.88 229.69 145.8 212.88 149.72 199.04 153.63 189.09 157.55 183.47 161.47 182 165.39 183.95 169.31 188.17 173.23 193.33 177.15 198.26 181.07 202.17 184.99 204.79 188.91 206.46 192.82 207.9 196.74 210.01 200.66 213.59 204.58 219.11 208.5 226.57 212.42 235.53 216.34 245.23 220.26 254.82 224.18 263.59 228.1 271.11 232.01 277.32 235.93 282.49 239.85 287.1 243.77 291.68 247.69 296.68 251.61 302.31 255.53 308.57 259.45 315.25 263.37 321.98 267.29 328.35 271.2 334.01 275.12 338.68 279.04 342.21 282.96 344.6 286.88 345.94 290.8 346.4 294.72 346.2 294.72 350.47 290.8 350.47 286.88 350.47 282.96 350.47 279.04 350.47 275.12 350.47 271.2 350.47 267.29 350.47 263.37 350.47 259.45 350.47 255.53 350.47 251.61 350.47 247.69 350.47 243.77 350.47 239.85 350.47 235.93 350.47 232.01 350.47 228.1 350.47 224.18 350.47 220.26 350.47 216.34 350.47 212.42 350.47 208.5 350.47 204.58 350.47 200.66 350.47 196.74 350.47 192.82 350.47 188.91 350.47 184.99 350.47 181.07 350.47 177.15 350.47 173.23 350.47 169.31 350.47 165.39 350.47 161.47 350.47 157.55 350.47 153.63 350.47 149.72 350.47 145.8 350.47 141.88 350.47 137.96 350.47 134.04 350.47 130.12 350.47 126.2 350.47 122.28 350.47 118.36 350.47 114.44 350.47 110.53 350.47 106.61 350.47 102.69 350.47 98.77 350.47 94.85 350.47 90.93 350.47 87.01 350.47 83.09 350.47"/><polyline class="cls-95" points="83.09 350.47 87.01 350.47 90.93 350.47 94.85 350.47 98.77 350.47 102.69 349.88 106.61 346.74 110.53 342.12 114.44 335.6 118.36 326.79 122.28 315.44 126.2 301.49 130.12 285.19 134.04 267.11 137.96 248.21 141.88 229.69 145.8 212.88 149.72 199.04 153.63 189.09 157.55 183.47 161.47 182 165.39 183.95 169.31 188.17 173.23 193.33 177.15 198.26 181.07 202.17 184.99 204.79 188.91 206.46 192.82 207.9 196.74 210.01 200.66 213.59 204.58 219.11 208.5 226.57 212.42 235.53 216.34 245.23 220.26 254.82 224.18 263.59 228.1 271.11 232.01 277.32 235.93 282.49 239.85 287.1 243.77 291.68 247.69 296.68 251.61 302.31 255.53 308.57 259.45 315.25 263.37 321.98 267.29 328.35 271.2 334.01 275.12 338.68 279.04 342.21 282.96 344.6 286.88 345.94 290.8 346.4 294.72 346.2"/><polygon class="cls-96" points="83.09 350.47 87.01 350.47 90.93 350.47 94.85 350.47 98.77 350.47 102.69 348.54 106.61 344.54 110.53 338.64 114.44 330.27 118.36 318.93 122.28 304.25 126.2 286.12 130.12 264.82 134.04 241.12 137.96 216.25 141.88 191.87 145.8 169.84 149.72 151.99 153.63 139.82 157.55 134.21 161.47 135.28 165.39 142.32 169.31 154 173.23 168.56 177.15 184.18 181.07 199.34 184.99 212.98 188.91 224.67 192.82 234.5 196.74 242.93 200.66 250.56 204.58 257.88 208.5 265.18 212.42 272.43 216.34 279.41 220.26 285.79 224.18 291.29 228.1 295.79 232.01 299.38 235.93 302.36 239.85 305.1 243.77 308 247.69 311.39 251.61 315.39 255.53 319.97 259.45 324.93 263.37 329.97 267.29 334.78 271.2 339.07 275.12 342.62 279.04 345.32 282.96 347.17 286.88 348.22 290.8 348.62 294.72 348.51 294.72 350.47 290.8 350.47 286.88 350.47 282.96 350.47 279.04 350.47 275.12 350.47 271.2 350.47 267.29 350.47 263.37 350.47 259.45 350.47 255.53 350.47 251.61 350.47 247.69 350.47 243.77 350.47 239.85 350.47 235.93 350.47 232.01 350.47 228.1 350.47 224.18 350.47 220.26 350.47 216.34 350.47 212.42 350.47 208.5 350.47 204.58 350.47 200.66 350.47 196.74 350.47 192.82 350.47 188.91 350.47 184.99 350.47 181.07 350.47 177.15 350.47 173.23 350.47 169.31 350.47 165.39 350.47 161.47 350.47 157.55 350.47 153.63 350.47 149.72 350.47 145.8 350.47 141.88 350.47 137.96 350.47 134.04 350.47 130.12 350.47 126.2 350.47 122.28 350.47 118.36 350.47 114.44 350.47 110.53 350.47 106.61 350.47 102.69 350.47 98.77 350.47 94.85 350.47 90.93 350.47 87.01 350.47 83.09 350.47"/><polyline class="cls-97" points="83.09 350.47 87.01 350.47 90.93 350.47 94.85 350.47 98.77 350.47 102.69 348.54 106.61 344.54 110.53 338.64 114.44 330.27 118.36 318.93 122.28 304.25 126.2 286.12 130.12 264.82 134.04 241.12 137.96 216.25 141.88 191.87 145.8 169.84 149.72 151.99 153.63 139.82 157.55 134.21 161.47 135.28 165.39 142.32 169.31 154 173.23 168.56 177.15 184.18 181.07 199.34 184.99 212.98 188.91 224.67 192.82 234.5 196.74 242.93 200.66 250.56 204.58 257.88 208.5 265.18 212.42 272.43 216.34 279.41 220.26 285.79 224.18 291.29 228.1 295.79 232.01 299.38 235.93 302.36 239.85 305.1 243.77 308 247.69 311.39 251.61 315.39 255.53 319.97 259.45 324.93 263.37 329.97 267.29 334.78 271.2 339.07 275.12 342.62 279.04 345.32 282.96 347.17 286.88 348.22 290.8 348.62 294.72 348.51"/><polygon class="cls-98" points="83.09 350.47 87.01 350.47 90.93 350.47 94.85 350.47 98.77 350.47 102.69 348.4 106.61 344.29 110.53 338.19 114.44 329.5 118.36 317.65 122.28 302.21 126.2 283.02 130.12 260.33 134.04 234.89 137.96 207.97 141.88 181.34 145.8 157.02 149.72 137.04 153.63 123.13 157.55 116.4 161.47 117.1 165.39 124.62 169.31 137.61 173.23 154.19 177.15 172.37 181.07 190.38 184.99 206.95 188.91 221.42 192.82 233.75 196.74 244.33 200.66 253.73 204.58 262.51 208.5 271.03 212.42 279.39 216.34 287.46 220.26 294.95 224.18 301.61 228.1 307.26 232.01 311.9 235.93 315.7 239.85 318.92 243.77 321.88 247.69 324.85 251.61 327.99 255.53 331.32 259.45 334.79 263.37 338.23 267.29 341.46 271.2 344.31 275.12 346.65 279.04 348.42 282.96 349.6 286.88 350.25 290.8 350.45 294.72 350.33 294.72 350.47 290.8 350.47 286.88 350.47 282.96 350.47 279.04 350.47 275.12 350.47 271.2 350.47 267.29 350.47 263.37 350.47 259.45 350.47 255.53 350.47 251.61 350.47 247.69 350.47 243.77 350.47 239.85 350.47 235.93 350.47 232.01 350.47 228.1 350.47 224.18 350.47 220.26 350.47 216.34 350.47 212.42 350.47 208.5 350.47 204.58 350.47 200.66 350.47 196.74 350.47 192.82 350.47 188.91 350.47 184.99 350.47 181.07 350.47 177.15 350.47 173.23 350.47 169.31 350.47 165.39 350.47 161.47 350.47 157.55 350.47 153.63 350.47 149.72 350.47 145.8 350.47 141.88 350.47 137.96 350.47 134.04 350.47 130.12 350.47 126.2 350.47 122.28 350.47 118.36 350.47 114.44 350.47 110.53 350.47 106.61 350.47 102.69 350.47 98.77 350.47 94.85 350.47 90.93 350.47 87.01 350.47 83.09 350.47"/><polyline class="cls-99" points="83.09 350.47 87.01 350.47 90.93 350.47 94.85 350.47 98.77 350.47 102.69 348.4 106.61 344.29 110.53 338.19 114.44 329.5 118.36 317.65 122.28 302.21 126.2 283.02 130.12 260.33 134.04 234.89 137.96 207.97 141.88 181.34 145.8 157.02 149.72 137.04 153.63 123.13 157.55 116.4 161.47 117.1 165.39 124.62 169.31 137.61 173.23 154.19 177.15 172.37 181.07 190.38 184.99 206.95 188.91 221.42 192.82 233.75 196.74 244.33 200.66 253.73 204.58 262.51 208.5 271.03 212.42 279.39 216.34 287.46 220.26 294.95 224.18 301.61 228.1 307.26 232.01 311.9 235.93 315.7 239.85 318.92 243.77 321.88 247.69 324.85 251.61 327.99 255.53 331.32 259.45 334.79 263.37 338.23 267.29 341.46 271.2 344.31 275.12 346.65 279.04 348.42 282.96 349.6 286.88 350.25 290.8 350.45 294.72 350.33"/><rect class="cls-100" x="118.36" y="85.62" width="58.79" height="264.85"/></g><g class="cls-101"><line class="cls-7" x1="310.78" y1="309.73" x2="543.57" y2="309.73"/><line class="cls-7" x1="310.78" y1="228.24" x2="543.57" y2="228.24"/><line class="cls-7" x1="310.78" y1="146.75" x2="543.57" y2="146.75"/><line class="cls-7" x1="356.63" y1="363.72" x2="356.63" y2="72.38"/><line class="cls-7" x1="435.01" y1="363.72" x2="435.01" y2="72.38"/><line class="cls-7" x1="513.39" y1="363.72" x2="513.39" y2="72.38"/><line class="cls-8" x1="310.78" y1="350.47" x2="543.57" y2="350.47"/><line class="cls-8" x1="310.78" y1="268.98" x2="543.57" y2="268.98"/><line class="cls-8" x1="310.78" y1="187.49" x2="543.57" y2="187.49"/><line class="cls-8" x1="310.78" y1="106" x2="543.57" y2="106"/><line class="cls-8" x1="317.44" y1="363.72" x2="317.44" y2="72.38"/><line class="cls-8" x1="395.82" y1="363.72" x2="395.82" y2="72.38"/><line class="cls-8" x1="474.2" y1="363.72" x2="474.2" y2="72.38"/><polyline class="cls-102" points="321.36 350.47 325.28 350.47 329.2 350.47 333.12 350.47 337.04 350.47 340.96 350.47 344.88 348.17 348.79 343.82 352.71 337.26 356.63 327.78 360.55 314.69 364.47 297.45 368.39 275.82 372.31 250.08 376.23 221.1 380.15 190.46 384.07 160.32 387.98 133.16 391.9 111.49 395.82 97.36 399.74 92.06 403.66 95.79 407.58 107.71 411.5 126.07 415.42 148.57 419.34 172.8 423.26 196.65 427.17 218.59 431.09 237.74 435.01 253.88 438.93 267.21 442.85 278.15 446.77 287.16 450.69 294.59 454.61 300.66 458.53 305.51 462.45 309.23 466.36 311.98 470.28 314 474.2 315.62 478.12 317.18 482.04 319.01 485.96 321.35 489.88 324.28 493.8 327.75 497.72 331.59 501.64 335.58 505.56 339.45 509.47 342.99 513.39 346.06 517.31 348.57 521.23 350.47 525.15 350.47 529.07 350.47 532.99 350.47"/><polyline class="cls-103" points="321.36 350.47 325.28 350.47 329.2 350.47 333.12 350.47 337.04 350.47 340.96 350.47 344.88 350.47 348.79 348.03 352.71 344.43 356.63 339.52 360.55 333.12 364.47 325.17 368.39 315.73 372.31 305.07 376.23 293.64 380.15 282.01 384.07 270.82 387.98 260.6 391.9 251.69 395.82 244.08 399.74 237.44 403.66 231.11 407.58 224.31 411.5 216.32 415.42 206.76 419.34 195.77 423.26 184.09 427.17 172.96 431.09 163.92 435.01 158.45 438.93 157.66 442.85 161.98 446.77 171.08 450.69 183.94 454.61 199.09 458.53 214.92 462.45 230.03 466.36 243.48 470.28 254.87 474.2 264.34 478.12 272.39 482.04 279.68 485.96 286.8 489.88 294.14 493.8 301.82 497.72 309.69 501.64 317.43 505.56 324.61 509.47 330.87 513.39 335.9 517.31 339.54 521.23 341.79 525.15 342.75 529.07 342.63 532.99 341.72"/><polyline class="cls-104" points="321.36 350.47 325.28 350.47 329.2 350.47 333.12 350.47 337.04 350.47 340.96 349.71 344.88 346.48 348.79 341.75 352.71 335.12 356.63 326.27 360.55 314.96 364.47 301.21 368.39 285.32 372.31 267.95 376.23 250.04 380.15 232.81 384.07 217.52 387.98 205.28 391.9 196.88 395.82 192.57 399.74 192.03 403.66 194.43 407.58 198.55 411.5 203.12 415.42 207.03 419.34 209.63 423.26 210.82 427.17 211.03 431.09 211.08 435.01 211.95 438.93 214.42 442.85 218.96 446.77 225.5 450.69 233.57 454.61 242.37 458.53 251.05 462.45 258.88 466.36 265.5 470.28 270.9 474.2 275.43 478.12 279.62 482.04 284.07 485.96 289.22 489.88 295.29 493.8 302.2 497.72 309.66 501.64 317.22 505.56 324.39 509.47 330.71 513.39 335.85 517.31 339.65 521.23 342.06 525.15 343.2 529.07 343.28 532.99 342.56"/><polygon class="cls-105" points="321.36 350.47 325.28 350.47 329.2 350.47 333.12 350.47 337.04 350.47 340.96 350.47 344.88 348.17 348.79 343.82 352.71 337.26 356.63 327.78 360.55 314.69 364.47 297.45 368.39 275.82 372.31 250.08 376.23 221.1 380.15 190.46 384.07 160.32 387.98 133.16 391.9 111.49 395.82 97.36 399.74 92.06 403.66 95.79 407.58 107.71 411.5 126.07 415.42 148.57 419.34 172.8 423.26 196.65 427.17 218.59 431.09 237.74 435.01 253.88 438.93 267.21 442.85 278.15 446.77 287.16 450.69 294.59 454.61 300.66 458.53 305.51 462.45 309.23 466.36 311.98 470.28 314 474.2 315.62 478.12 317.18 482.04 319.01 485.96 321.35 489.88 324.28 493.8 327.75 497.72 331.59 501.64 335.58 505.56 339.45 509.47 342.99 513.39 346.06 517.31 348.57 521.23 350.47 525.15 350.47 529.07 350.47 532.99 350.47 529.07 350.47 525.15 350.47 521.23 350.47 517.31 350.47 513.39 350.47 509.47 350.47 505.56 350.47 501.64 350.47 497.72 350.47 493.8 350.47 489.88 350.47 485.96 350.47 482.04 350.47 478.12 350.47 474.2 350.47 470.28 350.47 466.36 350.47 462.45 350.47 458.53 350.47 454.61 350.47 450.69 350.47 446.77 350.47 442.85 350.47 438.93 350.47 435.01 350.47 431.09 350.47 427.17 350.47 423.26 350.47 419.34 350.47 415.42 350.47 411.5 350.47 407.58 350.47 403.66 350.47 399.74 350.47 395.82 350.47 391.9 350.47 387.98 350.47 384.07 350.47 380.15 350.47 376.23 350.47 372.31 350.47 368.39 350.47 364.47 350.47 360.55 350.47 356.63 350.47 352.71 350.47 348.79 350.47 344.88 350.47 340.96 350.47 337.04 350.47 333.12 350.47 329.2 350.47 325.28 350.47 321.36 350.47"/><polyline class="cls-106" points="321.36 350.47 325.28 350.47 329.2 350.47 333.12 350.47 337.04 350.47 340.96 350.47 344.88 348.17 348.79 343.82 352.71 337.26 356.63 327.78 360.55 314.69 364.47 297.45 368.39 275.82 372.31 250.08 376.23 221.1 380.15 190.46 384.07 160.32 387.98 133.16 391.9 111.49 395.82 97.36 399.74 92.06 403.66 95.79 407.58 107.71 411.5 126.07 415.42 148.57 419.34 172.8 423.26 196.65 427.17 218.59 431.09 237.74 435.01 253.88 438.93 267.21 442.85 278.15 446.77 287.16 450.69 294.59 454.61 300.66 458.53 305.51 462.45 309.23 466.36 311.98 470.28 314 474.2 315.62 478.12 317.18 482.04 319.01 485.96 321.35 489.88 324.28 493.8 327.75 497.72 331.59 501.64 335.58 505.56 339.45 509.47 342.99 513.39 346.06 517.31 348.57 521.23 350.47 525.15 350.47 529.07 350.47 532.99 350.47"/><polygon class="cls-107" points="321.36 350.47 325.28 350.47 329.2 350.47 333.12 350.47 337.04 350.47 340.96 350.47 344.88 350.47 348.79 348.03 352.71 344.43 356.63 339.52 360.55 333.12 364.47 325.17 368.39 315.73 372.31 305.07 376.23 293.64 380.15 282.01 384.07 270.82 387.98 260.6 391.9 251.69 395.82 244.08 399.74 237.44 403.66 231.11 407.58 224.31 411.5 216.32 415.42 206.76 419.34 195.77 423.26 184.09 427.17 172.96 431.09 163.92 435.01 158.45 438.93 157.66 442.85 161.98 446.77 171.08 450.69 183.94 454.61 199.09 458.53 214.92 462.45 230.03 466.36 243.48 470.28 254.87 474.2 264.34 478.12 272.39 482.04 279.68 485.96 286.8 489.88 294.14 493.8 301.82 497.72 309.69 501.64 317.43 505.56 324.61 509.47 330.87 513.39 335.9 517.31 339.54 521.23 341.79 525.15 342.75 529.07 342.63 532.99 341.72 532.99 350.47 529.07 350.47 525.15 350.47 521.23 350.47 517.31 350.47 513.39 350.47 509.47 350.47 505.56 350.47 501.64 350.47 497.72 350.47 493.8 350.47 489.88 350.47 485.96 350.47 482.04 350.47 478.12 350.47 474.2 350.47 470.28 350.47 466.36 350.47 462.45 350.47 458.53 350.47 454.61 350.47 450.69 350.47 446.77 350.47 442.85 350.47 438.93 350.47 435.01 350.47 431.09 350.47 427.17 350.47 423.26 350.47 419.34 350.47 415.42 350.47 411.5 350.47 407.58 350.47 403.66 350.47 399.74 350.47 395.82 350.47 391.9 350.47 387.98 350.47 384.07 350.47 380.15 350.47 376.23 350.47 372.31 350.47 368.39 350.47 364.47 350.47 360.55 350.47 356.63 350.47 352.71 350.47 348.79 350.47 344.88 350.47 340.96 350.47 337.04 350.47 333.12 350.47 329.2 350.47 325.28 350.47 321.36 350.47"/><polyline class="cls-108" points="321.36 350.47 325.28 350.47 329.2 350.47 333.12 350.47 337.04 350.47 340.96 350.47 344.88 350.47 348.79 348.03 352.71 344.43 356.63 339.52 360.55 333.12 364.47 325.17 368.39 315.73 372.31 305.07 376.23 293.64 380.15 282.01 384.07 270.82 387.98 260.6 391.9 251.69 395.82 244.08 399.74 237.44 403.66 231.11 407.58 224.31 411.5 216.32 415.42 206.76 419.34 195.77 423.26 184.09 427.17 172.96 431.09 163.92 435.01 158.45 438.93 157.66 442.85 161.98 446.77 171.08 450.69 183.94 454.61 199.09 458.53 214.92 462.45 230.03 466.36 243.48 470.28 254.87 474.2 264.34 478.12 272.39 482.04 279.68 485.96 286.8 489.88 294.14 493.8 301.82 497.72 309.69 501.64 317.43 505.56 324.61 509.47 330.87 513.39 335.9 517.31 339.54 521.23 341.79 525.15 342.75 529.07 342.63 532.99 341.72"/><polygon class="cls-109" points="321.36 350.47 325.28 350.47 329.2 350.47 333.12 350.47 337.04 350.47 340.96 349.71 344.88 346.48 348.79 341.75 352.71 335.12 356.63 326.27 360.55 314.96 364.47 301.21 368.39 285.32 372.31 267.95 376.23 250.04 380.15 232.81 384.07 217.52 387.98 205.28 391.9 196.88 395.82 192.57 399.74 192.03 403.66 194.43 407.58 198.55 411.5 203.12 415.42 207.03 419.34 209.63 423.26 210.82 427.17 211.03 431.09 211.08 435.01 211.95 438.93 214.42 442.85 218.96 446.77 225.5 450.69 233.57 454.61 242.37 458.53 251.05 462.45 258.88 466.36 265.5 470.28 270.9 474.2 275.43 478.12 279.62 482.04 284.07 485.96 289.22 489.88 295.29 493.8 302.2 497.72 309.66 501.64 317.22 505.56 324.39 509.47 330.71 513.39 335.85 517.31 339.65 521.23 342.06 525.15 343.2 529.07 343.28 532.99 342.56 532.99 350.47 529.07 350.47 525.15 350.47 521.23 350.47 517.31 350.47 513.39 350.47 509.47 350.47 505.56 350.47 501.64 350.47 497.72 350.47 493.8 350.47 489.88 350.47 485.96 350.47 482.04 350.47 478.12 350.47 474.2 350.47 470.28 350.47 466.36 350.47 462.45 350.47 458.53 350.47 454.61 350.47 450.69 350.47 446.77 350.47 442.85 350.47 438.93 350.47 435.01 350.47 431.09 350.47 427.17 350.47 423.26 350.47 419.34 350.47 415.42 350.47 411.5 350.47 407.58 350.47 403.66 350.47 399.74 350.47 395.82 350.47 391.9 350.47 387.98 350.47 384.07 350.47 380.15 350.47 376.23 350.47 372.31 350.47 368.39 350.47 364.47 350.47 360.55 350.47 356.63 350.47 352.71 350.47 348.79 350.47 344.88 350.47 340.96 350.47 337.04 350.47 333.12 350.47 329.2 350.47 325.28 350.47 321.36 350.47"/><polyline class="cls-110" points="321.36 350.47 325.28 350.47 329.2 350.47 333.12 350.47 337.04 350.47 340.96 349.71 344.88 346.48 348.79 341.75 352.71 335.12 356.63 326.27 360.55 314.96 364.47 301.21 368.39 285.32 372.31 267.95 376.23 250.04 380.15 232.81 384.07 217.52 387.98 205.28 391.9 196.88 395.82 192.57 399.74 192.03 403.66 194.43 407.58 198.55 411.5 203.12 415.42 207.03 419.34 209.63 423.26 210.82 427.17 211.03 431.09 211.08 435.01 211.95 438.93 214.42 442.85 218.96 446.77 225.5 450.69 233.57 454.61 242.37 458.53 251.05 462.45 258.88 466.36 265.5 470.28 270.9 474.2 275.43 478.12 279.62 482.04 284.07 485.96 289.22 489.88 295.29 493.8 302.2 497.72 309.66 501.64 317.22 505.56 324.39 509.47 330.71 513.39 335.85 517.31 339.65 521.23 342.06 525.15 343.2 529.07 343.28 532.99 342.56"/><rect class="cls-100" x="356.63" y="85.62" width="58.79" height="264.85"/></g><g class="cls-111"><line class="cls-7" x1="549.05" y1="309.73" x2="781.84" y2="309.73"/><line class="cls-7" x1="549.05" y1="228.24" x2="781.84" y2="228.24"/><line class="cls-7" x1="549.05" y1="146.75" x2="781.84" y2="146.75"/><line class="cls-7" x1="594.9" y1="363.72" x2="594.9" y2="72.38"/><line class="cls-7" x1="673.28" y1="363.72" x2="673.28" y2="72.38"/><line class="cls-7" x1="751.66" y1="363.72" x2="751.66" y2="72.38"/><line class="cls-8" x1="549.05" y1="350.47" x2="781.84" y2="350.47"/><line class="cls-8" x1="549.05" y1="268.98" x2="781.84" y2="268.98"/><line class="cls-8" x1="549.05" y1="187.49" x2="781.84" y2="187.49"/><line class="cls-8" x1="549.05" y1="106" x2="781.84" y2="106"/><line class="cls-8" x1="555.71" y1="363.72" x2="555.71" y2="72.38"/><line class="cls-8" x1="634.09" y1="363.72" x2="634.09" y2="72.38"/><line class="cls-8" x1="712.47" y1="363.72" x2="712.47" y2="72.38"/><polyline class="cls-112" points="559.63 350.47 563.55 350.47 567.47 350.47 571.39 350.47 575.31 350.47 579.23 350.47 583.14 348.75 587.06 345.14 590.98 339.98 594.9 332.88 598.82 323.56 602.74 311.87 606.66 297.9 610.58 282.04 614.5 264.97 618.42 247.67 622.33 231.27 626.25 216.88 630.17 205.38 634.09 197.27 638.01 192.49 641.93 190.5 645.85 190.36 649.77 190.96 653.69 191.33 657.61 190.89 661.52 189.61 665.44 188.01 669.36 186.99 673.28 187.63 677.2 190.82 681.12 197.03 685.04 206.19 688.96 217.68 692.88 230.52 696.8 243.58 700.71 255.86 704.63 266.69 708.55 275.82 712.47 283.38 716.39 289.79 720.31 295.57 724.23 301.21 728.15 307.01 732.07 313.08 735.99 319.31 739.91 325.44 743.82 331.16 747.74 336.18 751.66 340.27 755.58 343.32 759.5 345.31 763.42 346.34 767.34 346.56 771.26 346.19"/><polyline class="cls-113" points="559.63 350.47 563.55 350.47 567.47 350.47 571.39 350.47 575.31 350.47 579.23 348.72 583.14 344.88 587.06 339.24 590.98 331.33 594.9 320.7 598.82 307.08 602.74 290.45 606.66 271.15 610.58 249.94 614.5 228.01 618.42 206.83 622.33 188.04 626.25 173.14 630.17 163.25 634.09 158.92 638.01 159.97 641.93 165.57 645.85 174.38 649.77 184.8 653.69 195.34 657.61 204.87 661.52 212.82 665.44 219.18 669.36 224.43 673.28 229.3 677.2 234.52 681.12 240.56 685.04 247.58 688.96 255.35 692.88 263.37 696.8 271.06 700.71 277.93 704.63 283.7 708.55 288.4 712.47 292.3 716.39 295.86 720.31 299.53 724.23 303.67 728.15 308.48 732.07 313.91 735.99 319.75 739.91 325.65 743.82 331.25 747.74 336.2 751.66 340.26 755.58 343.28 759.5 345.26 763.42 346.28 767.34 346.48 771.26 346.09"/><polyline class="cls-114" points="559.63 350.47 563.55 350.47 567.47 350.47 571.39 350.47 575.31 350.47 579.23 350.18 583.14 347.09 587.06 342.39 590.98 335.54 594.9 325.97 598.82 313.2 602.74 296.91 606.66 277.1 610.58 254.24 614.5 229.27 618.42 203.64 622.33 179.15 626.25 157.75 630.17 141.18 634.09 130.72 638.01 126.91 641.93 129.46 645.85 137.31 649.77 148.86 653.69 162.32 657.61 176.1 661.52 189.06 665.44 200.67 669.36 211 673.28 220.51 677.2 229.86 681.12 239.58 685.04 249.96 688.96 260.92 692.88 272.11 696.8 282.99 700.71 293.05 704.63 301.88 708.55 309.31 712.47 315.39 716.39 320.34 720.31 324.48 724.23 328.12 728.15 331.51 732.07 334.77 735.99 337.94 739.91 340.96 743.82 343.72 747.74 346.12 751.66 348.08 755.58 349.56 759.5 350.47 763.42 350.47 767.34 350.47 771.26 350.47"/><polygon class="cls-115" points="559.63 350.47 563.55 350.47 567.47 350.47 571.39 350.47 575.31 350.47 579.23 350.47 583.14 348.75 587.06 345.14 590.98 339.98 594.9 332.88 598.82 323.56 602.74 311.87 606.66 297.9 610.58 282.04 614.5 264.97 618.42 247.67 622.33 231.27 626.25 216.88 630.17 205.38 634.09 197.27 638.01 192.49 641.93 190.5 645.85 190.36 649.77 190.96 653.69 191.33 657.61 190.89 661.52 189.61 665.44 188.01 669.36 186.99 673.28 187.63 677.2 190.82 681.12 197.03 685.04 206.19 688.96 217.68 692.88 230.52 696.8 243.58 700.71 255.86 704.63 266.69 708.55 275.82 712.47 283.38 716.39 289.79 720.31 295.57 724.23 301.21 728.15 307.01 732.07 313.08 735.99 319.31 739.91 325.44 743.82 331.16 747.74 336.18 751.66 340.27 755.58 343.32 759.5 345.31 763.42 346.34 767.34 346.56 771.26 346.19 771.26 350.47 767.34 350.47 763.42 350.47 759.5 350.47 755.58 350.47 751.66 350.47 747.74 350.47 743.82 350.47 739.91 350.47 735.99 350.47 732.07 350.47 728.15 350.47 724.23 350.47 720.31 350.47 716.39 350.47 712.47 350.47 708.55 350.47 704.63 350.47 700.71 350.47 696.8 350.47 692.88 350.47 688.96 350.47 685.04 350.47 681.12 350.47 677.2 350.47 673.28 350.47 669.36 350.47 665.44 350.47 661.52 350.47 657.61 350.47 653.69 350.47 649.77 350.47 645.85 350.47 641.93 350.47 638.01 350.47 634.09 350.47 630.17 350.47 626.25 350.47 622.33 350.47 618.42 350.47 614.5 350.47 610.58 350.47 606.66 350.47 602.74 350.47 598.82 350.47 594.9 350.47 590.98 350.47 587.06 350.47 583.14 350.47 579.23 350.47 575.31 350.47 571.39 350.47 567.47 350.47 563.55 350.47 559.63 350.47"/><polyline class="cls-116" points="559.63 350.47 563.55 350.47 567.47 350.47 571.39 350.47 575.31 350.47 579.23 350.47 583.14 348.75 587.06 345.14 590.98 339.98 594.9 332.88 598.82 323.56 602.74 311.87 606.66 297.9 610.58 282.04 614.5 264.97 618.42 247.67 622.33 231.27 626.25 216.88 630.17 205.38 634.09 197.27 638.01 192.49 641.93 190.5 645.85 190.36 649.77 190.96 653.69 191.33 657.61 190.89 661.52 189.61 665.44 188.01 669.36 186.99 673.28 187.63 677.2 190.82 681.12 197.03 685.04 206.19 688.96 217.68 692.88 230.52 696.8 243.58 700.71 255.86 704.63 266.69 708.55 275.82 712.47 283.38 716.39 289.79 720.31 295.57 724.23 301.21 728.15 307.01 732.07 313.08 735.99 319.31 739.91 325.44 743.82 331.16 747.74 336.18 751.66 340.27 755.58 343.32 759.5 345.31 763.42 346.34 767.34 346.56 771.26 346.19"/><polygon class="cls-117" points="559.63 350.47 563.55 350.47 567.47 350.47 571.39 350.47 575.31 350.47 579.23 348.72 583.14 344.88 587.06 339.24 590.98 331.33 594.9 320.7 598.82 307.08 602.74 290.45 606.66 271.15 610.58 249.94 614.5 228.01 618.42 206.83 622.33 188.04 626.25 173.14 630.17 163.25 634.09 158.92 638.01 159.97 641.93 165.57 645.85 174.38 649.77 184.8 653.69 195.34 657.61 204.87 661.52 212.82 665.44 219.18 669.36 224.43 673.28 229.3 677.2 234.52 681.12 240.56 685.04 247.58 688.96 255.35 692.88 263.37 696.8 271.06 700.71 277.93 704.63 283.7 708.55 288.4 712.47 292.3 716.39 295.86 720.31 299.53 724.23 303.67 728.15 308.48 732.07 313.91 735.99 319.75 739.91 325.65 743.82 331.25 747.74 336.2 751.66 340.26 755.58 343.28 759.5 345.26 763.42 346.28 767.34 346.48 771.26 346.09 771.26 350.47 767.34 350.47 763.42 350.47 759.5 350.47 755.58 350.47 751.66 350.47 747.74 350.47 743.82 350.47 739.91 350.47 735.99 350.47 732.07 350.47 728.15 350.47 724.23 350.47 720.31 350.47 716.39 350.47 712.47 350.47 708.55 350.47 704.63 350.47 700.71 350.47 696.8 350.47 692.88 350.47 688.96 350.47 685.04 350.47 681.12 350.47 677.2 350.47 673.28 350.47 669.36 350.47 665.44 350.47 661.52 350.47 657.61 350.47 653.69 350.47 649.77 350.47 645.85 350.47 641.93 350.47 638.01 350.47 634.09 350.47 630.17 350.47 626.25 350.47 622.33 350.47 618.42 350.47 614.5 350.47 610.58 350.47 606.66 350.47 602.74 350.47 598.82 350.47 594.9 350.47 590.98 350.47 587.06 350.47 583.14 350.47 579.23 350.47 575.31 350.47 571.39 350.47 567.47 350.47 563.55 350.47 559.63 350.47"/><polyline class="cls-118" points="559.63 350.47 563.55 350.47 567.47 350.47 571.39 350.47 575.31 350.47 579.23 348.72 583.14 344.88 587.06 339.24 590.98 331.33 594.9 320.7 598.82 307.08 602.74 290.45 606.66 271.15 610.58 249.94 614.5 228.01 618.42 206.83 622.33 188.04 626.25 173.14 630.17 163.25 634.09 158.92 638.01 159.97 641.93 165.57 645.85 174.38 649.77 184.8 653.69 195.34 657.61 204.87 661.52 212.82 665.44 219.18 669.36 224.43 673.28 229.3 677.2 234.52 681.12 240.56 685.04 247.58 688.96 255.35 692.88 263.37 696.8 271.06 700.71 277.93 704.63 283.7 708.55 288.4 712.47 292.3 716.39 295.86 720.31 299.53 724.23 303.67 728.15 308.48 732.07 313.91 735.99 319.75 739.91 325.65 743.82 331.25 747.74 336.2 751.66 340.26 755.58 343.28 759.5 345.26 763.42 346.28 767.34 346.48 771.26 346.09"/><polygon class="cls-119" points="559.63 350.47 563.55 350.47 567.47 350.47 571.39 350.47 575.31 350.47 579.23 350.18 583.14 347.09 587.06 342.39 590.98 335.54 594.9 325.97 598.82 313.2 602.74 296.91 606.66 277.1 610.58 254.24 614.5 229.27 618.42 203.64 622.33 179.15 626.25 157.75 630.17 141.18 634.09 130.72 638.01 126.91 641.93 129.46 645.85 137.31 649.77 148.86 653.69 162.32 657.61 176.1 661.52 189.06 665.44 200.67 669.36 211 673.28 220.51 677.2 229.86 681.12 239.58 685.04 249.96 688.96 260.92 692.88 272.11 696.8 282.99 700.71 293.05 704.63 301.88 708.55 309.31 712.47 315.39 716.39 320.34 720.31 324.48 724.23 328.12 728.15 331.51 732.07 334.77 735.99 337.94 739.91 340.96 743.82 343.72 747.74 346.12 751.66 348.08 755.58 349.56 759.5 350.47 763.42 350.47 767.34 350.47 771.26 350.47 767.34 350.47 763.42 350.47 759.5 350.47 755.58 350.47 751.66 350.47 747.74 350.47 743.82 350.47 739.91 350.47 735.99 350.47 732.07 350.47 728.15 350.47 724.23 350.47 720.31 350.47 716.39 350.47 712.47 350.47 708.55 350.47 704.63 350.47 700.71 350.47 696.8 350.47 692.88 350.47 688.96 350.47 685.04 350.47 681.12 350.47 677.2 350.47 673.28 350.47 669.36 350.47 665.44 350.47 661.52 350.47 657.61 350.47 653.69 350.47 649.77 350.47 645.85 350.47 641.93 350.47 638.01 350.47 634.09 350.47 630.17 350.47 626.25 350.47 622.33 350.47 618.42 350.47 614.5 350.47 610.58 350.47 606.66 350.47 602.74 350.47 598.82 350.47 594.9 350.47 590.98 350.47 587.06 350.47 583.14 350.47 579.23 350.47 575.31 350.47 571.39 350.47 567.47 350.47 563.55 350.47 559.63 350.47"/><polyline class="cls-120" points="559.63 350.47 563.55 350.47 567.47 350.47 571.39 350.47 575.31 350.47 579.23 350.18 583.14 347.09 587.06 342.39 590.98 335.54 594.9 325.97 598.82 313.2 602.74 296.91 606.66 277.1 610.58 254.24 614.5 229.27 618.42 203.64 622.33 179.15 626.25 157.75 630.17 141.18 634.09 130.72 638.01 126.91 641.93 129.46 645.85 137.31 649.77 148.86 653.69 162.32 657.61 176.1 661.52 189.06 665.44 200.67 669.36 211 673.28 220.51 677.2 229.86 681.12 239.58 685.04 249.96 688.96 260.92 692.88 272.11 696.8 282.99 700.71 293.05 704.63 301.88 708.55 309.31 712.47 315.39 716.39 320.34 720.31 324.48 724.23 328.12 728.15 331.51 732.07 334.77 735.99 337.94 739.91 340.96 743.82 343.72 747.74 346.12 751.66 348.08 755.58 349.56 759.5 350.47 763.42 350.47 767.34 350.47 771.26 350.47"/><rect class="cls-100" x="594.9" y="85.62" width="58.79" height="264.85"/></g><g class="cls-121"><line class="cls-7" x1="787.32" y1="309.73" x2="1020.11" y2="309.73"/><line class="cls-7" x1="787.32" y1="228.24" x2="1020.11" y2="228.24"/><line class="cls-7" x1="787.32" y1="146.75" x2="1020.11" y2="146.75"/><line class="cls-7" x1="833.17" y1="363.72" x2="833.17" y2="72.38"/><line class="cls-7" x1="911.55" y1="363.72" x2="911.55" y2="72.38"/><line class="cls-7" x1="989.93" y1="363.72" x2="989.93" y2="72.38"/><line class="cls-8" x1="787.32" y1="350.47" x2="1020.11" y2="350.47"/><line class="cls-8" x1="787.32" y1="268.98" x2="1020.11" y2="268.98"/><line class="cls-8" x1="787.32" y1="187.49" x2="1020.11" y2="187.49"/><line class="cls-8" x1="787.32" y1="106" x2="1020.11" y2="106"/><line class="cls-8" x1="793.98" y1="363.72" x2="793.98" y2="72.38"/><line class="cls-8" x1="872.36" y1="363.72" x2="872.36" y2="72.38"/><line class="cls-8" x1="950.74" y1="363.72" x2="950.74" y2="72.38"/><polyline class="cls-122" points="797.9 350.47 801.82 350.47 805.74 350.47 809.66 350.47 813.58 350.47 817.49 349.7 821.41 346.51 825.33 341.87 829.25 335.42 833.17 326.87 837.09 316.04 841.01 303.01 844.93 288.12 848.85 272.04 852.77 255.72 856.68 240.31 860.6 226.94 864.52 216.6 868.44 209.88 872.36 206.89 876.28 207.19 880.2 209.86 884.12 213.71 888.04 217.53 891.96 220.35 895.87 221.63 899.79 221.39 903.71 220.15 907.63 218.77 911.55 218.17 915.47 219.11 919.39 221.94 923.31 226.56 927.23 232.43 931.15 238.76 935.07 244.75 938.98 249.81 942.9 253.72 946.82 256.69 950.74 259.26 954.66 262.14 958.58 266.04 962.5 271.42 966.42 278.44 970.34 286.92 974.26 296.36 978.17 306.12 982.09 315.5 986.01 323.91 989.93 330.9 993.85 336.24 997.77 339.9 1001.69 342.01 1005.61 342.83 1009.53 342.67"/><polyline class="cls-123" points="797.9 350.47 801.82 350.47 805.74 350.47 809.66 350.47 813.58 350.47 817.49 349.03 821.41 345.39 825.33 340.06 829.25 332.57 833.17 322.52 837.09 309.65 841.01 293.93 844.93 275.7 848.85 255.66 852.77 234.93 856.68 214.89 860.6 197.05 864.52 182.8 868.44 173.13 872.36 168.51 876.28 168.7 880.2 172.88 884.12 179.73 888.04 187.76 891.96 195.63 895.87 202.38 899.79 207.62 903.71 211.55 907.63 214.82 911.55 218.3 915.47 222.78 919.39 228.78 923.31 236.37 927.23 245.22 931.15 254.69 935.07 264.02 938.98 272.57 942.9 279.94 946.82 286.05 950.74 291.12 954.66 295.56 958.58 299.86 962.5 304.4 966.42 309.41 970.34 314.9 974.26 320.7 978.17 326.52 982.09 332.01 986.01 336.87 989.93 340.87 993.85 343.88 997.77 345.9 1001.69 347 1005.61 347.34 1009.53 347.12"/><polyline class="cls-124" points="797.9 350.47 801.82 350.47 805.74 350.47 809.66 350.47 813.58 350.47 817.49 349.75 821.41 346.46 825.33 341.54 829.25 334.5 833.17 324.86 837.09 312.22 841.01 296.41 844.93 277.59 848.85 256.31 852.77 233.59 856.68 210.82 860.6 189.65 864.52 171.74 868.44 158.48 872.36 150.77 876.28 148.8 880.2 152.02 884.12 159.28 888.04 169.06 891.96 179.79 895.87 190.19 899.79 199.45 903.71 207.39 907.63 214.33 911.55 220.89 915.47 227.79 919.39 235.51 923.31 244.24 927.23 253.78 931.15 263.66 935.07 273.25 938.98 282.02 942.9 289.59 946.82 295.88 950.74 301.07 954.66 305.49 958.58 309.57 962.5 313.66 966.42 317.97 970.34 322.55 974.26 327.31 978.17 332.02 982.09 336.44 986.01 340.32 989.93 343.48 993.85 345.83 997.77 347.36 1001.69 348.14 1005.61 348.29 1009.53 347.98"/><polygon class="cls-125" points="797.9 350.47 801.82 350.47 805.74 350.47 809.66 350.47 813.58 350.47 817.49 349.7 821.41 346.51 825.33 341.87 829.25 335.42 833.17 326.87 837.09 316.04 841.01 303.01 844.93 288.12 848.85 272.04 852.77 255.72 856.68 240.31 860.6 226.94 864.52 216.6 868.44 209.88 872.36 206.89 876.28 207.19 880.2 209.86 884.12 213.71 888.04 217.53 891.96 220.35 895.87 221.63 899.79 221.39 903.71 220.15 907.63 218.77 911.55 218.17 915.47 219.11 919.39 221.94 923.31 226.56 927.23 232.43 931.15 238.76 935.07 244.75 938.98 249.81 942.9 253.72 946.82 256.69 950.74 259.26 954.66 262.14 958.58 266.04 962.5 271.42 966.42 278.44 970.34 286.92 974.26 296.36 978.17 306.12 982.09 315.5 986.01 323.91 989.93 330.9 993.85 336.24 997.77 339.9 1001.69 342.01 1005.61 342.83 1009.53 342.67 1009.53 350.47 1005.61 350.47 1001.69 350.47 997.77 350.47 993.85 350.47 989.93 350.47 986.01 350.47 982.09 350.47 978.17 350.47 974.26 350.47 970.34 350.47 966.42 350.47 962.5 350.47 958.58 350.47 954.66 350.47 950.74 350.47 946.82 350.47 942.9 350.47 938.98 350.47 935.07 350.47 931.15 350.47 927.23 350.47 923.31 350.47 919.39 350.47 915.47 350.47 911.55 350.47 907.63 350.47 903.71 350.47 899.79 350.47 895.87 350.47 891.96 350.47 888.04 350.47 884.12 350.47 880.2 350.47 876.28 350.47 872.36 350.47 868.44 350.47 864.52 350.47 860.6 350.47 856.68 350.47 852.77 350.47 848.85 350.47 844.93 350.47 841.01 350.47 837.09 350.47 833.17 350.47 829.25 350.47 825.33 350.47 821.41 350.47 817.49 350.47 813.58 350.47 809.66 350.47 805.74 350.47 801.82 350.47 797.9 350.47"/><polyline class="cls-126" points="797.9 350.47 801.82 350.47 805.74 350.47 809.66 350.47 813.58 350.47 817.49 349.7 821.41 346.51 825.33 341.87 829.25 335.42 833.17 326.87 837.09 316.04 841.01 303.01 844.93 288.12 848.85 272.04 852.77 255.72 856.68 240.31 860.6 226.94 864.52 216.6 868.44 209.88 872.36 206.89 876.28 207.19 880.2 209.86 884.12 213.71 888.04 217.53 891.96 220.35 895.87 221.63 899.79 221.39 903.71 220.15 907.63 218.77 911.55 218.17 915.47 219.11 919.39 221.94 923.31 226.56 927.23 232.43 931.15 238.76 935.07 244.75 938.98 249.81 942.9 253.72 946.82 256.69 950.74 259.26 954.66 262.14 958.58 266.04 962.5 271.42 966.42 278.44 970.34 286.92 974.26 296.36 978.17 306.12 982.09 315.5 986.01 323.91 989.93 330.9 993.85 336.24 997.77 339.9 1001.69 342.01 1005.61 342.83 1009.53 342.67"/><polygon class="cls-127" points="797.9 350.47 801.82 350.47 805.74 350.47 809.66 350.47 813.58 350.47 817.49 349.03 821.41 345.39 825.33 340.06 829.25 332.57 833.17 322.52 837.09 309.65 841.01 293.93 844.93 275.7 848.85 255.66 852.77 234.93 856.68 214.89 860.6 197.05 864.52 182.8 868.44 173.13 872.36 168.51 876.28 168.7 880.2 172.88 884.12 179.73 888.04 187.76 891.96 195.63 895.87 202.38 899.79 207.62 903.71 211.55 907.63 214.82 911.55 218.3 915.47 222.78 919.39 228.78 923.31 236.37 927.23 245.22 931.15 254.69 935.07 264.02 938.98 272.57 942.9 279.94 946.82 286.05 950.74 291.12 954.66 295.56 958.58 299.86 962.5 304.4 966.42 309.41 970.34 314.9 974.26 320.7 978.17 326.52 982.09 332.01 986.01 336.87 989.93 340.87 993.85 343.88 997.77 345.9 1001.69 347 1005.61 347.34 1009.53 347.12 1009.53 350.47 1005.61 350.47 1001.69 350.47 997.77 350.47 993.85 350.47 989.93 350.47 986.01 350.47 982.09 350.47 978.17 350.47 974.26 350.47 970.34 350.47 966.42 350.47 962.5 350.47 958.58 350.47 954.66 350.47 950.74 350.47 946.82 350.47 942.9 350.47 938.98 350.47 935.07 350.47 931.15 350.47 927.23 350.47 923.31 350.47 919.39 350.47 915.47 350.47 911.55 350.47 907.63 350.47 903.71 350.47 899.79 350.47 895.87 350.47 891.96 350.47 888.04 350.47 884.12 350.47 880.2 350.47 876.28 350.47 872.36 350.47 868.44 350.47 864.52 350.47 860.6 350.47 856.68 350.47 852.77 350.47 848.85 350.47 844.93 350.47 841.01 350.47 837.09 350.47 833.17 350.47 829.25 350.47 825.33 350.47 821.41 350.47 817.49 350.47 813.58 350.47 809.66 350.47 805.74 350.47 801.82 350.47 797.9 350.47"/><polyline class="cls-128" points="797.9 350.47 801.82 350.47 805.74 350.47 809.66 350.47 813.58 350.47 817.49 349.03 821.41 345.39 825.33 340.06 829.25 332.57 833.17 322.52 837.09 309.65 841.01 293.93 844.93 275.7 848.85 255.66 852.77 234.93 856.68 214.89 860.6 197.05 864.52 182.8 868.44 173.13 872.36 168.51 876.28 168.7 880.2 172.88 884.12 179.73 888.04 187.76 891.96 195.63 895.87 202.38 899.79 207.62 903.71 211.55 907.63 214.82 911.55 218.3 915.47 222.78 919.39 228.78 923.31 236.37 927.23 245.22 931.15 254.69 935.07 264.02 938.98 272.57 942.9 279.94 946.82 286.05 950.74 291.12 954.66 295.56 958.58 299.86 962.5 304.4 966.42 309.41 970.34 314.9 974.26 320.7 978.17 326.52 982.09 332.01 986.01 336.87 989.93 340.87 993.85 343.88 997.77 345.9 1001.69 347 1005.61 347.34 1009.53 347.12"/><polygon class="cls-129" points="797.9 350.47 801.82 350.47 805.74 350.47 809.66 350.47 813.58 350.47 817.49 349.75 821.41 346.46 825.33 341.54 829.25 334.5 833.17 324.86 837.09 312.22 841.01 296.41 844.93 277.59 848.85 256.31 852.77 233.59 856.68 210.82 860.6 189.65 864.52 171.74 868.44 158.48 872.36 150.77 876.28 148.8 880.2 152.02 884.12 159.28 888.04 169.06 891.96 179.79 895.87 190.19 899.79 199.45 903.71 207.39 907.63 214.33 911.55 220.89 915.47 227.79 919.39 235.51 923.31 244.24 927.23 253.78 931.15 263.66 935.07 273.25 938.98 282.02 942.9 289.59 946.82 295.88 950.74 301.07 954.66 305.49 958.58 309.57 962.5 313.66 966.42 317.97 970.34 322.55 974.26 327.31 978.17 332.02 982.09 336.44 986.01 340.32 989.93 343.48 993.85 345.83 997.77 347.36 1001.69 348.14 1005.61 348.29 1009.53 347.98 1009.53 350.47 1005.61 350.47 1001.69 350.47 997.77 350.47 993.85 350.47 989.93 350.47 986.01 350.47 982.09 350.47 978.17 350.47 974.26 350.47 970.34 350.47 966.42 350.47 962.5 350.47 958.58 350.47 954.66 350.47 950.74 350.47 946.82 350.47 942.9 350.47 938.98 350.47 935.07 350.47 931.15 350.47 927.23 350.47 923.31 350.47 919.39 350.47 915.47 350.47 911.55 350.47 907.63 350.47 903.71 350.47 899.79 350.47 895.87 350.47 891.96 350.47 888.04 350.47 884.12 350.47 880.2 350.47 876.28 350.47 872.36 350.47 868.44 350.47 864.52 350.47 860.6 350.47 856.68 350.47 852.77 350.47 848.85 350.47 844.93 350.47 841.01 350.47 837.09 350.47 833.17 350.47 829.25 350.47 825.33 350.47 821.41 350.47 817.49 350.47 813.58 350.47 809.66 350.47 805.74 350.47 801.82 350.47 797.9 350.47"/><polyline class="cls-130" points="797.9 350.47 801.82 350.47 805.74 350.47 809.66 350.47 813.58 350.47 817.49 349.75 821.41 346.46 825.33 341.54 829.25 334.5 833.17 324.86 837.09 312.22 841.01 296.41 844.93 277.59 848.85 256.31 852.77 233.59 856.68 210.82 860.6 189.65 864.52 171.74 868.44 158.48 872.36 150.77 876.28 148.8 880.2 152.02 884.12 159.28 888.04 169.06 891.96 179.79 895.87 190.19 899.79 199.45 903.71 207.39 907.63 214.33 911.55 220.89 915.47 227.79 919.39 235.51 923.31 244.24 927.23 253.78 931.15 263.66 935.07 273.25 938.98 282.02 942.9 289.59 946.82 295.88 950.74 301.07 954.66 305.49 958.58 309.57 962.5 313.66 966.42 317.97 970.34 322.55 974.26 327.31 978.17 332.02 982.09 336.44 986.01 340.32 989.93 343.48 993.85 345.83 997.77 347.36 1001.69 348.14 1005.61 348.29 1009.53 347.98"/><rect class="cls-100" x="833.17" y="85.62" width="58.79" height="264.85"/></g><g class="cls-131"><line class="cls-7" x1="1025.59" y1="309.73" x2="1258.38" y2="309.73"/><line class="cls-7" x1="1025.59" y1="228.24" x2="1258.38" y2="228.24"/><line class="cls-7" x1="1025.59" y1="146.75" x2="1258.38" y2="146.75"/><line class="cls-7" x1="1071.44" y1="363.72" x2="1071.44" y2="72.38"/><line class="cls-7" x1="1149.82" y1="363.72" x2="1149.82" y2="72.38"/><line class="cls-7" x1="1228.2" y1="363.72" x2="1228.2" y2="72.38"/><line class="cls-8" x1="1025.59" y1="350.47" x2="1258.38" y2="350.47"/><line class="cls-8" x1="1025.59" y1="268.98" x2="1258.38" y2="268.98"/><line class="cls-8" x1="1025.59" y1="187.49" x2="1258.38" y2="187.49"/><line class="cls-8" x1="1025.59" y1="106" x2="1258.38" y2="106"/><line class="cls-8" x1="1032.25" y1="363.72" x2="1032.25" y2="72.38"/><line class="cls-8" x1="1110.63" y1="363.72" x2="1110.63" y2="72.38"/><line class="cls-8" x1="1189.01" y1="363.72" x2="1189.01" y2="72.38"/><polyline class="cls-132" points="1036.17 350.47 1040.09 350.47 1044.01 350.47 1047.93 350.47 1051.84 350.47 1055.76 349.82 1059.68 346.5 1063.6 341.48 1067.52 334.21 1071.44 324.12 1075.36 310.72 1079.28 293.74 1083.2 273.23 1087.12 249.72 1091.03 224.23 1094.95 198.29 1098.87 173.77 1102.79 152.65 1106.71 136.7 1110.63 127.2 1114.55 124.64 1118.47 128.68 1122.39 138.2 1126.31 151.54 1130.22 166.83 1134.14 182.4 1138.06 196.99 1141.98 209.98 1145.9 221.33 1149.82 231.41 1153.74 240.8 1157.66 250.01 1161.58 259.36 1165.5 268.83 1169.42 278.19 1173.33 287.06 1177.25 295.04 1181.17 301.9 1185.09 307.58 1189.01 312.23 1192.93 316.14 1196.85 319.63 1200.77 323.01 1204.69 326.47 1208.61 330.07 1212.52 333.74 1216.44 337.35 1220.36 340.7 1224.28 343.61 1228.2 345.95 1232.12 347.64 1236.04 348.67 1239.96 349.1 1243.88 349.03 1247.8 348.59"/><polyline class="cls-133" points="1036.17 350.47 1040.09 350.47 1044.01 350.47 1047.93 350.47 1051.84 350.47 1055.76 350.47 1059.68 350.47 1063.6 347.59 1067.52 343.04 1071.44 336.33 1075.36 326.89 1079.28 314.23 1083.2 298.05 1087.12 278.44 1091.03 255.94 1094.95 231.59 1098.87 206.92 1102.79 183.69 1106.71 163.7 1110.63 148.39 1114.55 138.63 1118.47 134.48 1122.39 135.25 1126.31 139.7 1130.22 146.34 1134.14 153.83 1138.06 161.3 1141.98 168.45 1145.9 175.62 1149.82 183.49 1153.74 192.85 1157.66 204.27 1161.58 217.93 1165.5 233.51 1169.42 250.3 1173.33 267.32 1177.25 283.61 1181.17 298.33 1185.09 310.96 1189.01 321.29 1192.93 329.39 1196.85 335.54 1200.77 340.11 1204.69 343.5 1208.61 346.04 1212.52 347.98 1216.44 349.51 1220.36 350.47 1224.28 350.47 1228.2 350.47 1232.12 350.47 1236.04 350.47 1239.96 350.47 1243.88 350.47 1247.8 350.47"/><polyline class="cls-134" points="1036.17 350.47 1040.09 350.47 1044.01 350.47 1047.93 350.47 1051.84 350.47 1055.76 350.07 1059.68 346.86 1063.6 341.94 1067.52 334.7 1071.44 324.51 1075.36 310.78 1079.28 293.12 1083.2 271.47 1087.12 246.27 1091.03 218.52 1094.95 189.82 1098.87 162.21 1102.79 137.95 1106.71 119.14 1110.63 107.41 1114.55 103.58 1118.47 107.52 1122.39 118.16 1126.31 133.77 1130.22 152.25 1134.14 171.59 1138.06 190.19 1141.98 207.08 1145.9 221.94 1149.82 234.96 1153.74 246.64 1157.66 257.52 1161.58 268.01 1165.5 278.27 1169.42 288.18 1173.33 297.5 1177.25 305.93 1181.17 313.24 1185.09 319.34 1189.01 324.3 1192.93 328.31 1196.85 331.62 1200.77 334.5 1204.69 337.13 1208.61 339.64 1212.52 342.06 1216.44 344.35 1220.36 346.43 1224.28 348.24 1228.2 349.71 1232.12 350.47 1236.04 350.47 1239.96 350.47 1243.88 350.47 1247.8 350.47"/><polygon class="cls-135" points="1036.17 350.47 1040.09 350.47 1044.01 350.47 1047.93 350.47 1051.84 350.47 1055.76 349.82 1059.68 346.5 1063.6 341.48 1067.52 334.21 1071.44 324.12 1075.36 310.72 1079.28 293.74 1083.2 273.23 1087.12 249.72 1091.03 224.23 1094.95 198.29 1098.87 173.77 1102.79 152.65 1106.71 136.7 1110.63 127.2 1114.55 124.64 1118.47 128.68 1122.39 138.2 1126.31 151.54 1130.22 166.83 1134.14 182.4 1138.06 196.99 1141.98 209.98 1145.9 221.33 1149.82 231.41 1153.74 240.8 1157.66 250.01 1161.58 259.36 1165.5 268.83 1169.42 278.19 1173.33 287.06 1177.25 295.04 1181.17 301.9 1185.09 307.58 1189.01 312.23 1192.93 316.14 1196.85 319.63 1200.77 323.01 1204.69 326.47 1208.61 330.07 1212.52 333.74 1216.44 337.35 1220.36 340.7 1224.28 343.61 1228.2 345.95 1232.12 347.64 1236.04 348.67 1239.96 349.1 1243.88 349.03 1247.8 348.59 1247.8 350.47 1243.88 350.47 1239.96 350.47 1236.04 350.47 1232.12 350.47 1228.2 350.47 1224.28 350.47 1220.36 350.47 1216.44 350.47 1212.52 350.47 1208.61 350.47 1204.69 350.47 1200.77 350.47 1196.85 350.47 1192.93 350.47 1189.01 350.47 1185.09 350.47 1181.17 350.47 1177.25 350.47 1173.33 350.47 1169.42 350.47 1165.5 350.47 1161.58 350.47 1157.66 350.47 1153.74 350.47 1149.82 350.47 1145.9 350.47 1141.98 350.47 1138.06 350.47 1134.14 350.47 1130.22 350.47 1126.31 350.47 1122.39 350.47 1118.47 350.47 1114.55 350.47 1110.63 350.47 1106.71 350.47 1102.79 350.47 1098.87 350.47 1094.95 350.47 1091.03 350.47 1087.12 350.47 1083.2 350.47 1079.28 350.47 1075.36 350.47 1071.44 350.47 1067.52 350.47 1063.6 350.47 1059.68 350.47 1055.76 350.47 1051.84 350.47 1047.93 350.47 1044.01 350.47 1040.09 350.47 1036.17 350.47"/><polyline class="cls-136" points="1036.17 350.47 1040.09 350.47 1044.01 350.47 1047.93 350.47 1051.84 350.47 1055.76 349.82 1059.68 346.5 1063.6 341.48 1067.52 334.21 1071.44 324.12 1075.36 310.72 1079.28 293.74 1083.2 273.23 1087.12 249.72 1091.03 224.23 1094.95 198.29 1098.87 173.77 1102.79 152.65 1106.71 136.7 1110.63 127.2 1114.55 124.64 1118.47 128.68 1122.39 138.2 1126.31 151.54 1130.22 166.83 1134.14 182.4 1138.06 196.99 1141.98 209.98 1145.9 221.33 1149.82 231.41 1153.74 240.8 1157.66 250.01 1161.58 259.36 1165.5 268.83 1169.42 278.19 1173.33 287.06 1177.25 295.04 1181.17 301.9 1185.09 307.58 1189.01 312.23 1192.93 316.14 1196.85 319.63 1200.77 323.01 1204.69 326.47 1208.61 330.07 1212.52 333.74 1216.44 337.35 1220.36 340.7 1224.28 343.61 1228.2 345.95 1232.12 347.64 1236.04 348.67 1239.96 349.1 1243.88 349.03 1247.8 348.59"/><polygon class="cls-137" points="1036.17 350.47 1040.09 350.47 1044.01 350.47 1047.93 350.47 1051.84 350.47 1055.76 350.47 1059.68 350.47 1063.6 347.59 1067.52 343.04 1071.44 336.33 1075.36 326.89 1079.28 314.23 1083.2 298.05 1087.12 278.44 1091.03 255.94 1094.95 231.59 1098.87 206.92 1102.79 183.69 1106.71 163.7 1110.63 148.39 1114.55 138.63 1118.47 134.48 1122.39 135.25 1126.31 139.7 1130.22 146.34 1134.14 153.83 1138.06 161.3 1141.98 168.45 1145.9 175.62 1149.82 183.49 1153.74 192.85 1157.66 204.27 1161.58 217.93 1165.5 233.51 1169.42 250.3 1173.33 267.32 1177.25 283.61 1181.17 298.33 1185.09 310.96 1189.01 321.29 1192.93 329.39 1196.85 335.54 1200.77 340.11 1204.69 343.5 1208.61 346.04 1212.52 347.98 1216.44 349.51 1220.36 350.47 1224.28 350.47 1228.2 350.47 1232.12 350.47 1236.04 350.47 1239.96 350.47 1243.88 350.47 1247.8 350.47 1243.88 350.47 1239.96 350.47 1236.04 350.47 1232.12 350.47 1228.2 350.47 1224.28 350.47 1220.36 350.47 1216.44 350.47 1212.52 350.47 1208.61 350.47 1204.69 350.47 1200.77 350.47 1196.85 350.47 1192.93 350.47 1189.01 350.47 1185.09 350.47 1181.17 350.47 1177.25 350.47 1173.33 350.47 1169.42 350.47 1165.5 350.47 1161.58 350.47 1157.66 350.47 1153.74 350.47 1149.82 350.47 1145.9 350.47 1141.98 350.47 1138.06 350.47 1134.14 350.47 1130.22 350.47 1126.31 350.47 1122.39 350.47 1118.47 350.47 1114.55 350.47 1110.63 350.47 1106.71 350.47 1102.79 350.47 1098.87 350.47 1094.95 350.47 1091.03 350.47 1087.12 350.47 1083.2 350.47 1079.28 350.47 1075.36 350.47 1071.44 350.47 1067.52 350.47 1063.6 350.47 1059.68 350.47 1055.76 350.47 1051.84 350.47 1047.93 350.47 1044.01 350.47 1040.09 350.47 1036.17 350.47"/><polyline class="cls-138" points="1036.17 350.47 1040.09 350.47 1044.01 350.47 1047.93 350.47 1051.84 350.47 1055.76 350.47 1059.68 350.47 1063.6 347.59 1067.52 343.04 1071.44 336.33 1075.36 326.89 1079.28 314.23 1083.2 298.05 1087.12 278.44 1091.03 255.94 1094.95 231.59 1098.87 206.92 1102.79 183.69 1106.71 163.7 1110.63 148.39 1114.55 138.63 1118.47 134.48 1122.39 135.25 1126.31 139.7 1130.22 146.34 1134.14 153.83 1138.06 161.3 1141.98 168.45 1145.9 175.62 1149.82 183.49 1153.74 192.85 1157.66 204.27 1161.58 217.93 1165.5 233.51 1169.42 250.3 1173.33 267.32 1177.25 283.61 1181.17 298.33 1185.09 310.96 1189.01 321.29 1192.93 329.39 1196.85 335.54 1200.77 340.11 1204.69 343.5 1208.61 346.04 1212.52 347.98 1216.44 349.51 1220.36 350.47 1224.28 350.47 1228.2 350.47 1232.12 350.47 1236.04 350.47 1239.96 350.47 1243.88 350.47 1247.8 350.47"/><polygon class="cls-139" points="1036.17 350.47 1040.09 350.47 1044.01 350.47 1047.93 350.47 1051.84 350.47 1055.76 350.07 1059.68 346.86 1063.6 341.94 1067.52 334.7 1071.44 324.51 1075.36 310.78 1079.28 293.12 1083.2 271.47 1087.12 246.27 1091.03 218.52 1094.95 189.82 1098.87 162.21 1102.79 137.95 1106.71 119.14 1110.63 107.41 1114.55 103.58 1118.47 107.52 1122.39 118.16 1126.31 133.77 1130.22 152.25 1134.14 171.59 1138.06 190.19 1141.98 207.08 1145.9 221.94 1149.82 234.96 1153.74 246.64 1157.66 257.52 1161.58 268.01 1165.5 278.27 1169.42 288.18 1173.33 297.5 1177.25 305.93 1181.17 313.24 1185.09 319.34 1189.01 324.3 1192.93 328.31 1196.85 331.62 1200.77 334.5 1204.69 337.13 1208.61 339.64 1212.52 342.06 1216.44 344.35 1220.36 346.43 1224.28 348.24 1228.2 349.71 1232.12 350.47 1236.04 350.47 1239.96 350.47 1243.88 350.47 1247.8 350.47 1243.88 350.47 1239.96 350.47 1236.04 350.47 1232.12 350.47 1228.2 350.47 1224.28 350.47 1220.36 350.47 1216.44 350.47 1212.52 350.47 1208.61 350.47 1204.69 350.47 1200.77 350.47 1196.85 350.47 1192.93 350.47 1189.01 350.47 1185.09 350.47 1181.17 350.47 1177.25 350.47 1173.33 350.47 1169.42 350.47 1165.5 350.47 1161.58 350.47 1157.66 350.47 1153.74 350.47 1149.82 350.47 1145.9 350.47 1141.98 350.47 1138.06 350.47 1134.14 350.47 1130.22 350.47 1126.31 350.47 1122.39 350.47 1118.47 350.47 1114.55 350.47 1110.63 350.47 1106.71 350.47 1102.79 350.47 1098.87 350.47 1094.95 350.47 1091.03 350.47 1087.12 350.47 1083.2 350.47 1079.28 350.47 1075.36 350.47 1071.44 350.47 1067.52 350.47 1063.6 350.47 1059.68 350.47 1055.76 350.47 1051.84 350.47 1047.93 350.47 1044.01 350.47 1040.09 350.47 1036.17 350.47"/><polyline class="cls-140" points="1036.17 350.47 1040.09 350.47 1044.01 350.47 1047.93 350.47 1051.84 350.47 1055.76 350.07 1059.68 346.86 1063.6 341.94 1067.52 334.7 1071.44 324.51 1075.36 310.78 1079.28 293.12 1083.2 271.47 1087.12 246.27 1091.03 218.52 1094.95 189.82 1098.87 162.21 1102.79 137.95 1106.71 119.14 1110.63 107.41 1114.55 103.58 1118.47 107.52 1122.39 118.16 1126.31 133.77 1130.22 152.25 1134.14 171.59 1138.06 190.19 1141.98 207.08 1145.9 221.94 1149.82 234.96 1153.74 246.64 1157.66 257.52 1161.58 268.01 1165.5 278.27 1169.42 288.18 1173.33 297.5 1177.25 305.93 1181.17 313.24 1185.09 319.34 1189.01 324.3 1192.93 328.31 1196.85 331.62 1200.77 334.5 1204.69 337.13 1208.61 339.64 1212.52 342.06 1216.44 344.35 1220.36 346.43 1224.28 348.24 1228.2 349.71 1232.12 350.47 1236.04 350.47 1239.96 350.47 1243.88 350.47 1247.8 350.47"/><rect class="cls-100" x="1071.44" y="85.62" width="58.79" height="264.85"/></g><g class="cls-141"><text class="cls-142" transform="translate(166.23 66.24)">ARPG</text></g><g class="cls-143"><text class="cls-142" transform="translate(411.61 66.24)">FPS</text></g><g class="cls-144"><text class="cls-142" transform="translate(641.88 66.24)">MOBA</text></g><g class="cls-145"><text class="cls-142" transform="translate(887.95 66.24)"><tspan class="cls-65">R</tspan><tspan x="11.07" y="0">TS</tspan></text></g><g class="cls-146"><text class="cls-142" transform="translate(1114.42 66.24)">TBRGB</text></g><line class="cls-147" x1="72.51" y1="363.72" x2="305.3" y2="363.72"/><line class="cls-48" x1="79.17" y1="366.46" x2="79.17" y2="363.72"/><line class="cls-48" x1="157.55" y1="366.46" x2="157.55" y2="363.72"/><line class="cls-48" x1="235.93" y1="366.46" x2="235.93" y2="363.72"/><text class="cls-47" transform="translate(75.84 377.26)">0</text><text class="cls-47" transform="translate(150.88 377.26)">20</text><text class="cls-47" transform="translate(229.26 377.26)">40</text><line class="cls-147" x1="310.78" y1="363.72" x2="543.57" y2="363.72"/><line class="cls-48" x1="317.44" y1="366.46" x2="317.44" y2="363.72"/><line class="cls-48" x1="395.82" y1="366.46" x2="395.82" y2="363.72"/><line class="cls-48" x1="474.2" y1="366.46" x2="474.2" y2="363.72"/><text class="cls-47" transform="translate(314.11 377.26)">0</text><text class="cls-47" transform="translate(389.15 377.26)">20</text><text class="cls-47" transform="translate(467.53 377.26)">40</text><line class="cls-147" x1="549.05" y1="363.72" x2="781.84" y2="363.72"/><line class="cls-48" x1="555.71" y1="366.46" x2="555.71" y2="363.72"/><line class="cls-48" x1="634.09" y1="366.46" x2="634.09" y2="363.72"/><line class="cls-48" x1="712.47" y1="366.46" x2="712.47" y2="363.72"/><text class="cls-47" transform="translate(552.38 377.26)">0</text><text class="cls-47" transform="translate(627.42 377.26)">20</text><text class="cls-47" transform="translate(705.8 377.26)">40</text><line class="cls-147" x1="787.32" y1="363.72" x2="1020.11" y2="363.72"/><line class="cls-48" x1="793.98" y1="366.46" x2="793.98" y2="363.72"/><line class="cls-48" x1="872.36" y1="366.46" x2="872.36" y2="363.72"/><line class="cls-48" x1="950.74" y1="366.46" x2="950.74" y2="363.72"/><text class="cls-47" transform="translate(790.64 377.26)">0</text><text class="cls-47" transform="translate(865.69 377.26)">20</text><text class="cls-47" transform="translate(944.07 377.26)">40</text><line class="cls-147" x1="1025.59" y1="363.72" x2="1258.38" y2="363.72"/><line class="cls-48" x1="1032.25" y1="366.46" x2="1032.25" y2="363.72"/><line class="cls-48" x1="1110.63" y1="366.46" x2="1110.63" y2="363.72"/><line class="cls-48" x1="1189.01" y1="366.46" x2="1189.01" y2="363.72"/><text class="cls-47" transform="translate(1028.91 377.26)">0</text><text class="cls-47" transform="translate(1103.96 377.26)">20</text><text class="cls-47" transform="translate(1182.34 377.26)">40</text><line class="cls-147" x1="72.51" y1="363.72" x2="72.51" y2="72.38"/><text class="cls-47" transform="translate(44.23 354.78)">0.00</text><text class="cls-47" transform="translate(44.23 273.29)">0.02</text><text class="cls-47" transform="translate(44.23 191.8)">0.04</text><text class="cls-47" transform="translate(44.23 110.31)">0.06</text><line class="cls-48" x1="69.77" y1="350.47" x2="72.51" y2="350.47"/><line class="cls-48" x1="69.77" y1="268.98" x2="72.51" y2="268.98"/><line class="cls-48" x1="69.77" y1="187.49" x2="72.51" y2="187.49"/><line class="cls-48" x1="69.77" y1="106" x2="72.51" y2="106"/><text class="cls-49" transform="translate(651.21 394.13)">Age</text><text class="cls-49" transform="translate(37.97 255.84) rotate(-90)">Frequency</text><rect class="cls-3" x="1269.34" y="72.92" width="186.18" height="290.26"/><text class="cls-51" transform="translate(1274.82 89.99)">Game</text><rect class="cls-53" x="1274.82" y="98.5" width="17.28" height="17.28"/><line class="cls-112" x1="1276.54" y1="107.14" x2="1290.37" y2="107.14"/><rect class="cls-115" x="1275.52" y="99.21" width="15.86" height="15.86"/><rect class="cls-148" x="1275.52" y="99.21" width="15.86" height="15.86"/><rect class="cls-53" x="1274.82" y="115.78" width="17.28" height="17.28"/><line class="cls-113" x1="1276.54" y1="124.42" x2="1290.37" y2="124.42"/><rect class="cls-117" x="1275.52" y="116.49" width="15.86" height="15.86"/><rect class="cls-149" x="1275.52" y="116.49" width="15.86" height="15.86"/><rect class="cls-53" x="1274.82" y="133.06" width="17.28" height="17.28"/><line class="cls-114" x1="1276.54" y1="141.7" x2="1290.37" y2="141.7"/><rect class="cls-119" x="1275.52" y="133.77" width="15.86" height="15.86"/><rect class="cls-150" x="1275.52" y="133.77" width="15.86" height="15.86"/><rect class="cls-53" x="1274.82" y="150.34" width="17.28" height="17.28"/><line class="cls-102" x1="1276.54" y1="158.98" x2="1290.37" y2="158.98"/><rect class="cls-105" x="1275.52" y="151.05" width="15.86" height="15.86"/><rect class="cls-151" x="1275.52" y="151.05" width="15.86" height="15.86"/><rect class="cls-53" x="1274.82" y="167.62" width="17.28" height="17.28"/><line class="cls-103" x1="1276.54" y1="176.26" x2="1290.37" y2="176.26"/><rect class="cls-107" x="1275.52" y="168.33" width="15.86" height="15.86"/><rect class="cls-152" x="1275.52" y="168.33" width="15.86" height="15.86"/><rect class="cls-53" x="1274.82" y="184.9" width="17.28" height="17.28"/><line class="cls-104" x1="1276.54" y1="193.54" x2="1290.37" y2="193.54"/><rect class="cls-109" x="1275.52" y="185.61" width="15.86" height="15.86"/><rect class="cls-153" x="1275.52" y="185.61" width="15.86" height="15.86"/><rect class="cls-53" x="1274.82" y="202.18" width="17.28" height="17.28"/><line class="cls-91" x1="1276.54" y1="210.82" x2="1290.37" y2="210.82"/><rect class="cls-94" x="1275.52" y="202.89" width="15.86" height="15.86"/><rect class="cls-154" x="1275.52" y="202.89" width="15.86" height="15.86"/><rect class="cls-53" x="1274.82" y="219.46" width="17.28" height="17.28"/><line class="cls-92" x1="1276.54" y1="228.1" x2="1290.37" y2="228.1"/><rect class="cls-96" x="1275.52" y="220.17" width="15.86" height="15.86"/><rect class="cls-155" x="1275.52" y="220.17" width="15.86" height="15.86"/><rect class="cls-53" x="1274.82" y="236.74" width="17.28" height="17.28"/><line class="cls-93" x1="1276.54" y1="245.38" x2="1290.37" y2="245.38"/><rect class="cls-98" x="1275.52" y="237.45" width="15.86" height="15.86"/><rect class="cls-156" x="1275.52" y="237.45" width="15.86" height="15.86"/><rect class="cls-53" x="1274.82" y="254.02" width="17.28" height="17.28"/><line class="cls-122" x1="1276.54" y1="262.66" x2="1290.37" y2="262.66"/><rect class="cls-125" x="1275.52" y="254.73" width="15.86" height="15.86"/><rect class="cls-157" x="1275.52" y="254.73" width="15.86" height="15.86"/><rect class="cls-53" x="1274.82" y="271.3" width="17.28" height="17.28"/><line class="cls-123" x1="1276.54" y1="279.94" x2="1290.37" y2="279.94"/><rect class="cls-127" x="1275.52" y="272.01" width="15.86" height="15.86"/><rect class="cls-158" x="1275.52" y="272.01" width="15.86" height="15.86"/><rect class="cls-53" x="1274.82" y="288.58" width="17.28" height="17.28"/><line class="cls-124" x1="1276.54" y1="297.22" x2="1290.37" y2="297.22"/><rect class="cls-129" x="1275.52" y="289.29" width="15.86" height="15.86"/><rect class="cls-159" x="1275.52" y="289.29" width="15.86" height="15.86"/><rect class="cls-53" x="1274.82" y="305.86" width="17.28" height="17.28"/><line class="cls-132" x1="1276.54" y1="314.5" x2="1290.37" y2="314.5"/><rect class="cls-135" x="1275.52" y="306.57" width="15.86" height="15.86"/><rect class="cls-160" x="1275.52" y="306.57" width="15.86" height="15.86"/><rect class="cls-53" x="1274.82" y="323.14" width="17.28" height="17.28"/><line class="cls-133" x1="1276.54" y1="331.78" x2="1290.37" y2="331.78"/><rect class="cls-137" x="1275.52" y="323.85" width="15.86" height="15.86"/><rect class="cls-161" x="1275.52" y="323.85" width="15.86" height="15.86"/><rect class="cls-53" x="1274.82" y="340.42" width="17.28" height="17.28"/><line class="cls-134" x1="1276.54" y1="349.06" x2="1290.37" y2="349.06"/><rect class="cls-139" x="1275.52" y="341.13" width="15.86" height="15.86"/><rect class="cls-162" x="1275.52" y="341.13" width="15.86" height="15.86"/><text class="cls-64" transform="translate(1299.07 111.45)">Honor_of_Kings</text><text class="cls-64" transform="translate(1299.07 128.73)">On<tspan class="cls-163" x="16.01" y="0">m</tspan><tspan class="cls-164" x="25.82" y="0">y</tspan><tspan x="31.6" y="0">oji_Arena</tspan></text><text class="cls-64" transform="translate(1299.07 146.01)">Mobile_League</text><text class="cls-64" transform="translate(1299.07 163.29)">Mobile_Crossfire</text><text class="cls-64" transform="translate(1299.07 180.57)">Mobile_PUBG</text><text class="cls-64" transform="translate(1299.07 197.85)">Ace_<tspan class="cls-165" x="27.35" y="0">F</tspan><tspan x="34.33" y="0">orce</tspan></text><text class="cls-64" transform="translate(1299.07 215.13)">Genshin_Impact</text><text class="cls-64" transform="translate(1299.07 232.41)">Honkai_Impact</text><text class="cls-64" transform="translate(1299.07 249.69)">P<tspan class="cls-166" x="8" y="0">r</tspan><tspan x="12.17" y="0">incess_Connect</tspan></text><text class="cls-64" transform="translate(1299.07 266.97)">Clash_R<tspan class="cls-65" x="46.02" y="0">o</tspan><tspan class="cls-167" x="52.33" y="0">y</tspan><tspan x="58.11" y="0">ale</tspan></text><text class="cls-64" transform="translate(1299.07 284.25)">Clash_of_Clans</text><text class="cls-64" transform="translate(1299.07 301.53)">Carrot_<tspan class="cls-168" x="40.01" y="0">F</tspan><tspan x="46.76" y="0">antasy</tspan></text><text class="cls-64" transform="translate(1299.07 318.81)">On<tspan class="cls-163" x="16.01" y="0">m</tspan><tspan class="cls-164" x="25.82" y="0">y</tspan><tspan x="31.6" y="0">oji</tspan></text><text class="cls-64" transform="translate(1299.07 336.09)"><tspan class="cls-168">F</tspan><tspan x="6.74" y="0">antasy_</tspan><tspan class="cls-165" x="48.77" y="0">W</tspan><tspan x="59.75" y="0">est</tspan><tspan class="cls-169" x="75.76" y="0">w</tspan><tspan x="84.24" y="0">ard_Jou</tspan><tspan class="cls-170" x="127.61" y="0">r</tspan><tspan x="131.89" y="0">n</tspan><tspan class="cls-45" x="138.57" y="0">e</tspan><tspan x="145" y="0">y</tspan></text><text class="cls-64" transform="translate(1299.07 353.37)">Hea<tspan class="cls-171" x="22.01" y="0">r</tspan><tspan x="26.48" y="0">tstone</tspan></text></g><text class="cls-172" transform="translate(0 30.13)">A</text><text class="cls-172" transform="translate(1 430.13)">B</text><text class="cls-172" transform="translate(842 430.13)">C</text></svg>