<svg id="Layer_1" data-name="Layer 1" xmlns="http://www.w3.org/2000/svg" xmlns:xlink="http://www.w3.org/1999/xlink" viewBox="0 0 1461.46 868.67"><defs><style>.cls-1,.cls-100,.cls-101,.cls-116,.cls-118,.cls-120,.cls-122,.cls-124,.cls-126,.cls-128,.cls-130,.cls-132,.cls-134,.cls-136,.cls-138,.cls-140,.cls-142,.cls-144,.cls-145,.cls-157,.cls-158,.cls-159,.cls-16,.cls-160,.cls-161,.cls-163,.cls-165,.cls-167,.cls-169,.cls-171,.cls-173,.cls-174,.cls-29,.cls-30,.cls-31,.cls-33,.cls-35,.cls-37,.cls-4,.cls-40,.cls-41,.cls-42,.cls-44,.cls-46,.cls-48,.cls-50,.cls-51,.cls-52,.cls-54,.cls-56,.cls-58,.cls-60,.cls-61,.cls-62,.cls-64,.cls-66,.cls-68,.cls-7,.cls-70,.cls-71,.cls-72,.cls-74,.cls-76,.cls-78,.cls-8,.cls-86,.cls-87,.cls-88,.cls-89,.cls-90,.cls-91,.cls-92,.cls-93,.cls-94,.cls-95,.cls-96,.cls-97,.cls-98,.cls-99{fill:none;}.cls-2{clip-path:url(#clip-path);}.cls-3{fill:#fff;}.cls-4,.cls-7,.cls-8{stroke:#fff;}.cls-116,.cls-118,.cls-120,.cls-122,.cls-124,.cls-126,.cls-128,.cls-130,.cls-132,.cls-134,.cls-136,.cls-138,.cls-140,.cls-142,.cls-144,.cls-145,.cls-157,.cls-158,.cls-159,.cls-160,.cls-161,.cls-163,.cls-165,.cls-167,.cls-169,.cls-171,.cls-173,.cls-174,.cls-33,.cls-35,.cls-37,.cls-4,.cls-44,.cls-46,.cls-48,.cls-54,.cls-56,.cls-58,.cls-64,.cls-66,.cls-68,.cls-74,.cls-76,.cls-78{stroke-linecap:round;}.cls-116,.cls-118,.cls-120,.cls-122,.cls-124,.cls-126,.cls-128,.cls-130,.cls-132,.cls-134,.cls-136,.cls-138,.cls-140,.cls-142,.cls-144,.cls-145,.cls-157,.cls-158,.cls-159,.cls-16,.cls-160,.cls-161,.cls-163,.cls-165,.cls-167,.cls-169,.cls-171,.cls-173,.cls-174,.cls-29,.cls-30,.cls-31,.cls-33,.cls-35,.cls-37,.cls-4,.cls-40,.cls-41,.cls-42,.cls-44,.cls-46,.cls-48,.cls-50,.cls-51,.cls-52,.cls-54,.cls-56,.cls-58,.cls-60,.cls-61,.cls-62,.cls-64,.cls-66,.cls-68,.cls-7,.cls-70,.cls-71,.cls-72,.cls-74,.cls-76,.cls-78,.cls-8,.cls-86{stroke-linejoin:round;}.cls-100,.cls-101,.cls-145,.cls-16,.cls-29,.cls-30,.cls-31,.cls-33,.cls-35,.cls-37,.cls-4,.cls-40,.cls-41,.cls-42,.cls-44,.cls-46,.cls-48,.cls-50,.cls-51,.cls-52,.cls-54,.cls-56,.cls-58,.cls-60,.cls-61,.cls-62,.cls-64,.cls-66,.cls-68,.cls-70,.cls-71,.cls-72,.cls-74,.cls-76,.cls-78,.cls-8,.cls-86,.cls-87,.cls-88,.cls-89,.cls-90,.cls-91,.cls-92,.cls-93,.cls-94,.cls-95,.cls-96,.cls-97,.cls-98,.cls-99{stroke-width:1.07px;}.cls-5{clip-path:url(#clip-path-3);}.cls-6{fill:#ebebeb;}.cls-7{stroke-width:0.53px;}.cls-9{fill:#6f99ad;}.cls-10,.cls-133,.cls-135,.cls-137{fill:#20854e;}.cls-11,.cls-127,.cls-129,.cls-131{fill:#e18727;}.cls-12,.cls-139,.cls-141,.cls-143{fill:#7876b1;}.cls-121,.cls-123,.cls-125,.cls-13{fill:#0072b5;}.cls-115,.cls-117,.cls-119,.cls-14{fill:#bc3c29;}.cls-15,.cls-23{font-size:12px;}.cls-15{fill:#4d4d4d;}.cls-146,.cls-15,.cls-18,.cls-21,.cls-23,.cls-80{font-family:ArialMT, Arial;}.cls-16{stroke:#333;}.cls-17{letter-spacing:-0.03em;}.cls-18,.cls-80{font-size:16px;}.cls-19{letter-spacing:0.03em;}.cls-20{letter-spacing:-0.01em;}.cls-21{font-size:14px;}.cls-22{fill:#f2f2f2;}.cls-24{letter-spacing:-0.03em;}.cls-25{letter-spacing:-0.14em;}.cls-26{letter-spacing:-0.12em;}.cls-27{clip-path:url(#clip-path-4);}.cls-28{clip-path:url(#clip-path-5);}.cls-29,.cls-33,.cls-93{stroke:#00bf7d;}.cls-30,.cls-35,.cls-94{stroke:#00c0af;}.cls-31,.cls-37,.cls-95{stroke:#00bcd8;}.cls-32{fill:#00bf7d;}.cls-162,.cls-163,.cls-32,.cls-34,.cls-36,.cls-43,.cls-45,.cls-47,.cls-53,.cls-55,.cls-57,.cls-63,.cls-65,.cls-67,.cls-73,.cls-75,.cls-77{opacity:0.1;}.cls-34{fill:#00c0af;}.cls-36{fill:#00bcd8;}.cls-38{fill:orange;opacity:0.2;}.cls-39{clip-path:url(#clip-path-6);}.cls-40,.cls-44,.cls-90{stroke:#a3a500;}.cls-41,.cls-46,.cls-91{stroke:#6bb100;}.cls-42,.cls-48,.cls-92{stroke:#00ba38;}.cls-43{fill:#a3a500;}.cls-45{fill:#6bb100;}.cls-47{fill:#00ba38;}.cls-49{clip-path:url(#clip-path-7);}.cls-50,.cls-54,.cls-87{stroke:#f8766d;}.cls-51,.cls-56,.cls-88{stroke:#e58700;}.cls-52,.cls-58,.cls-89{stroke:#c99800;}.cls-53{fill:#f8766d;}.cls-55{fill:#e58700;}.cls-57{fill:#c99800;}.cls-59{clip-path:url(#clip-path-8);}.cls-60,.cls-64,.cls-96{stroke:#00b0f6;}.cls-61,.cls-66,.cls-97{stroke:#619cff;}.cls-62,.cls-68,.cls-98{stroke:#b983ff;}.cls-63{fill:#00b0f6;}.cls-65{fill:#619cff;}.cls-67{fill:#b983ff;}.cls-69{clip-path:url(#clip-path-9);}.cls-70,.cls-74,.cls-99{stroke:#e76bf3;}.cls-100,.cls-71,.cls-76{stroke:#fd61d1;}.cls-101,.cls-72,.cls-78{stroke:#ff67a4;}.cls-73{fill:#e76bf3;}.cls-75{fill:#fd61d1;}.cls-77{fill:#ff67a4;}.cls-79{clip-path:url(#clip-path-10);}.cls-80{fill:#1a1a1a;}.cls-81{clip-path:url(#clip-path-11);}.cls-82{clip-path:url(#clip-path-12);}.cls-83{clip-path:url(#clip-path-13);}.cls-84{letter-spacing:-0.03em;}.cls-85{clip-path:url(#clip-path-14);}.cls-86{stroke:#bebebe;}.cls-100,.cls-101,.cls-87,.cls-88,.cls-89,.cls-90,.cls-91,.cls-92,.cls-93,.cls-94,.cls-95,.cls-96,.cls-97,.cls-98,.cls-99{stroke-linecap:square;stroke-miterlimit:10;}.cls-102{letter-spacing:-0.01em;}.cls-103{letter-spacing:-0.02em;}.cls-104{letter-spacing:-0.03em;}.cls-105{letter-spacing:0.01em;}.cls-106{letter-spacing:-0.02em;}.cls-107{letter-spacing:-0.05em;}.cls-108{letter-spacing:-0.02em;}.cls-109{letter-spacing:0.02em;}.cls-110{letter-spacing:-0.02em;}.cls-111{letter-spacing:0.04em;}.cls-112{font-size:36px;font-family:MyriadPro-Regular, Myriad Pro;}.cls-113{clip-path:url(#clip-path-15);}.cls-114{clip-path:url(#clip-path-16);}.cls-115,.cls-116{opacity:0.36;}.cls-116,.cls-118,.cls-120,.cls-157{stroke:#bc3c29;}.cls-116,.cls-118,.cls-120,.cls-122,.cls-124,.cls-126,.cls-128,.cls-130,.cls-132,.cls-134,.cls-136,.cls-138,.cls-140,.cls-142,.cls-144,.cls-157,.cls-158,.cls-159,.cls-160,.cls-161,.cls-163,.cls-165,.cls-167,.cls-169,.cls-171,.cls-173,.cls-174{stroke-width:0.71px;}.cls-117,.cls-118{opacity:0.56;}.cls-119,.cls-120{opacity:0.69;}.cls-121,.cls-122{opacity:0.82;}.cls-122,.cls-124,.cls-126,.cls-158{stroke:#0072b5;}.cls-123,.cls-124{opacity:0.13;}.cls-125,.cls-126{opacity:0.39;}.cls-127,.cls-128{opacity:0.44;}.cls-128,.cls-130,.cls-132,.cls-159{stroke:#e18727;}.cls-129,.cls-130{opacity:0.68;}.cls-131,.cls-132{opacity:0.77;}.cls-133,.cls-134{opacity:0.32;}.cls-134,.cls-136,.cls-138,.cls-160{stroke:#20854e;}.cls-135,.cls-136{opacity:0.52;}.cls-137,.cls-138{opacity:0.6;}.cls-139,.cls-140,.cls-170,.cls-171{opacity:0.7;}.cls-140,.cls-142,.cls-144,.cls-161{stroke:#7876b1;}.cls-141,.cls-142{opacity:0.59;}.cls-143,.cls-144{opacity:0.86;}.cls-145,.cls-163,.cls-165,.cls-167,.cls-169,.cls-171,.cls-173,.cls-174{stroke:#000;}.cls-146{font-size:11px;}.cls-147{letter-spacing:0.01em;}.cls-148{letter-spacing:-0.03em;}.cls-149{letter-spacing:-0.03em;}.cls-150{letter-spacing:-0.02em;}.cls-151{letter-spacing:-0.05em;}.cls-152{letter-spacing:-0.02em;}.cls-153{letter-spacing:0.02em;}.cls-154{letter-spacing:0.04em;}.cls-155{letter-spacing:-0.02em;}.cls-156{letter-spacing:0.03em;}.cls-164,.cls-165{opacity:0.25;}.cls-166,.cls-167{opacity:0.4;}.cls-168,.cls-169{opacity:0.55;}.cls-172,.cls-173{opacity:0.85;}</style><clipPath id="clip-path" transform="translate(-20.07 -15.99)"><rect class="cls-1" x="905" y="452" width="576" height="432"/></clipPath><clipPath id="clip-path-3" transform="translate(-20.07 -15.99)"><rect class="cls-1" x="939.83" y="457.48" width="439.5" height="387.11"/></clipPath><clipPath id="clip-path-4" transform="translate(-20.07 -15.99)"><rect class="cls-1" x="41" y="59.12" width="1440" height="360"/></clipPath><clipPath id="clip-path-5" transform="translate(-20.07 -15.99)"><rect class="cls-1" x="92.51" y="88.38" width="232.79" height="291.33"/></clipPath><clipPath id="clip-path-6" transform="translate(-20.07 -15.99)"><rect class="cls-1" x="330.78" y="88.38" width="232.79" height="291.33"/></clipPath><clipPath id="clip-path-7" transform="translate(-20.07 -15.99)"><rect class="cls-1" x="569.05" y="88.38" width="232.79" height="291.33"/></clipPath><clipPath id="clip-path-8" transform="translate(-20.07 -15.99)"><rect class="cls-1" x="807.32" y="88.38" width="232.79" height="291.33"/></clipPath><clipPath id="clip-path-9" transform="translate(-20.07 -15.99)"><rect class="cls-1" x="1045.59" y="88.38" width="232.79" height="291.33"/></clipPath><clipPath id="clip-path-10" transform="translate(-20.07 -15.99)"><rect class="cls-1" x="92.51" y="64.59" width="232.79" height="23.78"/></clipPath><clipPath id="clip-path-11" transform="translate(-20.07 -15.99)"><rect class="cls-1" x="330.78" y="64.59" width="232.79" height="23.78"/></clipPath><clipPath id="clip-path-12" transform="translate(-20.07 -15.99)"><rect class="cls-1" x="569.05" y="64.59" width="232.79" height="23.78"/></clipPath><clipPath id="clip-path-13" transform="translate(-20.07 -15.99)"><rect class="cls-1" x="807.32" y="64.59" width="232.79" height="23.78"/></clipPath><clipPath id="clip-path-14" transform="translate(-20.07 -15.99)"><rect class="cls-1" x="1045.59" y="64.59" width="232.79" height="23.78"/></clipPath><clipPath id="clip-path-15" transform="translate(-20.07 -15.99)"><rect class="cls-1" x="41" y="452.12" width="864" height="432"/></clipPath><clipPath id="clip-path-16" transform="translate(-20.07 -15.99)"><rect class="cls-1" x="112.53" y="457.6" width="699.48" height="387.11"/></clipPath></defs><g class="cls-2"><rect class="cls-3" x="884.93" y="436.01" width="576" height="432"/><g class="cls-2"><rect class="cls-3" x="884.93" y="436.01" width="576" height="432"/><rect class="cls-4" x="884.93" y="436.01" width="576" height="432"/></g><g class="cls-5"><rect class="cls-6" x="919.76" y="441.49" width="439.5" height="387.11"/><line class="cls-7" x1="919.76" y1="759.55" x2="1359.26" y2="759.55"/><line class="cls-7" x1="919.76" y1="656.65" x2="1359.26" y2="656.65"/><line class="cls-7" x1="919.76" y1="553.75" x2="1359.26" y2="553.75"/><line class="cls-7" x1="919.76" y1="450.85" x2="1359.26" y2="450.85"/><line class="cls-8" x1="919.76" y1="811" x2="1359.26" y2="811"/><line class="cls-8" x1="919.76" y1="708.1" x2="1359.26" y2="708.1"/><line class="cls-8" x1="919.76" y1="605.2" x2="1359.26" y2="605.2"/><line class="cls-8" x1="919.76" y1="502.3" x2="1359.26" y2="502.3"/><line class="cls-8" x1="970.47" y1="828.6" x2="970.47" y2="441.49"/><line class="cls-8" x1="1054.99" y1="828.6" x2="1054.99" y2="441.49"/><line class="cls-8" x1="1139.51" y1="828.6" x2="1139.51" y2="441.49"/><line class="cls-8" x1="1224.03" y1="828.6" x2="1224.03" y2="441.49"/><line class="cls-8" x1="1308.55" y1="828.6" x2="1308.55" y2="441.49"/><rect class="cls-9" x="1270.52" y="523.91" width="76.07" height="287.09"/><rect class="cls-9" x="1270.52" y="465.26" width="76.07" height="58.65"/><rect class="cls-10" x="1270.52" y="459.09" width="76.07" height="6.17"/><rect class="cls-11" x="1016.96" y="635.04" width="76.07" height="131.71"/><rect class="cls-11" x="1016.96" y="631.95" width="76.07" height="3.09"/><rect class="cls-10" x="1016.96" y="766.75" width="76.07" height="44.25"/><rect class="cls-9" x="1186" y="791.45" width="76.07" height="19.55"/><rect class="cls-9" x="1186" y="585.65" width="76.07" height="205.8"/><rect class="cls-9" x="1186" y="582.56" width="76.07" height="3.09"/><rect class="cls-12" x="1101.48" y="741.03" width="76.07" height="69.97"/><rect class="cls-12" x="1101.48" y="649.45" width="76.07" height="91.58"/><rect class="cls-13" x="1101.48" y="610.35" width="76.07" height="39.1"/><rect class="cls-10" x="932.44" y="805.86" width="76.07" height="5.14"/><rect class="cls-10" x="932.44" y="799.68" width="76.07" height="6.17"/><rect class="cls-14" x="932.44" y="794.54" width="76.07" height="5.14"/></g><text class="cls-15" transform="translate(908.16 815.31)">0</text><text class="cls-15" transform="translate(908.16 712.41)">1</text><text class="cls-15" transform="translate(908.16 609.51)">2</text><text class="cls-15" transform="translate(908.16 506.61)">3</text><line class="cls-16" x1="917.02" y1="811" x2="919.76" y2="811"/><line class="cls-16" x1="917.02" y1="708.1" x2="919.76" y2="708.1"/><line class="cls-16" x1="917.02" y1="605.2" x2="919.76" y2="605.2"/><line class="cls-16" x1="917.02" y1="502.3" x2="919.76" y2="502.3"/><line class="cls-16" x1="970.47" y1="831.34" x2="970.47" y2="828.6"/><line class="cls-16" x1="1054.99" y1="831.34" x2="1054.99" y2="828.6"/><line class="cls-16" x1="1139.51" y1="831.34" x2="1139.51" y2="828.6"/><line class="cls-16" x1="1224.03" y1="831.34" x2="1224.03" y2="828.6"/><line class="cls-16" x1="1308.55" y1="831.34" x2="1308.55" y2="828.6"/><text class="cls-15" transform="translate(949.8 842.14)">TBRPG</text><text class="cls-15" transform="translate(1041.99 842.14)">RPG</text><text class="cls-15" transform="translate(1127.69 842.14)"><tspan class="cls-17">R</tspan><tspan x="8.31" y="0">TS</tspan></text><text class="cls-15" transform="translate(1212.36 842.14)">FPS</text><text class="cls-15" transform="translate(1290.88 842.14)">MOBA</text><text class="cls-18" transform="translate(1106.82 859.01)">Catego<tspan class="cls-19" x="51.59" y="0">r</tspan><tspan x="57.39" y="0">y</tspan></text><text class="cls-18" transform="translate(901.9 734.98) rotate(-90)">Gene<tspan class="cls-20" x="39.14" y="0">r</tspan><tspan x="44.31" y="0">ation Z Users (million)</tspan></text><rect class="cls-3" x="1370.22" y="567.67" width="85.23" height="134.74"/><text class="cls-21" transform="translate(1375.7 584.74)">Ope<tspan class="cls-20" x="26.46" y="0">r</tspan><tspan x="30.98" y="0">ator</tspan></text><rect class="cls-22" x="1375.7" y="593.26" width="17.28" height="17.28"/><rect class="cls-14" x="1376.41" y="593.97" width="15.86" height="15.86"/><rect class="cls-22" x="1375.7" y="610.54" width="17.28" height="17.28"/><rect class="cls-13" x="1376.41" y="611.25" width="15.86" height="15.86"/><rect class="cls-22" x="1375.7" y="627.82" width="17.28" height="17.28"/><rect class="cls-11" x="1376.41" y="628.53" width="15.86" height="15.86"/><rect class="cls-22" x="1375.7" y="645.1" width="17.28" height="17.28"/><rect class="cls-10" x="1376.41" y="645.81" width="15.86" height="15.86"/><rect class="cls-22" x="1375.7" y="662.38" width="17.28" height="17.28"/><rect class="cls-12" x="1376.41" y="663.09" width="15.86" height="15.86"/><rect class="cls-22" x="1375.7" y="679.66" width="17.28" height="17.28"/><rect class="cls-9" x="1376.41" y="680.37" width="15.86" height="15.86"/><text class="cls-23" transform="translate(1399.96 606.2)">Blizard</text><text class="cls-23" transform="translate(1399.96 623.48)"><tspan class="cls-24">F</tspan><tspan x="6.98" y="0">eiyu</tspan></text><text class="cls-23" transform="translate(1399.96 640.76)">MiHo<tspan class="cls-25" x="28" y="0">Y</tspan><tspan x="34.34" y="0">o</tspan></text><text class="cls-23" transform="translate(1399.96 658.04)">NetEase</text><text class="cls-23" transform="translate(1399.96 675.32)">Supercell</text><text class="cls-23" transform="translate(1399.96 692.6)"><tspan class="cls-26">T</tspan><tspan x="5.9" y="0">encent</tspan></text></g><g class="cls-27"><rect class="cls-3" x="20.93" y="43.13" width="1440" height="360"/><rect class="cls-3" x="20.93" y="43.13" width="1440" height="360"/><rect class="cls-4" x="20.93" y="43.13" width="1440" height="360"/><g class="cls-28"><line class="cls-7" x1="72.44" y1="309.73" x2="305.23" y2="309.73"/><line class="cls-7" x1="72.44" y1="228.24" x2="305.23" y2="228.24"/><line class="cls-7" x1="72.44" y1="146.75" x2="305.23" y2="146.75"/><line class="cls-7" x1="118.29" y1="363.72" x2="118.29" y2="72.38"/><line class="cls-7" x1="196.67" y1="363.72" x2="196.67" y2="72.38"/><line class="cls-7" x1="275.05" y1="363.72" x2="275.05" y2="72.38"/><line class="cls-8" x1="72.44" y1="350.47" x2="305.23" y2="350.47"/><line class="cls-8" x1="72.44" y1="268.98" x2="305.23" y2="268.98"/><line class="cls-8" x1="72.44" y1="187.49" x2="305.23" y2="187.49"/><line class="cls-8" x1="72.44" y1="106" x2="305.23" y2="106"/><line class="cls-8" x1="79.1" y1="363.72" x2="79.1" y2="72.38"/><line class="cls-8" x1="157.48" y1="363.72" x2="157.48" y2="72.38"/><line class="cls-8" x1="235.86" y1="363.72" x2="235.86" y2="72.38"/><polyline class="cls-29" points="83.02 350.47 86.94 350.47 90.86 350.47 94.78 350.47 98.7 350.39 102.62 347.6 106.54 343.51 110.46 337.76 114.37 330.01 118.29 320.01 122.21 307.66 126.13 293.12 130.05 276.81 133.97 259.45 137.89 242 141.81 225.61 145.73 211.38 149.65 200.28 153.56 192.91 157.48 189.42 161.4 189.43 165.32 192.11 169.24 196.34 173.16 200.93 177.08 204.88 181 207.6 184.92 209.01 188.84 209.55 192.75 210.04 196.67 211.41 200.59 214.45 204.51 219.6 208.43 226.81 212.35 235.62 216.27 245.24 220.19 254.79 224.11 263.53 228.03 271.05 231.94 277.25 235.86 282.43 239.78 287.04 243.7 291.63 247.62 296.63 251.54 302.26 255.46 308.54 259.38 315.22 263.3 321.95 267.22 328.33 271.13 333.99 275.05 338.67 278.97 342.21 282.89 344.6 286.81 345.94 290.73 346.39 294.65 346.19"/><polyline class="cls-30" points="83.02 350.47 86.94 350.47 90.86 350.47 94.78 350.47 98.7 349.24 102.62 345.74 106.54 340.59 110.46 333.3 114.37 323.43 118.29 310.62 122.21 294.72 126.13 275.86 130.05 254.56 133.97 231.74 137.89 208.66 141.81 186.87 145.73 168 149.65 153.51 153.56 144.5 157.48 141.5 161.4 144.38 165.32 152.33 169.24 164.03 173.16 177.89 177.08 192.32 181 206.03 184.92 218.19 188.84 228.51 192.75 237.19 196.67 244.72 200.59 251.68 204.51 258.55 208.43 265.54 212.35 272.61 216.27 279.48 220.19 285.8 224.11 291.27 228.03 295.76 231.94 299.35 235.86 302.32 239.78 305.06 243.7 307.97 247.62 311.35 251.54 315.36 255.46 319.94 259.38 324.9 263.3 329.95 267.22 334.77 271.13 339.06 275.05 342.61 278.97 345.32 282.89 347.16 286.81 348.22 290.73 348.61 294.65 348.51"/><polyline class="cls-31" points="83.02 350.47 86.94 350.47 90.86 350.47 94.78 350.47 98.7 348.61 102.62 344.75 106.54 339.11 110.46 331.2 114.37 320.57 118.29 306.91 122.21 290.13 126.13 270.49 130.05 248.62 133.97 225.57 137.89 202.71 141.81 181.67 145.73 164.05 149.65 151.26 153.56 144.28 157.48 143.47 161.4 148.54 165.32 158.54 169.24 172.07 173.16 187.5 177.08 203.24 181 218 184.92 230.96 188.84 241.81 192.75 250.68 196.67 258 200.59 264.28 204.51 269.95 208.43 275.22 212.35 280.08 216.27 284.37 220.19 287.88 224.11 290.47 228.03 292.21 231.94 293.36 235.86 294.35 239.78 295.67 243.7 297.79 247.62 300.99 251.54 305.37 255.46 310.76 259.38 316.84 263.3 323.17 267.22 329.28 271.13 334.78 275.05 339.39 278.97 342.95 282.89 345.44 286.81 346.94 290.73 347.62 294.65 347.68"/><polygon class="cls-32" points="83.02 350.47 86.94 350.47 90.86 350.47 94.78 350.47 98.7 350.39 102.62 347.6 106.54 343.51 110.46 337.76 114.37 330.01 118.29 320.01 122.21 307.66 126.13 293.12 130.05 276.81 133.97 259.45 137.89 242 141.81 225.61 145.73 211.38 149.65 200.28 153.56 192.91 157.48 189.42 161.4 189.43 165.32 192.11 169.24 196.34 173.16 200.93 177.08 204.88 181 207.6 184.92 209.01 188.84 209.55 192.75 210.04 196.67 211.41 200.59 214.45 204.51 219.6 208.43 226.81 212.35 235.62 216.27 245.24 220.19 254.79 224.11 263.53 228.03 271.05 231.94 277.25 235.86 282.43 239.78 287.04 243.7 291.63 247.62 296.63 251.54 302.26 255.46 308.54 259.38 315.22 263.3 321.95 267.22 328.33 271.13 333.99 275.05 338.67 278.97 342.21 282.89 344.6 286.81 345.94 290.73 346.39 294.65 346.19 294.65 350.47 290.73 350.47 286.81 350.47 282.89 350.47 278.97 350.47 275.05 350.47 271.13 350.47 267.22 350.47 263.3 350.47 259.38 350.47 255.46 350.47 251.54 350.47 247.62 350.47 243.7 350.47 239.78 350.47 235.86 350.47 231.94 350.47 228.03 350.47 224.11 350.47 220.19 350.47 216.27 350.47 212.35 350.47 208.43 350.47 204.51 350.47 200.59 350.47 196.67 350.47 192.75 350.47 188.84 350.47 184.92 350.47 181 350.47 177.08 350.47 173.16 350.47 169.24 350.47 165.32 350.47 161.4 350.47 157.48 350.47 153.56 350.47 149.65 350.47 145.73 350.47 141.81 350.47 137.89 350.47 133.97 350.47 130.05 350.47 126.13 350.47 122.21 350.47 118.29 350.47 114.37 350.47 110.46 350.47 106.54 350.47 102.62 350.47 98.7 350.47 94.78 350.47 90.86 350.47 86.94 350.47 83.02 350.47"/><polyline class="cls-33" points="83.02 350.47 86.94 350.47 90.86 350.47 94.78 350.47 98.7 350.39 102.62 347.6 106.54 343.51 110.46 337.76 114.37 330.01 118.29 320.01 122.21 307.66 126.13 293.12 130.05 276.81 133.97 259.45 137.89 242 141.81 225.61 145.73 211.38 149.65 200.28 153.56 192.91 157.48 189.42 161.4 189.43 165.32 192.11 169.24 196.34 173.16 200.93 177.08 204.88 181 207.6 184.92 209.01 188.84 209.55 192.75 210.04 196.67 211.41 200.59 214.45 204.51 219.6 208.43 226.81 212.35 235.62 216.27 245.24 220.19 254.79 224.11 263.53 228.03 271.05 231.94 277.25 235.86 282.43 239.78 287.04 243.7 291.63 247.62 296.63 251.54 302.26 255.46 308.54 259.38 315.22 263.3 321.95 267.22 328.33 271.13 333.99 275.05 338.67 278.97 342.21 282.89 344.6 286.81 345.94 290.73 346.39 294.65 346.19"/><polygon class="cls-34" points="83.02 350.47 86.94 350.47 90.86 350.47 94.78 350.47 98.7 349.24 102.62 345.74 106.54 340.59 110.46 333.3 114.37 323.43 118.29 310.62 122.21 294.72 126.13 275.86 130.05 254.56 133.97 231.74 137.89 208.66 141.81 186.87 145.73 168 149.65 153.51 153.56 144.5 157.48 141.5 161.4 144.38 165.32 152.33 169.24 164.03 173.16 177.89 177.08 192.32 181 206.03 184.92 218.19 188.84 228.51 192.75 237.19 196.67 244.72 200.59 251.68 204.51 258.55 208.43 265.54 212.35 272.61 216.27 279.48 220.19 285.8 224.11 291.27 228.03 295.76 231.94 299.35 235.86 302.32 239.78 305.06 243.7 307.97 247.62 311.35 251.54 315.36 255.46 319.94 259.38 324.9 263.3 329.95 267.22 334.77 271.13 339.06 275.05 342.61 278.97 345.32 282.89 347.16 286.81 348.22 290.73 348.61 294.65 348.51 294.65 350.47 290.73 350.47 286.81 350.47 282.89 350.47 278.97 350.47 275.05 350.47 271.13 350.47 267.22 350.47 263.3 350.47 259.38 350.47 255.46 350.47 251.54 350.47 247.62 350.47 243.7 350.47 239.78 350.47 235.86 350.47 231.94 350.47 228.03 350.47 224.11 350.47 220.19 350.47 216.27 350.47 212.35 350.47 208.43 350.47 204.51 350.47 200.59 350.47 196.67 350.47 192.75 350.47 188.84 350.47 184.92 350.47 181 350.47 177.08 350.47 173.16 350.47 169.24 350.47 165.32 350.47 161.4 350.47 157.48 350.47 153.56 350.47 149.65 350.47 145.73 350.47 141.81 350.47 137.89 350.47 133.97 350.47 130.05 350.47 126.13 350.47 122.21 350.47 118.29 350.47 114.37 350.47 110.46 350.47 106.54 350.47 102.62 350.47 98.7 350.47 94.78 350.47 90.86 350.47 86.94 350.47 83.02 350.47"/><polyline class="cls-35" points="83.02 350.47 86.94 350.47 90.86 350.47 94.78 350.47 98.7 349.24 102.62 345.74 106.54 340.59 110.46 333.3 114.37 323.43 118.29 310.62 122.21 294.72 126.13 275.86 130.05 254.56 133.97 231.74 137.89 208.66 141.81 186.87 145.73 168 149.65 153.51 153.56 144.5 157.48 141.5 161.4 144.38 165.32 152.33 169.24 164.03 173.16 177.89 177.08 192.32 181 206.03 184.92 218.19 188.84 228.51 192.75 237.19 196.67 244.72 200.59 251.68 204.51 258.55 208.43 265.54 212.35 272.61 216.27 279.48 220.19 285.8 224.11 291.27 228.03 295.76 231.94 299.35 235.86 302.32 239.78 305.06 243.7 307.97 247.62 311.35 251.54 315.36 255.46 319.94 259.38 324.9 263.3 329.95 267.22 334.77 271.13 339.06 275.05 342.61 278.97 345.32 282.89 347.16 286.81 348.22 290.73 348.61 294.65 348.51"/><polygon class="cls-36" points="83.02 350.47 86.94 350.47 90.86 350.47 94.78 350.47 98.7 348.61 102.62 344.75 106.54 339.11 110.46 331.2 114.37 320.57 118.29 306.91 122.21 290.13 126.13 270.49 130.05 248.62 133.97 225.57 137.89 202.71 141.81 181.67 145.73 164.05 149.65 151.26 153.56 144.28 157.48 143.47 161.4 148.54 165.32 158.54 169.24 172.07 173.16 187.5 177.08 203.24 181 218 184.92 230.96 188.84 241.81 192.75 250.68 196.67 258 200.59 264.28 204.51 269.95 208.43 275.22 212.35 280.08 216.27 284.37 220.19 287.88 224.11 290.47 228.03 292.21 231.94 293.36 235.86 294.35 239.78 295.67 243.7 297.79 247.62 300.99 251.54 305.37 255.46 310.76 259.38 316.84 263.3 323.17 267.22 329.28 271.13 334.78 275.05 339.39 278.97 342.95 282.89 345.44 286.81 346.94 290.73 347.62 294.65 347.68 294.65 350.47 290.73 350.47 286.81 350.47 282.89 350.47 278.97 350.47 275.05 350.47 271.13 350.47 267.22 350.47 263.3 350.47 259.38 350.47 255.46 350.47 251.54 350.47 247.62 350.47 243.7 350.47 239.78 350.47 235.86 350.47 231.94 350.47 228.03 350.47 224.11 350.47 220.19 350.47 216.27 350.47 212.35 350.47 208.43 350.47 204.51 350.47 200.59 350.47 196.67 350.47 192.75 350.47 188.84 350.47 184.92 350.47 181 350.47 177.08 350.47 173.16 350.47 169.24 350.47 165.32 350.47 161.4 350.47 157.48 350.47 153.56 350.47 149.65 350.47 145.73 350.47 141.81 350.47 137.89 350.47 133.97 350.47 130.05 350.47 126.13 350.47 122.21 350.47 118.29 350.47 114.37 350.47 110.46 350.47 106.54 350.47 102.62 350.47 98.7 350.47 94.78 350.47 90.86 350.47 86.94 350.47 83.02 350.47"/><polyline class="cls-37" points="83.02 350.47 86.94 350.47 90.86 350.47 94.78 350.47 98.7 348.61 102.62 344.75 106.54 339.11 110.46 331.2 114.37 320.57 118.29 306.91 122.21 290.13 126.13 270.49 130.05 248.62 133.97 225.57 137.89 202.71 141.81 181.67 145.73 164.05 149.65 151.26 153.56 144.28 157.48 143.47 161.4 148.54 165.32 158.54 169.24 172.07 173.16 187.5 177.08 203.24 181 218 184.92 230.96 188.84 241.81 192.75 250.68 196.67 258 200.59 264.28 204.51 269.95 208.43 275.22 212.35 280.08 216.27 284.37 220.19 287.88 224.11 290.47 228.03 292.21 231.94 293.36 235.86 294.35 239.78 295.67 243.7 297.79 247.62 300.99 251.54 305.37 255.46 310.76 259.38 316.84 263.3 323.17 267.22 329.28 271.13 334.78 275.05 339.39 278.97 342.95 282.89 345.44 286.81 346.94 290.73 347.62 294.65 347.68"/><rect class="cls-38" x="118.29" y="85.62" width="58.79" height="264.85"/></g><g class="cls-39"><line class="cls-7" x1="310.71" y1="309.73" x2="543.5" y2="309.73"/><line class="cls-7" x1="310.71" y1="228.24" x2="543.5" y2="228.24"/><line class="cls-7" x1="310.71" y1="146.75" x2="543.5" y2="146.75"/><line class="cls-7" x1="356.56" y1="363.72" x2="356.56" y2="72.38"/><line class="cls-7" x1="434.94" y1="363.72" x2="434.94" y2="72.38"/><line class="cls-7" x1="513.32" y1="363.72" x2="513.32" y2="72.38"/><line class="cls-8" x1="310.71" y1="350.47" x2="543.5" y2="350.47"/><line class="cls-8" x1="310.71" y1="268.98" x2="543.5" y2="268.98"/><line class="cls-8" x1="310.71" y1="187.49" x2="543.5" y2="187.49"/><line class="cls-8" x1="310.71" y1="106" x2="543.5" y2="106"/><line class="cls-8" x1="317.37" y1="363.72" x2="317.37" y2="72.38"/><line class="cls-8" x1="395.75" y1="363.72" x2="395.75" y2="72.38"/><line class="cls-8" x1="474.13" y1="363.72" x2="474.13" y2="72.38"/><polyline class="cls-40" points="321.29 350.47 325.21 350.47 329.13 350.47 333.05 350.47 336.97 350.47 340.89 350.25 344.81 347.21 348.72 342.52 352.64 335.59 356.56 325.75 360.48 312.37 364.4 294.94 368.32 273.31 372.24 247.77 376.16 219.23 380.08 189.22 384 159.83 387.91 133.48 391.83 112.57 395.75 99.08 399.67 94.22 403.59 98.17 407.51 110.1 411.43 128.29 415.35 150.5 419.27 174.39 423.19 197.89 427.1 219.5 431.02 238.38 434.94 254.3 438.86 267.47 442.78 278.3 446.7 287.24 450.62 294.62 454.54 300.68 458.46 305.51 462.38 309.22 466.29 311.97 470.21 313.99 474.13 315.61 478.05 317.17 481.97 319 485.89 321.34 489.81 324.27 493.73 327.74 497.65 331.58 501.57 335.57 505.49 339.44 509.4 342.99 513.32 346.06 517.24 348.57 521.16 350.47 525.08 350.47 529 350.47 532.92 350.47"/><polyline class="cls-41" points="321.29 350.47 325.21 350.47 329.13 350.47 333.05 350.47 336.97 350.47 340.89 350.47 344.81 348.93 348.72 345.83 352.64 341.61 356.56 336.1 360.48 329.2 364.4 320.95 368.32 311.51 372.24 301.21 376.16 290.51 380.08 279.95 384 270.06 387.91 261.22 391.83 253.61 395.75 247.08 399.67 241.18 403.59 235.22 407.51 228.41 411.43 220.12 415.35 210.06 419.27 198.46 423.19 186.15 427.1 174.45 431.02 164.92 434.94 159.08 438.86 158.01 442.78 162.13 446.7 171.11 450.62 183.91 454.54 199.02 458.46 214.84 462.38 229.95 466.29 243.4 470.21 254.79 474.13 264.27 478.05 272.33 481.97 279.62 485.89 286.75 489.81 294.1 493.73 301.78 497.65 309.66 501.57 317.4 505.49 324.59 509.4 330.85 513.32 335.89 517.24 339.54 521.16 341.78 525.08 342.74 529 342.62 532.92 341.71"/><polyline class="cls-42" points="321.29 350.47 325.21 350.47 329.13 350.47 333.05 350.47 336.97 350.13 340.89 347.2 344.81 342.91 348.72 336.94 352.64 328.96 356.56 318.78 360.48 306.37 364.4 291.97 368.32 276.08 372.24 259.49 376.16 243.2 380.08 228.32 384 215.87 387.91 206.66 391.83 201.11 395.75 199.16 399.67 200.26 403.59 203.46 407.51 207.6 411.43 211.53 415.35 214.36 419.27 215.65 423.19 215.48 427.1 214.45 431.02 213.46 434.94 213.51 438.86 215.38 442.78 219.5 446.7 225.77 450.62 233.68 454.54 242.39 458.46 251.01 462.38 258.82 466.29 265.43 470.21 270.83 474.13 275.36 478.05 279.56 481.97 284.01 485.89 289.16 489.81 295.23 493.73 302.15 497.65 309.62 501.57 317.19 505.49 324.36 509.4 330.69 513.32 335.84 517.24 339.64 521.16 342.05 525.08 343.19 529 343.27 532.92 342.56"/><polygon class="cls-43" points="321.29 350.47 325.21 350.47 329.13 350.47 333.05 350.47 336.97 350.47 340.89 350.25 344.81 347.21 348.72 342.52 352.64 335.59 356.56 325.75 360.48 312.37 364.4 294.94 368.32 273.31 372.24 247.77 376.16 219.23 380.08 189.22 384 159.83 387.91 133.48 391.83 112.57 395.75 99.08 399.67 94.22 403.59 98.17 407.51 110.1 411.43 128.29 415.35 150.5 419.27 174.39 423.19 197.89 427.1 219.5 431.02 238.38 434.94 254.3 438.86 267.47 442.78 278.3 446.7 287.24 450.62 294.62 454.54 300.68 458.46 305.51 462.38 309.22 466.29 311.97 470.21 313.99 474.13 315.61 478.05 317.17 481.97 319 485.89 321.34 489.81 324.27 493.73 327.74 497.65 331.58 501.57 335.57 505.49 339.44 509.4 342.99 513.32 346.06 517.24 348.57 521.16 350.47 525.08 350.47 529 350.47 532.92 350.47 529 350.47 525.08 350.47 521.16 350.47 517.24 350.47 513.32 350.47 509.4 350.47 505.49 350.47 501.57 350.47 497.65 350.47 493.73 350.47 489.81 350.47 485.89 350.47 481.97 350.47 478.05 350.47 474.13 350.47 470.21 350.47 466.29 350.47 462.38 350.47 458.46 350.47 454.54 350.47 450.62 350.47 446.7 350.47 442.78 350.47 438.86 350.47 434.94 350.47 431.02 350.47 427.1 350.47 423.19 350.47 419.27 350.47 415.35 350.47 411.43 350.47 407.51 350.47 403.59 350.47 399.67 350.47 395.75 350.47 391.83 350.47 387.91 350.47 384 350.47 380.08 350.47 376.16 350.47 372.24 350.47 368.32 350.47 364.4 350.47 360.48 350.47 356.56 350.47 352.64 350.47 348.72 350.47 344.81 350.47 340.89 350.47 336.97 350.47 333.05 350.47 329.13 350.47 325.21 350.47 321.29 350.47"/><polyline class="cls-44" points="321.29 350.47 325.21 350.47 329.13 350.47 333.05 350.47 336.97 350.47 340.89 350.25 344.81 347.21 348.72 342.52 352.64 335.59 356.56 325.75 360.48 312.37 364.4 294.94 368.32 273.31 372.24 247.77 376.16 219.23 380.08 189.22 384 159.83 387.91 133.48 391.83 112.57 395.75 99.08 399.67 94.22 403.59 98.17 407.51 110.1 411.43 128.29 415.35 150.5 419.27 174.39 423.19 197.89 427.1 219.5 431.02 238.38 434.94 254.3 438.86 267.47 442.78 278.3 446.7 287.24 450.62 294.62 454.54 300.68 458.46 305.51 462.38 309.22 466.29 311.97 470.21 313.99 474.13 315.61 478.05 317.17 481.97 319 485.89 321.34 489.81 324.27 493.73 327.74 497.65 331.58 501.57 335.57 505.49 339.44 509.4 342.99 513.32 346.06 517.24 348.57 521.16 350.47 525.08 350.47 529 350.47 532.92 350.47"/><polygon class="cls-45" points="321.29 350.47 325.21 350.47 329.13 350.47 333.05 350.47 336.97 350.47 340.89 350.47 344.81 348.93 348.72 345.83 352.64 341.61 356.56 336.1 360.48 329.2 364.4 320.95 368.32 311.51 372.24 301.21 376.16 290.51 380.08 279.95 384 270.06 387.91 261.22 391.83 253.61 395.75 247.08 399.67 241.18 403.59 235.22 407.51 228.41 411.43 220.12 415.35 210.06 419.27 198.46 423.19 186.15 427.1 174.45 431.02 164.92 434.94 159.08 438.86 158.01 442.78 162.13 446.7 171.11 450.62 183.91 454.54 199.02 458.46 214.84 462.38 229.95 466.29 243.4 470.21 254.79 474.13 264.27 478.05 272.33 481.97 279.62 485.89 286.75 489.81 294.1 493.73 301.78 497.65 309.66 501.57 317.4 505.49 324.59 509.4 330.85 513.32 335.89 517.24 339.54 521.16 341.78 525.08 342.74 529 342.62 532.92 341.71 532.92 350.47 529 350.47 525.08 350.47 521.16 350.47 517.24 350.47 513.32 350.47 509.4 350.47 505.49 350.47 501.57 350.47 497.65 350.47 493.73 350.47 489.81 350.47 485.89 350.47 481.97 350.47 478.05 350.47 474.13 350.47 470.21 350.47 466.29 350.47 462.38 350.47 458.46 350.47 454.54 350.47 450.62 350.47 446.7 350.47 442.78 350.47 438.86 350.47 434.94 350.47 431.02 350.47 427.1 350.47 423.19 350.47 419.27 350.47 415.35 350.47 411.43 350.47 407.51 350.47 403.59 350.47 399.67 350.47 395.75 350.47 391.83 350.47 387.91 350.47 384 350.47 380.08 350.47 376.16 350.47 372.24 350.47 368.32 350.47 364.4 350.47 360.48 350.47 356.56 350.47 352.64 350.47 348.72 350.47 344.81 350.47 340.89 350.47 336.97 350.47 333.05 350.47 329.13 350.47 325.21 350.47 321.29 350.47"/><polyline class="cls-46" points="321.29 350.47 325.21 350.47 329.13 350.47 333.05 350.47 336.97 350.47 340.89 350.47 344.81 348.93 348.72 345.83 352.64 341.61 356.56 336.1 360.48 329.2 364.4 320.95 368.32 311.51 372.24 301.21 376.16 290.51 380.08 279.95 384 270.06 387.91 261.22 391.83 253.61 395.75 247.08 399.67 241.18 403.59 235.22 407.51 228.41 411.43 220.12 415.35 210.06 419.27 198.46 423.19 186.15 427.1 174.45 431.02 164.92 434.94 159.08 438.86 158.01 442.78 162.13 446.7 171.11 450.62 183.91 454.54 199.02 458.46 214.84 462.38 229.95 466.29 243.4 470.21 254.79 474.13 264.27 478.05 272.33 481.97 279.62 485.89 286.75 489.81 294.1 493.73 301.78 497.65 309.66 501.57 317.4 505.49 324.59 509.4 330.85 513.32 335.89 517.24 339.54 521.16 341.78 525.08 342.74 529 342.62 532.92 341.71"/><polygon class="cls-47" points="321.29 350.47 325.21 350.47 329.13 350.47 333.05 350.47 336.97 350.13 340.89 347.2 344.81 342.91 348.72 336.94 352.64 328.96 356.56 318.78 360.48 306.37 364.4 291.97 368.32 276.08 372.24 259.49 376.16 243.2 380.08 228.32 384 215.87 387.91 206.66 391.83 201.11 395.75 199.16 399.67 200.26 403.59 203.46 407.51 207.6 411.43 211.53 415.35 214.36 419.27 215.65 423.19 215.48 427.1 214.45 431.02 213.46 434.94 213.51 438.86 215.38 442.78 219.5 446.7 225.77 450.62 233.68 454.54 242.39 458.46 251.01 462.38 258.82 466.29 265.43 470.21 270.83 474.13 275.36 478.05 279.56 481.97 284.01 485.89 289.16 489.81 295.23 493.73 302.15 497.65 309.62 501.57 317.19 505.49 324.36 509.4 330.69 513.32 335.84 517.24 339.64 521.16 342.05 525.08 343.19 529 343.27 532.92 342.56 532.92 350.47 529 350.47 525.08 350.47 521.16 350.47 517.24 350.47 513.32 350.47 509.4 350.47 505.49 350.47 501.57 350.47 497.65 350.47 493.73 350.47 489.81 350.47 485.89 350.47 481.97 350.47 478.05 350.47 474.13 350.47 470.21 350.47 466.29 350.47 462.38 350.47 458.46 350.47 454.54 350.47 450.62 350.47 446.7 350.47 442.78 350.47 438.86 350.47 434.94 350.47 431.02 350.47 427.1 350.47 423.19 350.47 419.27 350.47 415.35 350.47 411.43 350.47 407.51 350.47 403.59 350.47 399.67 350.47 395.75 350.47 391.83 350.47 387.91 350.47 384 350.47 380.08 350.47 376.16 350.47 372.24 350.47 368.32 350.47 364.4 350.47 360.48 350.47 356.56 350.47 352.64 350.47 348.72 350.47 344.81 350.47 340.89 350.47 336.97 350.47 333.05 350.47 329.13 350.47 325.21 350.47 321.29 350.47"/><polyline class="cls-48" points="321.29 350.47 325.21 350.47 329.13 350.47 333.05 350.47 336.97 350.13 340.89 347.2 344.81 342.91 348.72 336.94 352.64 328.96 356.56 318.78 360.48 306.37 364.4 291.97 368.32 276.08 372.24 259.49 376.16 243.2 380.08 228.32 384 215.87 387.91 206.66 391.83 201.11 395.75 199.16 399.67 200.26 403.59 203.46 407.51 207.6 411.43 211.53 415.35 214.36 419.27 215.65 423.19 215.48 427.1 214.45 431.02 213.46 434.94 213.51 438.86 215.38 442.78 219.5 446.7 225.77 450.62 233.68 454.54 242.39 458.46 251.01 462.38 258.82 466.29 265.43 470.21 270.83 474.13 275.36 478.05 279.56 481.97 284.01 485.89 289.16 489.81 295.23 493.73 302.15 497.65 309.62 501.57 317.19 505.49 324.36 509.4 330.69 513.32 335.84 517.24 339.64 521.16 342.05 525.08 343.19 529 343.27 532.92 342.56"/><rect class="cls-38" x="356.56" y="85.62" width="58.79" height="264.85"/></g><g class="cls-49"><line class="cls-7" x1="548.98" y1="309.73" x2="781.77" y2="309.73"/><line class="cls-7" x1="548.98" y1="228.24" x2="781.77" y2="228.24"/><line class="cls-7" x1="548.98" y1="146.75" x2="781.77" y2="146.75"/><line class="cls-7" x1="594.83" y1="363.72" x2="594.83" y2="72.38"/><line class="cls-7" x1="673.21" y1="363.72" x2="673.21" y2="72.38"/><line class="cls-7" x1="751.59" y1="363.72" x2="751.59" y2="72.38"/><line class="cls-8" x1="548.98" y1="350.47" x2="781.77" y2="350.47"/><line class="cls-8" x1="548.98" y1="268.98" x2="781.77" y2="268.98"/><line class="cls-8" x1="548.98" y1="187.49" x2="781.77" y2="187.49"/><line class="cls-8" x1="548.98" y1="106" x2="781.77" y2="106"/><line class="cls-8" x1="555.64" y1="363.72" x2="555.64" y2="72.38"/><line class="cls-8" x1="634.02" y1="363.72" x2="634.02" y2="72.38"/><line class="cls-8" x1="712.4" y1="363.72" x2="712.4" y2="72.38"/><polyline class="cls-50" points="559.56 350.47 563.48 350.47 567.4 350.47 571.32 350.47 575.24 350.47 579.16 349.66 583.07 346.63 586.99 342.29 590.91 336.32 594.83 328.44 598.75 318.46 602.67 306.39 606.59 292.41 610.51 277.01 614.43 260.9 618.35 244.99 622.26 230.28 626.18 217.68 630.1 207.87 634.02 201.14 637.94 197.33 641.86 195.82 645.78 195.68 649.7 195.9 653.62 195.63 657.54 194.42 661.45 192.33 665.37 189.99 669.29 188.36 673.21 188.51 677.13 191.34 681.05 197.31 684.97 206.31 688.89 217.71 692.81 230.5 696.73 243.53 700.64 255.8 704.56 266.63 708.48 275.76 712.4 283.33 716.32 289.74 720.24 295.53 724.16 301.17 728.08 306.98 732 313.05 735.92 319.29 739.84 325.42 743.75 331.15 747.67 336.17 751.59 340.26 755.51 343.31 759.43 345.31 763.35 346.33 767.27 346.56 771.19 346.18"/><polyline class="cls-51" points="559.56 350.47 563.48 350.47 567.4 350.47 571.32 350.47 575.24 349.27 579.16 345.82 583.07 340.77 586.99 333.7 590.91 324.22 594.83 312.06 598.75 297.18 602.67 279.79 606.59 260.49 610.51 240.19 614.43 220.12 618.35 201.65 622.26 186.14 626.18 174.73 630.1 168.13 634.02 166.52 637.94 169.45 641.86 175.99 645.78 184.82 649.7 194.51 653.62 203.8 657.54 211.83 661.45 218.23 665.37 223.17 669.29 227.22 673.21 231.15 677.13 235.67 681.05 241.23 684.97 247.94 688.89 255.52 692.81 263.43 696.73 271.06 700.64 277.89 704.56 283.65 708.48 288.35 712.4 292.25 716.32 295.81 720.24 299.48 724.16 303.63 728.08 308.44 732 313.88 735.92 319.72 739.84 325.63 743.75 331.23 747.67 336.19 751.59 340.25 755.51 343.28 759.43 345.26 763.35 346.27 767.27 346.48 771.19 346.09"/><polyline class="cls-52" points="559.56 350.47 563.48 350.47 567.4 350.47 571.32 350.47 575.24 350.47 579.16 348.61 583.07 344.87 586.99 339.39 590.91 331.7 594.83 321.31 598.75 307.85 602.67 291.15 606.59 271.34 610.51 248.97 614.43 225 618.35 200.82 622.26 178.1 626.18 158.57 630.1 143.77 634.02 134.77 637.94 131.98 641.86 135.03 645.78 142.89 649.7 154.05 653.62 166.84 657.54 179.82 661.45 191.94 665.37 202.79 669.29 212.47 673.21 221.48 677.13 230.46 681.05 239.93 684.97 250.14 688.89 261 692.81 272.13 696.73 282.99 700.64 293.03 704.56 301.86 708.48 309.29 712.4 315.37 716.32 320.32 720.24 324.47 724.16 328.11 728.08 331.49 732 334.76 735.92 337.93 739.84 340.95 743.75 343.72 747.67 346.12 751.59 348.08 755.51 349.56 759.43 350.47 763.35 350.47 767.27 350.47 771.19 350.47"/><polygon class="cls-53" points="559.56 350.47 563.48 350.47 567.4 350.47 571.32 350.47 575.24 350.47 579.16 349.66 583.07 346.63 586.99 342.29 590.91 336.32 594.83 328.44 598.75 318.46 602.67 306.39 606.59 292.41 610.51 277.01 614.43 260.9 618.35 244.99 622.26 230.28 626.18 217.68 630.1 207.87 634.02 201.14 637.94 197.33 641.86 195.82 645.78 195.68 649.7 195.9 653.62 195.63 657.54 194.42 661.45 192.33 665.37 189.99 669.29 188.36 673.21 188.51 677.13 191.34 681.05 197.31 684.97 206.31 688.89 217.71 692.81 230.5 696.73 243.53 700.64 255.8 704.56 266.63 708.48 275.76 712.4 283.33 716.32 289.74 720.24 295.53 724.16 301.17 728.08 306.98 732 313.05 735.92 319.29 739.84 325.42 743.75 331.15 747.67 336.17 751.59 340.26 755.51 343.31 759.43 345.31 763.35 346.33 767.27 346.56 771.19 346.18 771.19 350.47 767.27 350.47 763.35 350.47 759.43 350.47 755.51 350.47 751.59 350.47 747.67 350.47 743.75 350.47 739.84 350.47 735.92 350.47 732 350.47 728.08 350.47 724.16 350.47 720.24 350.47 716.32 350.47 712.4 350.47 708.48 350.47 704.56 350.47 700.64 350.47 696.73 350.47 692.81 350.47 688.89 350.47 684.97 350.47 681.05 350.47 677.13 350.47 673.21 350.47 669.29 350.47 665.37 350.47 661.45 350.47 657.54 350.47 653.62 350.47 649.7 350.47 645.78 350.47 641.86 350.47 637.94 350.47 634.02 350.47 630.1 350.47 626.18 350.47 622.26 350.47 618.35 350.47 614.43 350.47 610.51 350.47 606.59 350.47 602.67 350.47 598.75 350.47 594.83 350.47 590.91 350.47 586.99 350.47 583.07 350.47 579.16 350.47 575.24 350.47 571.32 350.47 567.4 350.47 563.48 350.47 559.56 350.47"/><polyline class="cls-54" points="559.56 350.47 563.48 350.47 567.4 350.47 571.32 350.47 575.24 350.47 579.16 349.66 583.07 346.63 586.99 342.29 590.91 336.32 594.83 328.44 598.75 318.46 602.67 306.39 606.59 292.41 610.51 277.01 614.43 260.9 618.35 244.99 622.26 230.28 626.18 217.68 630.1 207.87 634.02 201.14 637.94 197.33 641.86 195.82 645.78 195.68 649.7 195.9 653.62 195.63 657.54 194.42 661.45 192.33 665.37 189.99 669.29 188.36 673.21 188.51 677.13 191.34 681.05 197.31 684.97 206.31 688.89 217.71 692.81 230.5 696.73 243.53 700.64 255.8 704.56 266.63 708.48 275.76 712.4 283.33 716.32 289.74 720.24 295.53 724.16 301.17 728.08 306.98 732 313.05 735.92 319.29 739.84 325.42 743.75 331.15 747.67 336.17 751.59 340.26 755.51 343.31 759.43 345.31 763.35 346.33 767.27 346.56 771.19 346.18"/><polygon class="cls-55" points="559.56 350.47 563.48 350.47 567.4 350.47 571.32 350.47 575.24 349.27 579.16 345.82 583.07 340.77 586.99 333.7 590.91 324.22 594.83 312.06 598.75 297.18 602.67 279.79 606.59 260.49 610.51 240.19 614.43 220.12 618.35 201.65 622.26 186.14 626.18 174.73 630.1 168.13 634.02 166.52 637.94 169.45 641.86 175.99 645.78 184.82 649.7 194.51 653.62 203.8 657.54 211.83 661.45 218.23 665.37 223.17 669.29 227.22 673.21 231.15 677.13 235.67 681.05 241.23 684.97 247.94 688.89 255.52 692.81 263.43 696.73 271.06 700.64 277.89 704.56 283.65 708.48 288.35 712.4 292.25 716.32 295.81 720.24 299.48 724.16 303.63 728.08 308.44 732 313.88 735.92 319.72 739.84 325.63 743.75 331.23 747.67 336.19 751.59 340.25 755.51 343.28 759.43 345.26 763.35 346.27 767.27 346.48 771.19 346.09 771.19 350.47 767.27 350.47 763.35 350.47 759.43 350.47 755.51 350.47 751.59 350.47 747.67 350.47 743.75 350.47 739.84 350.47 735.92 350.47 732 350.47 728.08 350.47 724.16 350.47 720.24 350.47 716.32 350.47 712.4 350.47 708.48 350.47 704.56 350.47 700.64 350.47 696.73 350.47 692.81 350.47 688.89 350.47 684.97 350.47 681.05 350.47 677.13 350.47 673.21 350.47 669.29 350.47 665.37 350.47 661.45 350.47 657.54 350.47 653.62 350.47 649.7 350.47 645.78 350.47 641.86 350.47 637.94 350.47 634.02 350.47 630.1 350.47 626.18 350.47 622.26 350.47 618.35 350.47 614.43 350.47 610.51 350.47 606.59 350.47 602.67 350.47 598.75 350.47 594.83 350.47 590.91 350.47 586.99 350.47 583.07 350.47 579.16 350.47 575.24 350.47 571.32 350.47 567.4 350.47 563.48 350.47 559.56 350.47"/><polyline class="cls-56" points="559.56 350.47 563.48 350.47 567.4 350.47 571.32 350.47 575.24 349.27 579.16 345.82 583.07 340.77 586.99 333.7 590.91 324.22 594.83 312.06 598.75 297.18 602.67 279.79 606.59 260.49 610.51 240.19 614.43 220.12 618.35 201.65 622.26 186.14 626.18 174.73 630.1 168.13 634.02 166.52 637.94 169.45 641.86 175.99 645.78 184.82 649.7 194.51 653.62 203.8 657.54 211.83 661.45 218.23 665.37 223.17 669.29 227.22 673.21 231.15 677.13 235.67 681.05 241.23 684.97 247.94 688.89 255.52 692.81 263.43 696.73 271.06 700.64 277.89 704.56 283.65 708.48 288.35 712.4 292.25 716.32 295.81 720.24 299.48 724.16 303.63 728.08 308.44 732 313.88 735.92 319.72 739.84 325.63 743.75 331.23 747.67 336.19 751.59 340.25 755.51 343.28 759.43 345.26 763.35 346.27 767.27 346.48 771.19 346.09"/><polygon class="cls-57" points="559.56 350.47 563.48 350.47 567.4 350.47 571.32 350.47 575.24 350.47 579.16 348.61 583.07 344.87 586.99 339.39 590.91 331.7 594.83 321.31 598.75 307.85 602.67 291.15 606.59 271.34 610.51 248.97 614.43 225 618.35 200.82 622.26 178.1 626.18 158.57 630.1 143.77 634.02 134.77 637.94 131.98 641.86 135.03 645.78 142.89 649.7 154.05 653.62 166.84 657.54 179.82 661.45 191.94 665.37 202.79 669.29 212.47 673.21 221.48 677.13 230.46 681.05 239.93 684.97 250.14 688.89 261 692.81 272.13 696.73 282.99 700.64 293.03 704.56 301.86 708.48 309.29 712.4 315.37 716.32 320.32 720.24 324.47 724.16 328.11 728.08 331.49 732 334.76 735.92 337.93 739.84 340.95 743.75 343.72 747.67 346.12 751.59 348.08 755.51 349.56 759.43 350.47 763.35 350.47 767.27 350.47 771.19 350.47 767.27 350.47 763.35 350.47 759.43 350.47 755.51 350.47 751.59 350.47 747.67 350.47 743.75 350.47 739.84 350.47 735.92 350.47 732 350.47 728.08 350.47 724.16 350.47 720.24 350.47 716.32 350.47 712.4 350.47 708.48 350.47 704.56 350.47 700.64 350.47 696.73 350.47 692.81 350.47 688.89 350.47 684.97 350.47 681.05 350.47 677.13 350.47 673.21 350.47 669.29 350.47 665.37 350.47 661.45 350.47 657.54 350.47 653.62 350.47 649.7 350.47 645.78 350.47 641.86 350.47 637.94 350.47 634.02 350.47 630.1 350.47 626.18 350.47 622.26 350.47 618.35 350.47 614.43 350.47 610.51 350.47 606.59 350.47 602.67 350.47 598.75 350.47 594.83 350.47 590.91 350.47 586.99 350.47 583.07 350.47 579.16 350.47 575.24 350.47 571.32 350.47 567.4 350.47 563.48 350.47 559.56 350.47"/><polyline class="cls-58" points="559.56 350.47 563.48 350.47 567.4 350.47 571.32 350.47 575.24 350.47 579.16 348.61 583.07 344.87 586.99 339.39 590.91 331.7 594.83 321.31 598.75 307.85 602.67 291.15 606.59 271.34 610.51 248.97 614.43 225 618.35 200.82 622.26 178.1 626.18 158.57 630.1 143.77 634.02 134.77 637.94 131.98 641.86 135.03 645.78 142.89 649.7 154.05 653.62 166.84 657.54 179.82 661.45 191.94 665.37 202.79 669.29 212.47 673.21 221.48 677.13 230.46 681.05 239.93 684.97 250.14 688.89 261 692.81 272.13 696.73 282.99 700.64 293.03 704.56 301.86 708.48 309.29 712.4 315.37 716.32 320.32 720.24 324.47 724.16 328.11 728.08 331.49 732 334.76 735.92 337.93 739.84 340.95 743.75 343.72 747.67 346.12 751.59 348.08 755.51 349.56 759.43 350.47 763.35 350.47 767.27 350.47 771.19 350.47"/><rect class="cls-38" x="594.83" y="85.62" width="58.79" height="264.85"/></g><g class="cls-59"><line class="cls-7" x1="787.25" y1="309.73" x2="1020.04" y2="309.73"/><line class="cls-7" x1="787.25" y1="228.24" x2="1020.04" y2="228.24"/><line class="cls-7" x1="787.25" y1="146.75" x2="1020.04" y2="146.75"/><line class="cls-7" x1="833.1" y1="363.72" x2="833.1" y2="72.38"/><line class="cls-7" x1="911.48" y1="363.72" x2="911.48" y2="72.38"/><line class="cls-7" x1="989.86" y1="363.72" x2="989.86" y2="72.38"/><line class="cls-8" x1="787.25" y1="350.47" x2="1020.04" y2="350.47"/><line class="cls-8" x1="787.25" y1="268.98" x2="1020.04" y2="268.98"/><line class="cls-8" x1="787.25" y1="187.49" x2="1020.04" y2="187.49"/><line class="cls-8" x1="787.25" y1="106" x2="1020.04" y2="106"/><line class="cls-8" x1="793.91" y1="363.72" x2="793.91" y2="72.38"/><line class="cls-8" x1="872.29" y1="363.72" x2="872.29" y2="72.38"/><line class="cls-8" x1="950.67" y1="363.72" x2="950.67" y2="72.38"/><polyline class="cls-60" points="797.83 350.47 801.75 350.47 805.67 350.47 809.59 350.47 813.51 350.04 817.42 347.08 821.34 342.79 825.26 336.85 829.18 328.99 833.1 319.05 837.02 307.08 840.94 293.36 844.86 278.47 848.78 263.22 852.7 248.59 856.61 235.62 860.53 225.23 864.45 218.05 868.37 214.32 872.29 213.79 876.21 215.79 880.13 219.3 884.05 223.17 887.97 226.33 891.89 228.01 895.8 227.92 899.72 226.27 903.64 223.74 907.56 221.26 911.48 219.81 915.4 220.12 919.32 222.52 923.24 226.85 927.16 232.55 931.08 238.78 935 244.71 938.91 249.74 942.83 253.64 946.75 256.6 950.67 259.17 954.59 262.06 958.51 265.95 962.43 271.34 966.35 278.37 970.27 286.86 974.19 296.31 978.1 306.08 982.02 315.47 985.94 323.88 989.86 330.88 993.78 336.22 997.7 339.89 1001.62 342 1005.54 342.82 1009.46 342.66"/><polyline class="cls-61" points="797.83 350.47 801.75 350.47 805.67 350.47 809.59 350.47 813.51 349.54 817.42 346.27 821.34 341.48 825.26 334.79 829.18 325.82 833.1 314.32 837.02 300.24 840.94 283.81 844.86 265.57 848.78 246.4 852.7 227.44 856.61 209.97 860.53 195.25 864.45 184.3 868.37 177.76 872.29 175.72 876.21 177.71 880.13 182.77 884.05 189.64 887.97 196.98 891.89 203.66 895.8 208.98 899.72 212.75 903.64 215.32 907.56 217.46 911.48 220.04 915.4 223.86 919.32 229.4 923.24 236.69 927.16 245.36 931.08 254.73 935 264.01 938.91 272.53 942.83 279.89 946.75 285.99 950.67 291.06 954.59 295.51 958.51 299.81 962.43 304.36 966.35 309.37 970.27 314.87 974.19 320.68 978.1 326.5 982.02 332 985.94 336.86 989.86 340.86 993.78 343.88 997.7 345.9 1001.62 347 1005.54 347.34 1009.46 347.11"/><polyline class="cls-62" points="797.83 350.47 801.75 350.47 805.67 350.47 809.59 350.47 813.51 350.47 817.42 347.67 821.34 343.52 825.26 337.57 829.18 329.41 833.1 318.67 837.02 305.13 840.94 288.78 844.86 269.95 848.78 249.32 852.7 227.92 856.61 207.08 860.53 188.25 864.45 172.84 868.37 161.93 872.29 156.16 876.21 155.53 880.13 159.42 884.05 166.7 887.97 175.96 891.89 185.81 895.8 195.12 899.72 203.28 903.64 210.21 907.56 216.29 911.48 222.18 915.4 228.58 919.32 235.96 923.24 244.47 927.16 253.88 931.08 263.68 935 273.24 938.91 281.98 942.83 289.55 946.75 295.84 950.67 301.03 954.59 305.46 958.51 309.54 962.43 313.63 966.35 317.94 970.27 322.53 974.19 327.29 978.1 332.01 982.02 336.43 985.94 340.31 989.86 343.47 993.78 345.83 997.7 347.36 1001.62 348.14 1005.54 348.29 1009.46 347.97"/><polygon class="cls-63" points="797.83 350.47 801.75 350.47 805.67 350.47 809.59 350.47 813.51 350.04 817.42 347.08 821.34 342.79 825.26 336.85 829.18 328.99 833.1 319.05 837.02 307.08 840.94 293.36 844.86 278.47 848.78 263.22 852.7 248.59 856.61 235.62 860.53 225.23 864.45 218.05 868.37 214.32 872.29 213.79 876.21 215.79 880.13 219.3 884.05 223.17 887.97 226.33 891.89 228.01 895.8 227.92 899.72 226.27 903.64 223.74 907.56 221.26 911.48 219.81 915.4 220.12 919.32 222.52 923.24 226.85 927.16 232.55 931.08 238.78 935 244.71 938.91 249.74 942.83 253.64 946.75 256.6 950.67 259.17 954.59 262.06 958.51 265.95 962.43 271.34 966.35 278.37 970.27 286.86 974.19 296.31 978.1 306.08 982.02 315.47 985.94 323.88 989.86 330.88 993.78 336.22 997.7 339.89 1001.62 342 1005.54 342.82 1009.46 342.66 1009.46 350.47 1005.54 350.47 1001.62 350.47 997.7 350.47 993.78 350.47 989.86 350.47 985.94 350.47 982.02 350.47 978.1 350.47 974.19 350.47 970.27 350.47 966.35 350.47 962.43 350.47 958.51 350.47 954.59 350.47 950.67 350.47 946.75 350.47 942.83 350.47 938.91 350.47 935 350.47 931.08 350.47 927.16 350.47 923.24 350.47 919.32 350.47 915.4 350.47 911.48 350.47 907.56 350.47 903.64 350.47 899.72 350.47 895.8 350.47 891.89 350.47 887.97 350.47 884.05 350.47 880.13 350.47 876.21 350.47 872.29 350.47 868.37 350.47 864.45 350.47 860.53 350.47 856.61 350.47 852.7 350.47 848.78 350.47 844.86 350.47 840.94 350.47 837.02 350.47 833.1 350.47 829.18 350.47 825.26 350.47 821.34 350.47 817.42 350.47 813.51 350.47 809.59 350.47 805.67 350.47 801.75 350.47 797.83 350.47"/><polyline class="cls-64" points="797.83 350.47 801.75 350.47 805.67 350.47 809.59 350.47 813.51 350.04 817.42 347.08 821.34 342.79 825.26 336.85 829.18 328.99 833.1 319.05 837.02 307.08 840.94 293.36 844.86 278.47 848.78 263.22 852.7 248.59 856.61 235.62 860.53 225.23 864.45 218.05 868.37 214.32 872.29 213.79 876.21 215.79 880.13 219.3 884.05 223.17 887.97 226.33 891.89 228.01 895.8 227.92 899.72 226.27 903.64 223.74 907.56 221.26 911.48 219.81 915.4 220.12 919.32 222.52 923.24 226.85 927.16 232.55 931.08 238.78 935 244.71 938.91 249.74 942.83 253.64 946.75 256.6 950.67 259.17 954.59 262.06 958.51 265.95 962.43 271.34 966.35 278.37 970.27 286.86 974.19 296.31 978.1 306.08 982.02 315.47 985.94 323.88 989.86 330.88 993.78 336.22 997.7 339.89 1001.62 342 1005.54 342.82 1009.46 342.66"/><polygon class="cls-65" points="797.83 350.47 801.75 350.47 805.67 350.47 809.59 350.47 813.51 349.54 817.42 346.27 821.34 341.48 825.26 334.79 829.18 325.82 833.1 314.32 837.02 300.24 840.94 283.81 844.86 265.57 848.78 246.4 852.7 227.44 856.61 209.97 860.53 195.25 864.45 184.3 868.37 177.76 872.29 175.72 876.21 177.71 880.13 182.77 884.05 189.64 887.97 196.98 891.89 203.66 895.8 208.98 899.72 212.75 903.64 215.32 907.56 217.46 911.48 220.04 915.4 223.86 919.32 229.4 923.24 236.69 927.16 245.36 931.08 254.73 935 264.01 938.91 272.53 942.83 279.89 946.75 285.99 950.67 291.06 954.59 295.51 958.51 299.81 962.43 304.36 966.35 309.37 970.27 314.87 974.19 320.68 978.1 326.5 982.02 332 985.94 336.86 989.86 340.86 993.78 343.88 997.7 345.9 1001.62 347 1005.54 347.34 1009.46 347.11 1009.46 350.47 1005.54 350.47 1001.62 350.47 997.7 350.47 993.78 350.47 989.86 350.47 985.94 350.47 982.02 350.47 978.1 350.47 974.19 350.47 970.27 350.47 966.35 350.47 962.43 350.47 958.51 350.47 954.59 350.47 950.67 350.47 946.75 350.47 942.83 350.47 938.91 350.47 935 350.47 931.08 350.47 927.16 350.47 923.24 350.47 919.32 350.47 915.4 350.47 911.48 350.47 907.56 350.47 903.64 350.47 899.72 350.47 895.8 350.47 891.89 350.47 887.97 350.47 884.05 350.47 880.13 350.47 876.21 350.47 872.29 350.47 868.37 350.47 864.45 350.47 860.53 350.47 856.61 350.47 852.7 350.47 848.78 350.47 844.86 350.47 840.94 350.47 837.02 350.47 833.1 350.47 829.18 350.47 825.26 350.47 821.34 350.47 817.42 350.47 813.51 350.47 809.59 350.47 805.67 350.47 801.75 350.47 797.83 350.47"/><polyline class="cls-66" points="797.83 350.47 801.75 350.47 805.67 350.47 809.59 350.47 813.51 349.54 817.42 346.27 821.34 341.48 825.26 334.79 829.18 325.82 833.1 314.32 837.02 300.24 840.94 283.81 844.86 265.57 848.78 246.4 852.7 227.44 856.61 209.97 860.53 195.25 864.45 184.3 868.37 177.76 872.29 175.72 876.21 177.71 880.13 182.77 884.05 189.64 887.97 196.98 891.89 203.66 895.8 208.98 899.72 212.75 903.64 215.32 907.56 217.46 911.48 220.04 915.4 223.86 919.32 229.4 923.24 236.69 927.16 245.36 931.08 254.73 935 264.01 938.91 272.53 942.83 279.89 946.75 285.99 950.67 291.06 954.59 295.51 958.51 299.81 962.43 304.36 966.35 309.37 970.27 314.87 974.19 320.68 978.1 326.5 982.02 332 985.94 336.86 989.86 340.86 993.78 343.88 997.7 345.9 1001.62 347 1005.54 347.34 1009.46 347.11"/><polygon class="cls-67" points="797.83 350.47 801.75 350.47 805.67 350.47 809.59 350.47 813.51 350.47 817.42 347.67 821.34 343.52 825.26 337.57 829.18 329.41 833.1 318.67 837.02 305.13 840.94 288.78 844.86 269.95 848.78 249.32 852.7 227.92 856.61 207.08 860.53 188.25 864.45 172.84 868.37 161.93 872.29 156.16 876.21 155.53 880.13 159.42 884.05 166.7 887.97 175.96 891.89 185.81 895.8 195.12 899.72 203.28 903.64 210.21 907.56 216.29 911.48 222.18 915.4 228.58 919.32 235.96 923.24 244.47 927.16 253.88 931.08 263.68 935 273.24 938.91 281.98 942.83 289.55 946.75 295.84 950.67 301.03 954.59 305.46 958.51 309.54 962.43 313.63 966.35 317.94 970.27 322.53 974.19 327.29 978.1 332.01 982.02 336.43 985.94 340.31 989.86 343.47 993.78 345.83 997.7 347.36 1001.62 348.14 1005.54 348.29 1009.46 347.97 1009.46 350.47 1005.54 350.47 1001.62 350.47 997.7 350.47 993.78 350.47 989.86 350.47 985.94 350.47 982.02 350.47 978.1 350.47 974.19 350.47 970.27 350.47 966.35 350.47 962.43 350.47 958.51 350.47 954.59 350.47 950.67 350.47 946.75 350.47 942.83 350.47 938.91 350.47 935 350.47 931.08 350.47 927.16 350.47 923.24 350.47 919.32 350.47 915.4 350.47 911.48 350.47 907.56 350.47 903.64 350.47 899.72 350.47 895.8 350.47 891.89 350.47 887.97 350.47 884.05 350.47 880.13 350.47 876.21 350.47 872.29 350.47 868.37 350.47 864.45 350.47 860.53 350.47 856.61 350.47 852.7 350.47 848.78 350.47 844.86 350.47 840.94 350.47 837.02 350.47 833.1 350.47 829.18 350.47 825.26 350.47 821.34 350.47 817.42 350.47 813.51 350.47 809.59 350.47 805.67 350.47 801.75 350.47 797.83 350.47"/><polyline class="cls-68" points="797.83 350.47 801.75 350.47 805.67 350.47 809.59 350.47 813.51 350.47 817.42 347.67 821.34 343.52 825.26 337.57 829.18 329.41 833.1 318.67 837.02 305.13 840.94 288.78 844.86 269.95 848.78 249.32 852.7 227.92 856.61 207.08 860.53 188.25 864.45 172.84 868.37 161.93 872.29 156.16 876.21 155.53 880.13 159.42 884.05 166.7 887.97 175.96 891.89 185.81 895.8 195.12 899.72 203.28 903.64 210.21 907.56 216.29 911.48 222.18 915.4 228.58 919.32 235.96 923.24 244.47 927.16 253.88 931.08 263.68 935 273.24 938.91 281.98 942.83 289.55 946.75 295.84 950.67 301.03 954.59 305.46 958.51 309.54 962.43 313.63 966.35 317.94 970.27 322.53 974.19 327.29 978.1 332.01 982.02 336.43 985.94 340.31 989.86 343.47 993.78 345.83 997.7 347.36 1001.62 348.14 1005.54 348.29 1009.46 347.97"/><rect class="cls-38" x="833.1" y="85.62" width="58.79" height="264.85"/></g><g class="cls-69"><line class="cls-7" x1="1025.52" y1="309.73" x2="1258.31" y2="309.73"/><line class="cls-7" x1="1025.52" y1="228.24" x2="1258.31" y2="228.24"/><line class="cls-7" x1="1025.52" y1="146.75" x2="1258.31" y2="146.75"/><line class="cls-7" x1="1071.37" y1="363.72" x2="1071.37" y2="72.38"/><line class="cls-7" x1="1149.75" y1="363.72" x2="1149.75" y2="72.38"/><line class="cls-7" x1="1228.13" y1="363.72" x2="1228.13" y2="72.38"/><line class="cls-8" x1="1025.52" y1="350.47" x2="1258.31" y2="350.47"/><line class="cls-8" x1="1025.52" y1="268.98" x2="1258.31" y2="268.98"/><line class="cls-8" x1="1025.52" y1="187.49" x2="1258.31" y2="187.49"/><line class="cls-8" x1="1025.52" y1="106" x2="1258.31" y2="106"/><line class="cls-8" x1="1032.18" y1="363.72" x2="1032.18" y2="72.38"/><line class="cls-8" x1="1110.56" y1="363.72" x2="1110.56" y2="72.38"/><line class="cls-8" x1="1188.94" y1="363.72" x2="1188.94" y2="72.38"/><polyline class="cls-70" points="1036.1 350.47 1040.02 350.47 1043.94 350.47 1047.86 350.47 1051.77 350.47 1055.69 348.01 1059.61 343.93 1063.53 338.01 1067.45 329.76 1071.37 318.71 1075.29 304.52 1079.21 287.06 1083.13 266.55 1087.05 243.59 1090.96 219.27 1094.88 195.01 1098.8 172.54 1102.72 153.59 1106.64 139.7 1110.56 131.89 1114.48 130.51 1118.4 135.14 1122.32 144.68 1126.24 157.56 1130.15 172.09 1134.07 186.71 1137.99 200.34 1141.91 212.45 1145.83 223.05 1149.75 232.54 1153.67 241.5 1157.59 250.42 1161.51 259.57 1165.43 268.93 1169.35 278.23 1173.26 287.05 1177.18 295.02 1181.1 301.87 1185.02 307.55 1188.94 312.21 1192.86 316.11 1196.78 319.6 1200.7 322.99 1204.62 326.45 1208.54 330.05 1212.45 333.73 1216.37 337.34 1220.29 340.69 1224.21 343.61 1228.13 345.95 1232.05 347.64 1235.97 348.67 1239.89 349.1 1243.81 349.03 1247.73 348.59"/><polyline class="cls-71" points="1036.1 350.47 1040.02 350.47 1043.94 350.47 1047.86 350.47 1051.77 350.47 1055.69 350.47 1059.61 350.36 1063.53 347.34 1067.45 342.72 1071.37 335.95 1075.29 326.45 1079.21 313.75 1083.13 297.58 1087.05 278.01 1090.96 255.58 1094.88 231.36 1098.8 206.82 1102.72 183.75 1106.64 163.9 1110.56 148.72 1114.48 139.04 1118.4 134.93 1122.32 135.7 1126.24 140.12 1130.15 146.7 1134.07 154.13 1137.99 161.52 1141.91 168.62 1145.83 175.73 1149.75 183.56 1153.67 192.89 1157.59 204.29 1161.51 217.94 1165.43 233.51 1169.35 250.29 1173.26 267.32 1177.18 283.61 1181.1 298.33 1185.02 310.96 1188.94 321.29 1192.86 329.39 1196.78 335.54 1200.7 340.11 1204.62 343.5 1208.54 346.04 1212.45 347.98 1216.37 349.51 1220.29 350.47 1224.21 350.47 1228.13 350.47 1232.05 350.47 1235.97 350.47 1239.89 350.47 1243.81 350.47 1247.73 350.47"/><polyline class="cls-72" points="1036.1 350.47 1040.02 350.47 1043.94 350.47 1047.86 350.47 1051.77 350.47 1055.69 348.65 1059.61 344.84 1063.53 339.21 1067.45 331.21 1071.37 320.26 1075.29 305.91 1079.21 287.87 1083.13 266.22 1087.05 241.46 1090.96 214.62 1094.88 187.24 1098.8 161.24 1102.72 138.68 1106.64 121.49 1110.56 111.09 1114.48 108.18 1118.4 112.58 1122.32 123.24 1126.24 138.49 1130.15 156.36 1134.07 174.97 1137.99 192.82 1141.91 209.02 1145.83 223.29 1149.75 235.85 1153.67 247.19 1157.59 257.85 1161.51 268.19 1165.43 278.35 1169.35 288.21 1173.26 297.5 1177.18 305.92 1181.1 313.23 1185.02 319.33 1188.94 324.28 1192.86 328.29 1196.78 331.61 1200.7 334.49 1204.62 337.12 1208.54 339.64 1212.45 342.05 1216.37 344.34 1220.29 346.43 1224.21 348.24 1228.13 349.71 1232.05 350.47 1235.97 350.47 1239.89 350.47 1243.81 350.47 1247.73 350.47"/><polygon class="cls-73" points="1036.1 350.47 1040.02 350.47 1043.94 350.47 1047.86 350.47 1051.77 350.47 1055.69 348.01 1059.61 343.93 1063.53 338.01 1067.45 329.76 1071.37 318.71 1075.29 304.52 1079.21 287.06 1083.13 266.55 1087.05 243.59 1090.96 219.27 1094.88 195.01 1098.8 172.54 1102.72 153.59 1106.64 139.7 1110.56 131.89 1114.48 130.51 1118.4 135.14 1122.32 144.68 1126.24 157.56 1130.15 172.09 1134.07 186.71 1137.99 200.34 1141.91 212.45 1145.83 223.05 1149.75 232.54 1153.67 241.5 1157.59 250.42 1161.51 259.57 1165.43 268.93 1169.35 278.23 1173.26 287.05 1177.18 295.02 1181.1 301.87 1185.02 307.55 1188.94 312.21 1192.86 316.11 1196.78 319.6 1200.7 322.99 1204.62 326.45 1208.54 330.05 1212.45 333.73 1216.37 337.34 1220.29 340.69 1224.21 343.61 1228.13 345.95 1232.05 347.64 1235.97 348.67 1239.89 349.1 1243.81 349.03 1247.73 348.59 1247.73 350.47 1243.81 350.47 1239.89 350.47 1235.97 350.47 1232.05 350.47 1228.13 350.47 1224.21 350.47 1220.29 350.47 1216.37 350.47 1212.45 350.47 1208.54 350.47 1204.62 350.47 1200.7 350.47 1196.78 350.47 1192.86 350.47 1188.94 350.47 1185.02 350.47 1181.1 350.47 1177.18 350.47 1173.26 350.47 1169.35 350.47 1165.43 350.47 1161.51 350.47 1157.59 350.47 1153.67 350.47 1149.75 350.47 1145.83 350.47 1141.91 350.47 1137.99 350.47 1134.07 350.47 1130.15 350.47 1126.24 350.47 1122.32 350.47 1118.4 350.47 1114.48 350.47 1110.56 350.47 1106.64 350.47 1102.72 350.47 1098.8 350.47 1094.88 350.47 1090.96 350.47 1087.05 350.47 1083.13 350.47 1079.21 350.47 1075.29 350.47 1071.37 350.47 1067.45 350.47 1063.53 350.47 1059.61 350.47 1055.69 350.47 1051.77 350.47 1047.86 350.47 1043.94 350.47 1040.02 350.47 1036.1 350.47"/><polyline class="cls-74" points="1036.1 350.47 1040.02 350.47 1043.94 350.47 1047.86 350.47 1051.77 350.47 1055.69 348.01 1059.61 343.93 1063.53 338.01 1067.45 329.76 1071.37 318.71 1075.29 304.52 1079.21 287.06 1083.13 266.55 1087.05 243.59 1090.96 219.27 1094.88 195.01 1098.8 172.54 1102.72 153.59 1106.64 139.7 1110.56 131.89 1114.48 130.51 1118.4 135.14 1122.32 144.68 1126.24 157.56 1130.15 172.09 1134.07 186.71 1137.99 200.34 1141.91 212.45 1145.83 223.05 1149.75 232.54 1153.67 241.5 1157.59 250.42 1161.51 259.57 1165.43 268.93 1169.35 278.23 1173.26 287.05 1177.18 295.02 1181.1 301.87 1185.02 307.55 1188.94 312.21 1192.86 316.11 1196.78 319.6 1200.7 322.99 1204.62 326.45 1208.54 330.05 1212.45 333.73 1216.37 337.34 1220.29 340.69 1224.21 343.61 1228.13 345.95 1232.05 347.64 1235.97 348.67 1239.89 349.1 1243.81 349.03 1247.73 348.59"/><polygon class="cls-75" points="1036.1 350.47 1040.02 350.47 1043.94 350.47 1047.86 350.47 1051.77 350.47 1055.69 350.47 1059.61 350.36 1063.53 347.34 1067.45 342.72 1071.37 335.95 1075.29 326.45 1079.21 313.75 1083.13 297.58 1087.05 278.01 1090.96 255.58 1094.88 231.36 1098.8 206.82 1102.72 183.75 1106.64 163.9 1110.56 148.72 1114.48 139.04 1118.4 134.93 1122.32 135.7 1126.24 140.12 1130.15 146.7 1134.07 154.13 1137.99 161.52 1141.91 168.62 1145.83 175.73 1149.75 183.56 1153.67 192.89 1157.59 204.29 1161.51 217.94 1165.43 233.51 1169.35 250.29 1173.26 267.32 1177.18 283.61 1181.1 298.33 1185.02 310.96 1188.94 321.29 1192.86 329.39 1196.78 335.54 1200.7 340.11 1204.62 343.5 1208.54 346.04 1212.45 347.98 1216.37 349.51 1220.29 350.47 1224.21 350.47 1228.13 350.47 1232.05 350.47 1235.97 350.47 1239.89 350.47 1243.81 350.47 1247.73 350.47 1243.81 350.47 1239.89 350.47 1235.97 350.47 1232.05 350.47 1228.13 350.47 1224.21 350.47 1220.29 350.47 1216.37 350.47 1212.45 350.47 1208.54 350.47 1204.62 350.47 1200.7 350.47 1196.78 350.47 1192.86 350.47 1188.94 350.47 1185.02 350.47 1181.1 350.47 1177.18 350.47 1173.26 350.47 1169.35 350.47 1165.43 350.47 1161.51 350.47 1157.59 350.47 1153.67 350.47 1149.75 350.47 1145.83 350.47 1141.91 350.47 1137.99 350.47 1134.07 350.47 1130.15 350.47 1126.24 350.47 1122.32 350.47 1118.4 350.47 1114.48 350.47 1110.56 350.47 1106.64 350.47 1102.72 350.47 1098.8 350.47 1094.88 350.47 1090.96 350.47 1087.05 350.47 1083.13 350.47 1079.21 350.47 1075.29 350.47 1071.37 350.47 1067.45 350.47 1063.53 350.47 1059.61 350.47 1055.69 350.47 1051.77 350.47 1047.86 350.47 1043.94 350.47 1040.02 350.47 1036.1 350.47"/><polyline class="cls-76" points="1036.1 350.47 1040.02 350.47 1043.94 350.47 1047.86 350.47 1051.77 350.47 1055.69 350.47 1059.61 350.36 1063.53 347.34 1067.45 342.72 1071.37 335.95 1075.29 326.45 1079.21 313.75 1083.13 297.58 1087.05 278.01 1090.96 255.58 1094.88 231.36 1098.8 206.82 1102.72 183.75 1106.64 163.9 1110.56 148.72 1114.48 139.04 1118.4 134.93 1122.32 135.7 1126.24 140.12 1130.15 146.7 1134.07 154.13 1137.99 161.52 1141.91 168.62 1145.83 175.73 1149.75 183.56 1153.67 192.89 1157.59 204.29 1161.51 217.94 1165.43 233.51 1169.35 250.29 1173.26 267.32 1177.18 283.61 1181.1 298.33 1185.02 310.96 1188.94 321.29 1192.86 329.39 1196.78 335.54 1200.7 340.11 1204.62 343.5 1208.54 346.04 1212.45 347.98 1216.37 349.51 1220.29 350.47 1224.21 350.47 1228.13 350.47 1232.05 350.47 1235.97 350.47 1239.89 350.47 1243.81 350.47 1247.73 350.47"/><polygon class="cls-77" points="1036.1 350.47 1040.02 350.47 1043.94 350.47 1047.86 350.47 1051.77 350.47 1055.69 348.65 1059.61 344.84 1063.53 339.21 1067.45 331.21 1071.37 320.26 1075.29 305.91 1079.21 287.87 1083.13 266.22 1087.05 241.46 1090.96 214.62 1094.88 187.24 1098.8 161.24 1102.72 138.68 1106.64 121.49 1110.56 111.09 1114.48 108.18 1118.4 112.58 1122.32 123.24 1126.24 138.49 1130.15 156.36 1134.07 174.97 1137.99 192.82 1141.91 209.02 1145.83 223.29 1149.75 235.85 1153.67 247.19 1157.59 257.85 1161.51 268.19 1165.43 278.35 1169.35 288.21 1173.26 297.5 1177.18 305.92 1181.1 313.23 1185.02 319.33 1188.94 324.28 1192.86 328.29 1196.78 331.61 1200.7 334.49 1204.62 337.12 1208.54 339.64 1212.45 342.05 1216.37 344.34 1220.29 346.43 1224.21 348.24 1228.13 349.71 1232.05 350.47 1235.97 350.47 1239.89 350.47 1243.81 350.47 1247.73 350.47 1243.81 350.47 1239.89 350.47 1235.97 350.47 1232.05 350.47 1228.13 350.47 1224.21 350.47 1220.29 350.47 1216.37 350.47 1212.45 350.47 1208.54 350.47 1204.62 350.47 1200.7 350.47 1196.78 350.47 1192.86 350.47 1188.94 350.47 1185.02 350.47 1181.1 350.47 1177.18 350.47 1173.26 350.47 1169.35 350.47 1165.43 350.47 1161.51 350.47 1157.59 350.47 1153.67 350.47 1149.75 350.47 1145.83 350.47 1141.91 350.47 1137.99 350.47 1134.07 350.47 1130.15 350.47 1126.24 350.47 1122.32 350.47 1118.4 350.47 1114.48 350.47 1110.56 350.47 1106.64 350.47 1102.72 350.47 1098.8 350.47 1094.88 350.47 1090.96 350.47 1087.05 350.47 1083.13 350.47 1079.21 350.47 1075.29 350.47 1071.37 350.47 1067.45 350.47 1063.53 350.47 1059.61 350.47 1055.69 350.47 1051.77 350.47 1047.86 350.47 1043.94 350.47 1040.02 350.47 1036.1 350.47"/><polyline class="cls-78" points="1036.1 350.47 1040.02 350.47 1043.94 350.47 1047.86 350.47 1051.77 350.47 1055.69 348.65 1059.61 344.84 1063.53 339.21 1067.45 331.21 1071.37 320.26 1075.29 305.91 1079.21 287.87 1083.13 266.22 1087.05 241.46 1090.96 214.62 1094.88 187.24 1098.8 161.24 1102.72 138.68 1106.64 121.49 1110.56 111.09 1114.48 108.18 1118.4 112.58 1122.32 123.24 1126.24 138.49 1130.15 156.36 1134.07 174.97 1137.99 192.82 1141.91 209.02 1145.83 223.29 1149.75 235.85 1153.67 247.19 1157.59 257.85 1161.51 268.19 1165.43 278.35 1169.35 288.21 1173.26 297.5 1177.18 305.92 1181.1 313.23 1185.02 319.33 1188.94 324.28 1192.86 328.29 1196.78 331.61 1200.7 334.49 1204.62 337.12 1208.54 339.64 1212.45 342.05 1216.37 344.34 1220.29 346.43 1224.21 348.24 1228.13 349.71 1232.05 350.47 1235.97 350.47 1239.89 350.47 1243.81 350.47 1247.73 350.47"/><rect class="cls-38" x="1071.37" y="85.62" width="58.79" height="264.85"/></g><g class="cls-79"><text class="cls-80" transform="translate(166.16 66.24)">ARPG</text></g><g class="cls-81"><text class="cls-80" transform="translate(411.54 66.24)">FPS</text></g><g class="cls-82"><text class="cls-80" transform="translate(641.81 66.24)">MOBA</text></g><g class="cls-83"><text class="cls-80" transform="translate(887.88 66.24)"><tspan class="cls-84">R</tspan><tspan x="11.07" y="0">TS</tspan></text></g><g class="cls-85"><text class="cls-80" transform="translate(1114.35 66.24)">TBRPG</text></g><line class="cls-86" x1="72.44" y1="363.72" x2="305.23" y2="363.72"/><line class="cls-16" x1="79.1" y1="366.46" x2="79.1" y2="363.72"/><line class="cls-16" x1="157.48" y1="366.46" x2="157.48" y2="363.72"/><line class="cls-16" x1="235.86" y1="366.46" x2="235.86" y2="363.72"/><text class="cls-15" transform="translate(75.77 377.26)">0</text><text class="cls-15" transform="translate(150.81 377.26)">20</text><text class="cls-15" transform="translate(229.19 377.26)">40</text><line class="cls-86" x1="310.71" y1="363.72" x2="543.5" y2="363.72"/><line class="cls-16" x1="317.37" y1="366.46" x2="317.37" y2="363.72"/><line class="cls-16" x1="395.75" y1="366.46" x2="395.75" y2="363.72"/><line class="cls-16" x1="474.13" y1="366.46" x2="474.13" y2="363.72"/><text class="cls-15" transform="translate(314.04 377.26)">0</text><text class="cls-15" transform="translate(389.08 377.26)">20</text><text class="cls-15" transform="translate(467.46 377.26)">40</text><line class="cls-86" x1="548.98" y1="363.72" x2="781.77" y2="363.72"/><line class="cls-16" x1="555.64" y1="366.46" x2="555.64" y2="363.72"/><line class="cls-16" x1="634.02" y1="366.46" x2="634.02" y2="363.72"/><line class="cls-16" x1="712.4" y1="366.46" x2="712.4" y2="363.72"/><text class="cls-15" transform="translate(552.31 377.26)">0</text><text class="cls-15" transform="translate(627.35 377.26)">20</text><text class="cls-15" transform="translate(705.73 377.26)">40</text><line class="cls-86" x1="787.25" y1="363.72" x2="1020.04" y2="363.72"/><line class="cls-16" x1="793.91" y1="366.46" x2="793.91" y2="363.72"/><line class="cls-16" x1="872.29" y1="366.46" x2="872.29" y2="363.72"/><line class="cls-16" x1="950.67" y1="366.46" x2="950.67" y2="363.72"/><text class="cls-15" transform="translate(790.57 377.26)">0</text><text class="cls-15" transform="translate(865.62 377.26)">20</text><text class="cls-15" transform="translate(944 377.26)">40</text><line class="cls-86" x1="1025.52" y1="363.72" x2="1258.31" y2="363.72"/><line class="cls-16" x1="1032.18" y1="366.46" x2="1032.18" y2="363.72"/><line class="cls-16" x1="1110.56" y1="366.46" x2="1110.56" y2="363.72"/><line class="cls-16" x1="1188.94" y1="366.46" x2="1188.94" y2="363.72"/><text class="cls-15" transform="translate(1028.84 377.26)">0</text><text class="cls-15" transform="translate(1103.89 377.26)">20</text><text class="cls-15" transform="translate(1182.27 377.26)">40</text><line class="cls-86" x1="72.44" y1="363.72" x2="72.44" y2="72.38"/><text class="cls-15" transform="translate(44.16 354.78)">0.00</text><text class="cls-15" transform="translate(44.16 273.29)">0.02</text><text class="cls-15" transform="translate(44.16 191.8)">0.04</text><text class="cls-15" transform="translate(44.16 110.31)">0.06</text><line class="cls-16" x1="69.7" y1="350.47" x2="72.44" y2="350.47"/><line class="cls-16" x1="69.7" y1="268.98" x2="72.44" y2="268.98"/><line class="cls-16" x1="69.7" y1="187.49" x2="72.44" y2="187.49"/><line class="cls-16" x1="69.7" y1="106" x2="72.44" y2="106"/><text class="cls-18" transform="translate(651.14 394.13)">Age</text><text class="cls-18" transform="translate(37.9 255.84) rotate(-90)">Frequency</text><rect class="cls-3" x="1269.27" y="72.92" width="186.18" height="290.26"/><text class="cls-21" transform="translate(1274.75 89.99)">Game</text><rect class="cls-22" x="1274.75" y="98.5" width="17.28" height="17.28"/><line class="cls-50" x1="1276.47" y1="107.14" x2="1290.3" y2="107.14"/><rect class="cls-53" x="1275.45" y="99.21" width="15.86" height="15.86"/><rect class="cls-87" x="1275.45" y="99.21" width="15.86" height="15.86"/><rect class="cls-22" x="1274.75" y="115.78" width="17.28" height="17.28"/><line class="cls-51" x1="1276.47" y1="124.42" x2="1290.3" y2="124.42"/><rect class="cls-55" x="1275.45" y="116.49" width="15.86" height="15.86"/><rect class="cls-88" x="1275.45" y="116.49" width="15.86" height="15.86"/><rect class="cls-22" x="1274.75" y="133.06" width="17.28" height="17.28"/><line class="cls-52" x1="1276.47" y1="141.7" x2="1290.3" y2="141.7"/><rect class="cls-57" x="1275.45" y="133.77" width="15.86" height="15.86"/><rect class="cls-89" x="1275.45" y="133.77" width="15.86" height="15.86"/><rect class="cls-22" x="1274.75" y="150.34" width="17.28" height="17.28"/><line class="cls-40" x1="1276.47" y1="158.98" x2="1290.3" y2="158.98"/><rect class="cls-43" x="1275.45" y="151.05" width="15.86" height="15.86"/><rect class="cls-90" x="1275.45" y="151.05" width="15.86" height="15.86"/><rect class="cls-22" x="1274.75" y="167.62" width="17.28" height="17.28"/><line class="cls-41" x1="1276.47" y1="176.26" x2="1290.3" y2="176.26"/><rect class="cls-45" x="1275.45" y="168.33" width="15.86" height="15.86"/><rect class="cls-91" x="1275.45" y="168.33" width="15.86" height="15.86"/><rect class="cls-22" x="1274.75" y="184.9" width="17.28" height="17.28"/><line class="cls-42" x1="1276.47" y1="193.54" x2="1290.3" y2="193.54"/><rect class="cls-47" x="1275.45" y="185.61" width="15.86" height="15.86"/><rect class="cls-92" x="1275.45" y="185.61" width="15.86" height="15.86"/><rect class="cls-22" x="1274.75" y="202.18" width="17.28" height="17.28"/><line class="cls-29" x1="1276.47" y1="210.82" x2="1290.3" y2="210.82"/><rect class="cls-32" x="1275.45" y="202.89" width="15.86" height="15.86"/><rect class="cls-93" x="1275.45" y="202.89" width="15.86" height="15.86"/><rect class="cls-22" x="1274.75" y="219.46" width="17.28" height="17.28"/><line class="cls-30" x1="1276.47" y1="228.1" x2="1290.3" y2="228.1"/><rect class="cls-34" x="1275.45" y="220.17" width="15.86" height="15.86"/><rect class="cls-94" x="1275.45" y="220.17" width="15.86" height="15.86"/><rect class="cls-22" x="1274.75" y="236.74" width="17.28" height="17.28"/><line class="cls-31" x1="1276.47" y1="245.38" x2="1290.3" y2="245.38"/><rect class="cls-36" x="1275.45" y="237.45" width="15.86" height="15.86"/><rect class="cls-95" x="1275.45" y="237.45" width="15.86" height="15.86"/><rect class="cls-22" x="1274.75" y="254.02" width="17.28" height="17.28"/><line class="cls-60" x1="1276.47" y1="262.66" x2="1290.3" y2="262.66"/><rect class="cls-63" x="1275.45" y="254.73" width="15.86" height="15.86"/><rect class="cls-96" x="1275.45" y="254.73" width="15.86" height="15.86"/><rect class="cls-22" x="1274.75" y="271.3" width="17.28" height="17.28"/><line class="cls-61" x1="1276.47" y1="279.94" x2="1290.3" y2="279.94"/><rect class="cls-65" x="1275.45" y="272.01" width="15.86" height="15.86"/><rect class="cls-97" x="1275.45" y="272.01" width="15.86" height="15.86"/><rect class="cls-22" x="1274.75" y="288.58" width="17.28" height="17.28"/><line class="cls-62" x1="1276.47" y1="297.22" x2="1290.3" y2="297.22"/><rect class="cls-67" x="1275.45" y="289.29" width="15.86" height="15.86"/><rect class="cls-98" x="1275.45" y="289.29" width="15.86" height="15.86"/><rect class="cls-22" x="1274.75" y="305.86" width="17.28" height="17.28"/><line class="cls-70" x1="1276.47" y1="314.5" x2="1290.3" y2="314.5"/><rect class="cls-73" x="1275.45" y="306.57" width="15.86" height="15.86"/><rect class="cls-99" x="1275.45" y="306.57" width="15.86" height="15.86"/><rect class="cls-22" x="1274.75" y="323.14" width="17.28" height="17.28"/><line class="cls-71" x1="1276.47" y1="331.78" x2="1290.3" y2="331.78"/><rect class="cls-75" x="1275.45" y="323.85" width="15.86" height="15.86"/><rect class="cls-100" x="1275.45" y="323.85" width="15.86" height="15.86"/><rect class="cls-22" x="1274.75" y="340.42" width="17.28" height="17.28"/><line class="cls-72" x1="1276.47" y1="349.06" x2="1290.3" y2="349.06"/><rect class="cls-77" x="1275.45" y="341.13" width="15.86" height="15.86"/><rect class="cls-101" x="1275.45" y="341.13" width="15.86" height="15.86"/><text class="cls-23" transform="translate(1299 111.45)">Honor_of_Kings</text><text class="cls-23" transform="translate(1299 128.73)">On<tspan class="cls-102" x="16.01" y="0">m</tspan><tspan class="cls-103" x="25.82" y="0">y</tspan><tspan x="31.6" y="0">oji_Arena</tspan></text><text class="cls-23" transform="translate(1299 146.01)">Mobile_League</text><text class="cls-23" transform="translate(1299 163.29)">Mobile_Crossfire</text><text class="cls-23" transform="translate(1299 180.57)">Mobile_PUBG</text><text class="cls-23" transform="translate(1299 197.85)">Ace_<tspan class="cls-104" x="27.35" y="0">F</tspan><tspan x="34.33" y="0">orce</tspan></text><text class="cls-23" transform="translate(1299 215.13)">Genshin_Impact</text><text class="cls-23" transform="translate(1299 232.41)">Honkai_Impact</text><text class="cls-23" transform="translate(1299 249.69)">A<tspan class="cls-105" x="8" y="0">r</tspan><tspan x="12.17" y="0">knights</tspan></text><text class="cls-23" transform="translate(1299 266.97)">Clash_R<tspan class="cls-84" x="46.02" y="0">o</tspan><tspan class="cls-106" x="52.33" y="0">y</tspan><tspan x="58.11" y="0">ale</tspan></text><text class="cls-23" transform="translate(1299 284.25)">Clash_of_Clans</text><text class="cls-23" transform="translate(1299 301.53)">Carrot_<tspan class="cls-107" x="40.01" y="0">F</tspan><tspan x="46.76" y="0">antasy</tspan></text><text class="cls-23" transform="translate(1299 318.81)">On<tspan class="cls-102" x="16.01" y="0">m</tspan><tspan class="cls-103" x="25.82" y="0">y</tspan><tspan x="31.6" y="0">oji</tspan></text><text class="cls-23" transform="translate(1299 336.09)"><tspan class="cls-107">F</tspan><tspan x="6.74" y="0">antasy_</tspan><tspan class="cls-104" x="48.77" y="0">W</tspan><tspan x="59.75" y="0">est</tspan><tspan class="cls-108" x="75.76" y="0">w</tspan><tspan x="84.24" y="0">ard_Jou</tspan><tspan class="cls-109" x="127.61" y="0">r</tspan><tspan x="131.89" y="0">n</tspan><tspan class="cls-110" x="138.57" y="0">e</tspan><tspan x="145" y="0">y</tspan></text><text class="cls-23" transform="translate(1299 353.37)">Hea<tspan class="cls-111" x="22.01" y="0">r</tspan><tspan x="26.48" y="0">tstone</tspan></text></g><text class="cls-112" transform="translate(0 30.13)">A</text><text class="cls-112" transform="translate(1 430.13)">B</text><text class="cls-112" transform="translate(842 430.13)">C</text><g class="cls-113"><rect class="cls-3" x="20.93" y="436.13" width="864" height="432"/><rect class="cls-3" x="20.93" y="436.13" width="864" height="432"/><rect class="cls-4" x="20.93" y="436.13" width="864" height="432"/><g class="cls-114"><rect class="cls-6" x="92.46" y="441.61" width="699.48" height="387.11"/><line class="cls-7" x1="92.46" y1="777.93" x2="791.94" y2="777.93"/><line class="cls-7" x1="92.46" y1="711.54" x2="791.94" y2="711.54"/><line class="cls-7" x1="92.46" y1="645.15" x2="791.94" y2="645.15"/><line class="cls-7" x1="92.46" y1="578.77" x2="791.94" y2="578.77"/><line class="cls-7" x1="92.46" y1="512.38" x2="791.94" y2="512.38"/><line class="cls-7" x1="92.46" y1="446" x2="791.94" y2="446"/><line class="cls-7" x1="220.57" y1="828.72" x2="220.57" y2="441.61"/><line class="cls-7" x1="413.2" y1="828.72" x2="413.2" y2="441.61"/><line class="cls-7" x1="605.84" y1="828.72" x2="605.84" y2="441.61"/><line class="cls-8" x1="92.46" y1="811.12" x2="791.94" y2="811.12"/><line class="cls-8" x1="92.46" y1="744.73" x2="791.94" y2="744.73"/><line class="cls-8" x1="92.46" y1="678.35" x2="791.94" y2="678.35"/><line class="cls-8" x1="92.46" y1="611.96" x2="791.94" y2="611.96"/><line class="cls-8" x1="92.46" y1="545.58" x2="791.94" y2="545.58"/><line class="cls-8" x1="92.46" y1="479.19" x2="791.94" y2="479.19"/><line class="cls-8" x1="124.25" y1="828.72" x2="124.25" y2="441.61"/><line class="cls-8" x1="316.89" y1="828.72" x2="316.89" y2="441.61"/><line class="cls-8" x1="509.52" y1="828.72" x2="509.52" y2="441.61"/><line class="cls-8" x1="702.16" y1="828.72" x2="702.16" y2="441.61"/><path class="cls-115" d="M625.92,534.59A64.38,64.38,0,1,1,690.3,599a64.57,64.57,0,0,1-64.38-64.37" transform="translate(-20.07 -15.99)"/><path class="cls-116" d="M625.92,534.59A64.38,64.38,0,1,1,690.3,599a64.57,64.57,0,0,1-64.38-64.37" transform="translate(-20.07 -15.99)"/><path class="cls-117" d="M506.23,576.47a31.65,31.65,0,1,1,31.65,31.65,31.74,31.74,0,0,1-31.65-31.65" transform="translate(-20.07 -15.99)"/><path class="cls-118" d="M506.23,576.47a31.65,31.65,0,1,1,31.65,31.65,31.74,31.74,0,0,1-31.65-31.65" transform="translate(-20.07 -15.99)"/><path class="cls-119" d="M323.79,714.06a11.81,11.81,0,1,1,11.81,11.81,11.84,11.84,0,0,1-11.81-11.81" transform="translate(-20.07 -15.99)"/><path class="cls-120" d="M323.79,714.06a11.81,11.81,0,1,1,11.81,11.81,11.84,11.84,0,0,1-11.81-11.81" transform="translate(-20.07 -15.99)"/><path class="cls-121" d="M543,560.2a45.19,45.19,0,1,1,45.19,45.19A45.32,45.32,0,0,1,543,560.2" transform="translate(-20.07 -15.99)"/><path class="cls-122" d="M543,560.2a45.19,45.19,0,1,1,45.19,45.19A45.32,45.32,0,0,1,543,560.2" transform="translate(-20.07 -15.99)"/><path class="cls-123" d="M322.35,654.2a5.69,5.69,0,1,1,5.69,5.69,5.71,5.71,0,0,1-5.69-5.69" transform="translate(-20.07 -15.99)"/><path class="cls-124" d="M322.35,654.2a5.69,5.69,0,1,1,5.69,5.69,5.71,5.71,0,0,1-5.69-5.69" transform="translate(-20.07 -15.99)"/><path class="cls-125" d="M308.76,645.5a28,28,0,1,1,28,28,28.11,28.11,0,0,1-28-28" transform="translate(-20.07 -15.99)"/><path class="cls-126" d="M308.76,645.5a28,28,0,1,1,28,28,28.11,28.11,0,0,1-28-28" transform="translate(-20.07 -15.99)"/><path class="cls-127" d="M438,600.88a19.82,19.82,0,1,1,19.82,19.82A19.88,19.88,0,0,1,438,600.88" transform="translate(-20.07 -15.99)"/><path class="cls-128" d="M438,600.88a19.82,19.82,0,1,1,19.82,19.82A19.88,19.88,0,0,1,438,600.88" transform="translate(-20.07 -15.99)"/><path class="cls-129" d="M578.61,546.55a55.27,55.27,0,1,1,55.27,55.27,55.44,55.44,0,0,1-55.27-55.27" transform="translate(-20.07 -15.99)"/><path class="cls-130" d="M578.61,546.55a55.27,55.27,0,1,1,55.27,55.27,55.44,55.44,0,0,1-55.27-55.27" transform="translate(-20.07 -15.99)"/><path class="cls-131" d="M263.78,731.57a5.69,5.69,0,1,1,5.69,5.68,5.71,5.71,0,0,1-5.69-5.68" transform="translate(-20.07 -15.99)"/><path class="cls-132" d="M263.78,731.57a5.69,5.69,0,1,1,5.69,5.68,5.71,5.71,0,0,1-5.69-5.68" transform="translate(-20.07 -15.99)"/><path class="cls-133" d="M540.71,622.56a34.17,34.17,0,1,1,34.16,34.17,34.26,34.26,0,0,1-34.16-34.17" transform="translate(-20.07 -15.99)"/><path class="cls-134" d="M540.71,622.56a34.17,34.17,0,1,1,34.16,34.17,34.26,34.26,0,0,1-34.16-34.17" transform="translate(-20.07 -15.99)"/><path class="cls-135" d="M540.53,618.41A38.45,38.45,0,1,1,579,656.85a38.56,38.56,0,0,1-38.45-38.44" transform="translate(-20.07 -15.99)"/><path class="cls-136" d="M540.53,618.41A38.45,38.45,0,1,1,579,656.85a38.56,38.56,0,0,1-38.45-38.44" transform="translate(-20.07 -15.99)"/><path class="cls-137" d="M475.11,771a26.59,26.59,0,1,1,26.58,26.59A26.66,26.66,0,0,1,475.11,771" transform="translate(-20.07 -15.99)"/><path class="cls-138" d="M475.11,771a26.59,26.59,0,1,1,26.58,26.59A26.66,26.66,0,0,1,475.11,771" transform="translate(-20.07 -15.99)"/><path class="cls-139" d="M310.58,621.87a10.69,10.69,0,1,1,10.68,10.68,10.71,10.71,0,0,1-10.68-10.68" transform="translate(-20.07 -15.99)"/><path class="cls-140" d="M310.58,621.87a10.69,10.69,0,1,1,10.68,10.68,10.71,10.71,0,0,1-10.68-10.68" transform="translate(-20.07 -15.99)"/><path class="cls-141" d="M338.89,557.15A11.81,11.81,0,1,1,350.69,569a11.83,11.83,0,0,1-11.8-11.81" transform="translate(-20.07 -15.99)"/><path class="cls-142" d="M338.89,557.15A11.81,11.81,0,1,1,350.69,569a11.83,11.83,0,0,1-11.8-11.81" transform="translate(-20.07 -15.99)"/><path class="cls-143" d="M304.57,658.4a10.69,10.69,0,1,1,10.69,10.69,10.71,10.71,0,0,1-10.69-10.69" transform="translate(-20.07 -15.99)"/><path class="cls-144" d="M304.57,658.4a10.69,10.69,0,1,1,10.69,10.69,10.71,10.71,0,0,1-10.69-10.69" transform="translate(-20.07 -15.99)"/><line class="cls-145" x1="653.86" y1="523.92" x2="667.36" y2="519.77"/><line class="cls-145" x1="470.71" y1="569.3" x2="516.08" y2="561.86"/><line class="cls-145" x1="298.24" y1="705.14" x2="315.66" y2="698.78"/><line class="cls-145" x1="540.23" y1="554.3" x2="566.26" y2="545.4"/><line class="cls-145" x1="286.33" y1="641.47" x2="306.65" y2="638.58"/><line class="cls-145" x1="413.86" y1="591.4" x2="437.61" y2="584.57"/><line class="cls-145" x1="591.56" y1="538.98" x2="613.1" y2="531.15"/><line class="cls-145" x1="237.98" y1="721.83" x2="247.17" y2="716.68"/><line class="cls-145" x1="524.34" y1="618.75" x2="552.72" y2="607.42"/><line class="cls-145" x1="546.63" y1="604.13" x2="557.34" y2="601.57"/><line class="cls-145" x1="454.5" y1="762.74" x2="480.71" y2="755.78"/><line class="cls-145" x1="319.84" y1="547.09" x2="330.36" y2="541.68"/><line class="cls-145" x1="271.61" y1="655.61" x2="295.08" y2="642.01"/><text class="cls-146" transform="translate(579.3 528.78)">Honor of Kings</text><text class="cls-146" transform="translate(342.95 573.48)">Mobile League of legends</text><text class="cls-146" transform="translate(226.76 710.18)">Onimoji Arena</text><text class="cls-146" transform="translate(458.34 559.03)">Genshin_Impact</text><text class="cls-146" transform="translate(198.94 645.53)">Honkai_Impact_3</text><text class="cls-146" transform="translate(272.24 637.13)">A<tspan class="cls-147" x="7.34" y="0">r</tspan><tspan x="11.15" y="0">knights</tspan></text><text class="cls-146" transform="translate(329.55 596.04)">Mobile_Crossfire</text><text class="cls-146" transform="translate(520.08 543.87)">Mobile_PUBG</text><text class="cls-146" transform="translate(183.32 727.94)">Ace_<tspan class="cls-148" x="25.07" y="0">F</tspan><tspan x="31.47" y="0">orce</tspan></text><text class="cls-146" transform="translate(454.63 623.51)">Clash_R<tspan class="cls-149" x="42.18" y="0">o</tspan><tspan class="cls-150" x="47.97" y="0">y</tspan><tspan x="53.25" y="0">ale</tspan></text><text class="cls-146" transform="translate(467.19 608.39)">Clash_of_Clans</text><text class="cls-146" transform="translate(365.21 767.28)">Carrot_<tspan class="cls-151" x="36.68" y="0">F</tspan><tspan x="42.86" y="0">antasy_3</tspan></text><text class="cls-146" transform="translate(254.76 618.79)">On<tspan class="cls-152" x="14.67" y="0">m</tspan><tspan class="cls-150" x="23.67" y="0">y</tspan><tspan x="28.95" y="0">oji</tspan></text><text class="cls-146" transform="translate(179.65 552.97)"><tspan class="cls-151">F</tspan><tspan x="6.18" y="0">antasy_</tspan><tspan class="cls-148" x="44.71" y="0">W</tspan><tspan x="54.77" y="0">est</tspan><tspan class="cls-152" x="69.44" y="0">w</tspan><tspan x="77.22" y="0">ard_Jou</tspan><tspan class="cls-153" x="116.97" y="0">r</tspan><tspan x="120.9" y="0">n</tspan><tspan class="cls-110" x="127.02" y="0">e</tspan><tspan x="132.92" y="0">y</tspan></text><text class="cls-146" transform="translate(209.46 660.65)">Hea<tspan class="cls-154" x="20.18" y="0">r</tspan><tspan x="24.27" y="0">thstone</tspan></text></g><text class="cls-15" transform="translate(54.17 815.43)"><tspan xml:space="preserve">   0.01</tspan></text><text class="cls-15" transform="translate(54.17 749.04)"><tspan xml:space="preserve">   0.10</tspan></text><text class="cls-15" transform="translate(54.17 682.66)"><tspan xml:space="preserve">   1.00</tspan></text><text class="cls-15" transform="translate(50.83 616.27)"><tspan xml:space="preserve">  10.00</tspan></text><text class="cls-15" transform="translate(47.49 549.88)"><tspan xml:space="preserve"> 100.00</tspan></text><text class="cls-15" transform="translate(44.16 483.5)">1000.00</text><line class="cls-16" x1="89.72" y1="811.12" x2="92.46" y2="811.12"/><line class="cls-16" x1="89.72" y1="744.73" x2="92.46" y2="744.73"/><line class="cls-16" x1="89.72" y1="678.35" x2="92.46" y2="678.35"/><line class="cls-16" x1="89.72" y1="611.96" x2="92.46" y2="611.96"/><line class="cls-16" x1="89.72" y1="545.58" x2="92.46" y2="545.58"/><line class="cls-16" x1="89.72" y1="479.19" x2="92.46" y2="479.19"/><line class="cls-16" x1="124.25" y1="831.46" x2="124.25" y2="828.72"/><line class="cls-16" x1="316.89" y1="831.46" x2="316.89" y2="828.72"/><line class="cls-16" x1="509.52" y1="831.46" x2="509.52" y2="828.72"/><line class="cls-16" x1="702.16" y1="831.46" x2="702.16" y2="828.72"/><text class="cls-15" transform="translate(112.58 842.26)">0.01</text><text class="cls-15" transform="translate(305.21 842.26)">0.10</text><text class="cls-15" transform="translate(497.84 842.26)">1.00</text><text class="cls-15" transform="translate(687.14 842.26)">10.00</text><text class="cls-18" transform="translate(343.63 859.13)">Monthly d<tspan class="cls-155" x="69.37" y="0">o</tspan><tspan x="78.03" y="0">wnloads (million)</tspan></text><text class="cls-18" transform="translate(37.9 747.18) rotate(-90)">Monthly income (million dollars)</text><rect class="cls-3" x="802.9" y="494.94" width="76.55" height="117.46"/><text class="cls-21" transform="translate(808.38 512.01)">Catego<tspan class="cls-156" x="45.14" y="0">r</tspan><tspan x="50.21" y="0">y</tspan></text><rect class="cls-22" x="808.38" y="520.52" width="17.28" height="17.28"/><path class="cls-14" d="M835.13,545.15a2,2,0,1,1,2,2,2,2,0,0,1-2-2" transform="translate(-20.07 -15.99)"/><path class="cls-157" d="M835.13,545.15a2,2,0,1,1,2,2,2,2,0,0,1-2-2" transform="translate(-20.07 -15.99)"/><rect class="cls-22" x="808.38" y="537.8" width="17.28" height="17.28"/><path class="cls-13" d="M835.13,562.43a2,2,0,1,1,2,2,2,2,0,0,1-2-2" transform="translate(-20.07 -15.99)"/><path class="cls-158" d="M835.13,562.43a2,2,0,1,1,2,2,2,2,0,0,1-2-2" transform="translate(-20.07 -15.99)"/><rect class="cls-22" x="808.38" y="555.08" width="17.28" height="17.28"/><path class="cls-11" d="M835.13,579.71a2,2,0,1,1,2,2,2,2,0,0,1-2-2" transform="translate(-20.07 -15.99)"/><path class="cls-159" d="M835.13,579.71a2,2,0,1,1,2,2,2,2,0,0,1-2-2" transform="translate(-20.07 -15.99)"/><rect class="cls-22" x="808.38" y="572.36" width="17.28" height="17.28"/><path class="cls-10" d="M835.13,597a2,2,0,1,1,2,2,2,2,0,0,1-2-2" transform="translate(-20.07 -15.99)"/><path class="cls-160" d="M835.13,597a2,2,0,1,1,2,2,2,2,0,0,1-2-2" transform="translate(-20.07 -15.99)"/><rect class="cls-22" x="808.38" y="589.64" width="17.28" height="17.28"/><path class="cls-12" d="M835.13,614.27a2,2,0,1,1,2,2,2,2,0,0,1-2-2" transform="translate(-20.07 -15.99)"/><path class="cls-161" d="M835.13,614.27a2,2,0,1,1,2,2,2,2,0,0,1-2-2" transform="translate(-20.07 -15.99)"/><text class="cls-23" transform="translate(832.63 533.47)">MOBA</text><text class="cls-23" transform="translate(832.63 550.75)">RPG</text><text class="cls-23" transform="translate(832.63 568.03)">FPS</text><text class="cls-23" transform="translate(832.63 585.31)"><tspan class="cls-84">R</tspan><tspan x="8.31" y="0">TS</tspan></text><text class="cls-23" transform="translate(832.63 602.59)">TBRPG</text><rect class="cls-3" x="802.9" y="623.37" width="51.89" height="152.02"/><text class="cls-21" transform="translate(808.38 640.43)">TIGZ</text><rect class="cls-22" x="808.38" y="648.95" width="17.28" height="17.28"/><path class="cls-162" d="M835.13,673.58a2,2,0,1,1,2,1.95,2,2,0,0,1-2-1.95" transform="translate(-20.07 -15.99)"/><path class="cls-163" d="M835.13,673.58a2,2,0,1,1,2,1.95,2,2,0,0,1-2-1.95" transform="translate(-20.07 -15.99)"/><rect class="cls-22" x="808.38" y="666.23" width="17.28" height="17.28"/><path class="cls-164" d="M835.13,690.86a2,2,0,1,1,2,1.95,2,2,0,0,1-2-1.95" transform="translate(-20.07 -15.99)"/><path class="cls-165" d="M835.13,690.86a2,2,0,1,1,2,1.95,2,2,0,0,1-2-1.95" transform="translate(-20.07 -15.99)"/><rect class="cls-22" x="808.38" y="683.51" width="17.28" height="17.28"/><path class="cls-166" d="M835.13,708.14a2,2,0,1,1,2,2,2,2,0,0,1-2-2" transform="translate(-20.07 -15.99)"/><path class="cls-167" d="M835.13,708.14a2,2,0,1,1,2,2,2,2,0,0,1-2-2" transform="translate(-20.07 -15.99)"/><rect class="cls-22" x="808.38" y="700.79" width="17.28" height="17.28"/><path class="cls-168" d="M835.13,725.42a2,2,0,1,1,2,2,2,2,0,0,1-2-2" transform="translate(-20.07 -15.99)"/><path class="cls-169" d="M835.13,725.42a2,2,0,1,1,2,2,2,2,0,0,1-2-2" transform="translate(-20.07 -15.99)"/><rect class="cls-22" x="808.38" y="718.07" width="17.28" height="17.28"/><path class="cls-170" d="M835.13,742.7a2,2,0,1,1,2,1.95,2,2,0,0,1-2-1.95" transform="translate(-20.07 -15.99)"/><path class="cls-171" d="M835.13,742.7a2,2,0,1,1,2,1.95,2,2,0,0,1-2-1.95" transform="translate(-20.07 -15.99)"/><rect class="cls-22" x="808.38" y="735.35" width="17.28" height="17.28"/><path class="cls-172" d="M835.13,760a2,2,0,1,1,2,1.95,2,2,0,0,1-2-1.95" transform="translate(-20.07 -15.99)"/><path class="cls-173" d="M835.13,760a2,2,0,1,1,2,1.95,2,2,0,0,1-2-1.95" transform="translate(-20.07 -15.99)"/><rect class="cls-22" x="808.38" y="752.63" width="17.28" height="17.28"/><path d="M835.13,777.26a2,2,0,1,1,2,2,2,2,0,0,1-2-2" transform="translate(-20.07 -15.99)"/><path class="cls-174" d="M835.13,777.26a2,2,0,1,1,2,2,2,2,0,0,1-2-2" transform="translate(-20.07 -15.99)"/><text class="cls-23" transform="translate(832.63 661.9)">0.4</text><text class="cls-23" transform="translate(832.63 679.18)">0.5</text><text class="cls-23" transform="translate(832.63 696.46)">0.6</text><text class="cls-23" transform="translate(832.63 713.74)">0.7</text><text class="cls-23" transform="translate(832.63 731.02)">0.8</text><text class="cls-23" transform="translate(832.63 748.3)">0.9</text><text class="cls-23" transform="translate(832.63 765.58)">1.0</text></g></svg>